<?xml version="1.0" encoding="UTF-8" standalone="no"?><!DOCTYPE svg PUBLIC "-//W3C//DTD SVG 1.1//EN" "http://www.w3.org/Graphics/SVG/1.1/DTD/svg11.dtd"><svg width="100%" height="100%" viewBox="0 0 500 338" version="1.1" xmlns="http://www.w3.org/2000/svg" xmlns:xlink="http://www.w3.org/1999/xlink" xml:space="preserve" style="fill-rule:evenodd;clip-rule:evenodd;stroke-linejoin:round;stroke-miterlimit:1.41421;"><rect id="adhockery" x="0" y="0.388" width="500" height="337.285" style="fill:none;"/><path d="M74.253,237.249c-0.019,-1.954 -0.035,-3.907 -0.035,-5.86c0,-4.121 0,-8.242 -0.086,-12.363c-0.086,-2.747 -0.086,-5.408 -0.172,-8.07c0,-2.404 -0.086,-4.722 -0.086,-7.04c0,-2.661 -0.858,-4.979 -2.49,-7.04c-0.257,-0.257 -0.601,-0.429 -0.858,-0.601c-0.773,-0.515 -0.859,-0.944 -0.343,-1.717c0.686,-1.116 1.373,-2.06 1.974,-3.176c0.773,-1.46 1.116,-2.919 1.116,-4.551c-0.086,-5.065 -0.086,-10.13 0,-15.195c0.172,-5.495 -0.086,-11.076 -0.171,-16.656c0,-2.49 0.171,-4.894 0.171,-7.383c-0.086,-2.662 -0.257,-5.323 -0.429,-7.985c-0.086,-0.601 -0.343,-1.202 -0.515,-1.803c-0.429,-1.287 -0.859,-2.575 -1.288,-3.863c-0.258,-0.687 -0.172,-1.116 0.429,-1.459c1.374,-0.773 2.147,-2.061 3.177,-3.177c0.429,-0.601 0.944,-1.202 1.459,-1.717c0.515,-0.601 1.031,-0.601 1.546,0c0.944,0.944 1.803,1.975 2.747,3.005c0.429,0.343 0.773,0.772 1.202,1.116c0.601,0.429 0.773,1.03 0.601,1.631c-1.116,3.263 -1.202,6.697 -1.889,10.045c-0.172,1.03 0,2.146 -0.086,3.262c-0.086,2.318 -0.257,4.636 -0.343,6.954c-0.086,0.859 0.086,1.803 0.086,2.662c-0.172,4.378 -0.43,8.843 -0.344,13.307c0,4.379 0.344,8.757 0.601,13.136c0.086,1.974 0.172,3.949 0.258,5.923c0.086,0.516 0.086,0.945 0.172,1.46c0.085,0.687 0.515,1.03 1.116,1.116c0.601,0.086 1.202,0.086 1.803,0.086c6.267,-0.172 12.448,-0.344 18.715,-0.515c1.031,0 2.061,0.086 3.091,0.086c0.773,0 1.546,0 2.147,-0.516c-0.172,-5.494 -0.258,-10.989 -0.43,-16.483c-0.171,-6.611 -0.601,-13.222 -0.601,-19.918c0,-3.263 0.086,-6.611 0,-9.873c-0.086,-3.091 -0.515,-6.268 -1.717,-9.187c-0.086,-0.257 -0.171,-0.515 -0.257,-0.772c-0.172,-0.601 -0.172,-1.202 0.343,-1.717c0.429,-0.515 0.773,-1.116 1.288,-1.631c1.03,-1.031 1.974,-1.975 2.661,-3.177c0.172,-0.258 0.43,-0.429 0.601,-0.601c0.344,-0.343 1.031,-0.172 1.202,0.258c0.859,2.06 2.232,3.777 3.864,5.237c0.429,0.429 0.429,0.772 0.343,1.287c-0.258,1.288 -0.515,2.662 -0.515,4.035c0.086,3.263 -0.086,6.611 0.257,9.874c0.086,1.201 0.086,2.489 0.086,3.691c-0.086,1.975 -0.171,3.949 -0.257,5.924c-0.086,2.232 -0.172,4.55 -0.172,6.782c-0.086,1.889 -0.086,3.692 -0.086,5.581c-0.086,2.661 -0.172,5.323 -0.086,7.984c0.172,3.177 0,6.267 -0.086,9.444c-0.085,2.576 0.945,4.636 2.748,6.353c0.086,0.172 0.257,0.258 0.429,0.429c1.202,1.031 1.116,1.288 -0.172,2.919c-1.631,1.288 -2.146,3.091 -2.232,5.066c-0.086,1.717 0,3.348 0.086,4.979c0.258,5.752 0.601,11.419 0.773,17.085c0.086,4.121 0,8.156 0,12.191c0,1.889 0.086,3.863 0.086,5.752c0,3.091 0,6.182 -0.172,9.272c-0.086,2.061 -0.172,4.121 0.086,6.182c0.086,0.858 0,1.803 -0.086,2.661c0,0.258 -0.086,0.515 -0.086,0.773c0,0.751 -0.016,1.502 -0.035,2.253l-0.016,0.644c-0.018,0.752 -0.035,1.503 -0.035,2.254c-0.086,2.576 -0.257,5.237 -0.172,7.813c0.086,4.035 0.172,8.156 0.945,12.105c0,0.172 0.086,0.429 0.086,0.601c0.086,0.773 1.03,1.374 0.601,2.06c-0.344,0.601 -1.202,0.859 -1.803,1.288c-1.031,0.773 -2.061,1.631 -2.748,2.747c-0.772,1.031 -1.717,1.117 -2.489,0.172c-0.226,-0.257 -0.439,-0.515 -0.649,-0.773l-0.419,-0.515c-0.211,-0.257 -0.424,-0.515 -0.649,-0.772c-0.773,-0.859 -1.632,-1.717 -2.49,-2.576c0.343,-1.116 0.687,-2.232 1.03,-3.434c0.687,-2.576 1.288,-5.151 1.202,-7.899c0,-0.944 0.258,-1.888 0.343,-2.833c0,-1.717 0,-3.52 0.086,-5.323c0.086,-2.146 0.258,-4.378 0.258,-6.524c-0.086,-3.005 0.086,-6.01 -0.086,-9.015c-0.172,-2.576 -0.429,-5.237 -0.601,-7.813c-0.086,-1.03 0.086,-2.06 0.086,-3.09c-0.086,-6.01 -0.258,-12.106 -0.343,-18.115c0,-2.404 -0.172,-4.808 -0.172,-7.212c0,-1.03 0.086,-2.146 0.172,-3.262c0,-0.515 0.085,-0.945 0.085,-1.46c0,-4.035 0,-8.07 0,-12.105c0,-0.343 0,-0.687 -0.085,-1.03c-0.086,-0.344 -0.258,-0.601 -0.687,-0.601l-4.121,0c-0.687,0 -1.374,-0.086 -2.061,-0.086c-0.343,0 -0.772,-0.172 -1.202,-0.086c-2.575,0.429 -5.237,0.086 -7.812,0.258c-1.202,0.085 -2.49,0 -3.692,0c-0.172,0 -0.429,0 -0.601,0c-1.975,0.343 -4.035,0.257 -6.095,0.429c-0.172,0.086 -0.344,0.172 -0.601,0.257c-0.172,0.945 -0.172,1.889 -0.086,2.834c0.429,3.691 0.171,7.383 0.257,11.075c0,2.575 0.172,5.065 0.172,7.641c0,1.287 -0.086,2.575 -0.086,3.863c0,1.202 0,2.49 0.086,3.692c0.086,0.686 0.429,1.459 0.515,2.146c0.086,0.601 -0.172,1.288 -0.172,1.975c0.086,0.944 0.258,1.802 0.344,2.661c0,0.064 0.012,0.141 0.027,0.22l0.031,0.161c0.016,0.079 0.028,0.156 0.028,0.22c0.085,2.576 0.171,5.065 0.257,7.641c0.086,3.005 0.086,6.01 0.172,9.014c0,0.601 0,1.202 -0.172,1.803c-0.257,0.773 -0.257,1.546 -0.086,2.404c0.086,0.344 0.172,0.687 0.086,1.03c-0.172,1.117 0,2.147 -0.086,3.263c0,1.116 0,2.146 0.086,3.262c0.086,0.601 0,1.202 -0.086,1.803c0,0.344 -0.086,0.773 -0.086,1.202c0.172,2.318 -0.085,4.636 0,6.954c0.086,1.546 0.258,3.177 0.43,4.722c0.075,0.714 0.183,1.427 0.295,2.141l0.096,0.612c0.112,0.713 0.22,1.427 0.296,2.141c0.085,1.03 0.257,2.06 0.772,3.005c0.344,0.515 0.172,1.03 -0.257,1.459c-0.172,0.172 -0.344,0.258 -0.515,0.429c-1.632,1.546 -3.349,3.005 -4.551,4.98c-0.429,0.601 -1.03,0.601 -1.545,0.086c-0.172,-0.172 -0.343,-0.344 -0.429,-0.515c-0.687,-0.945 -1.46,-1.975 -2.232,-2.919c-0.773,-0.945 -1.632,-1.632 -2.576,-2.576c1.46,-1.545 1.803,-3.434 2.06,-5.409c0.172,-2.146 0.43,-4.292 0.344,-6.525c-0.086,-0.944 0.172,-1.803 0.172,-2.661c0.085,-4.464 0.085,-8.929 -0.086,-13.393c-0.086,-1.717 0,-3.52 0,-5.323c0.086,-3.177 0.171,-6.267 0.171,-9.444c0,-1.953 -0.016,-3.906 -0.034,-5.859l-0.016,-1.674Zm241.812,52.778c-2.146,0 -4.207,0 -6.353,0.086c-0.773,0 -1.459,0.171 -2.232,0.257c-0.343,0.086 -0.687,0.086 -1.03,0c-0.43,-0.086 -0.687,-1.03 -0.344,-1.374c0.172,-0.171 0.344,-0.257 0.515,-0.343c1.031,-0.773 1.632,-1.803 1.975,-3.005c0.515,-2.06 0.944,-4.035 1.03,-6.095c0.086,-3.091 0.344,-6.182 0.43,-9.272c0.085,-2.061 -0.086,-4.121 -0.258,-6.182c0,-0.773 0,-1.459 0,-2.232c0.086,-3.778 0.172,-7.555 0.258,-11.333c0,-2.232 -0.086,-4.55 0,-6.782c0.257,-6.353 -0.086,-12.792 -0.172,-19.145c-0.086,-6.611 -0.258,-13.136 -0.429,-19.746c-0.086,-3.091 -1.116,-5.753 -3.005,-8.156c-0.344,-0.344 -0.601,-0.773 -0.773,-1.031c1.03,-1.888 1.975,-3.691 2.919,-5.494c0.515,-0.859 0.687,-1.717 0.687,-2.748c0,-6.954 0,-13.822 0,-20.776c-0.086,-3.777 -0.258,-7.555 -0.172,-11.333c0.086,-3.949 -0.172,-7.812 -0.257,-11.761c-0.086,-4.035 -1.202,-7.727 -2.748,-11.333c-0.086,-0.172 -0.171,-0.343 -0.257,-0.515c-0.258,-0.773 0.257,-1.46 1.03,-1.288c2.146,0.429 4.207,0.172 6.353,0.172c2.061,0 4.121,0 6.182,0.086c2.747,0.086 5.494,0.171 8.241,0.343c2.147,0.172 4.379,-0.172 6.525,-0.429c1.288,-0.172 2.662,-0.344 3.864,-0.773c1.287,-0.429 2.661,-0.687 3.691,-1.803c0.344,-0.429 0.945,-0.343 1.202,0.172c0.773,1.545 2.232,2.49 3.606,3.52c0.343,0.172 0.601,0.429 0.859,0.601c1.202,0.944 1.202,1.374 0,2.146c-1.632,1.03 -2.662,2.747 -3.864,4.207c-0.257,0.258 -0.343,0.687 -0.601,1.03c-0.343,0.515 -0.772,0.601 -1.288,0.429c-0.128,-0.064 -0.269,-0.128 -0.413,-0.193l-0.289,-0.128c-0.144,-0.065 -0.285,-0.129 -0.414,-0.194c-1.287,-0.601 -2.575,-1.202 -3.949,-1.717c-1.116,-0.429 -2.232,-0.687 -3.434,-0.601c-1.03,0 -1.975,-0.086 -2.919,-0.086c-2.747,-0.085 -5.495,0.172 -8.242,0.344c-1.545,0.086 -3.005,0.086 -4.55,0.086l-1.374,0c-0.429,1.373 -0.429,2.747 -0.429,4.121c0,3.176 0.172,6.267 0,9.444c-0.086,0.343 -0.086,0.772 0,1.201c0.601,3.091 0.343,6.182 0.429,9.273c0,0.858 0,1.631 0.086,2.489c0.086,1.46 0.172,2.833 0.258,4.293c0.171,2.404 0.257,4.808 0.343,7.212c0,2.403 0,4.722 0.086,7.04c0,0.772 0.086,1.459 0.172,2.232c0.086,0.687 0.086,1.459 0.086,2.232c0.085,1.545 0,3.176 0.085,4.722c0,0.772 0.258,0.944 1.031,0.944c1.888,-0.086 3.863,-0.172 5.752,-0.172c0.515,-0.085 1.116,-0.085 1.631,0c2.06,0.258 3.177,1.546 3.863,3.435c0.172,0.429 0,0.858 -0.343,1.116c-1.631,1.287 -3.177,2.404 -5.495,2.318c-1.888,-0.086 -3.863,0.343 -5.752,0.515c-0.772,0 -1.03,0.257 -1.03,1.03c-0.086,1.717 -0.086,3.348 -0.086,4.98c0,3.262 0.258,6.524 0.172,9.701c-0.086,2.575 0.086,5.237 0.172,7.813c0.171,5.322 0.343,10.731 0.429,16.054c0.086,1.889 -0.086,3.692 -0.172,5.58c-0.021,0.73 -0.043,1.465 -0.064,2.203l-0.129,4.438c-0.022,0.737 -0.043,1.473 -0.064,2.202c-0.086,2.404 -0.172,4.894 -0.172,7.384c-0.086,1.03 0,2.06 0,3.09c0,0.773 -0.086,1.46 -0.172,2.233c0,0.515 -0.086,1.116 -0.086,1.631c0.022,0.794 0.043,1.583 0.065,2.369l0.128,4.706c0.022,0.786 0.043,1.574 0.065,2.369c0,0.15 -0.033,0.3 -0.07,0.45l-0.032,0.129c-0.037,0.15 -0.07,0.301 -0.07,0.451c-0.172,1.116 -0.086,2.318 0.258,3.606c4.206,0.429 8.327,0.343 12.448,0.429c1.031,0 1.975,0.086 2.919,0.086c3.263,0.086 6.439,-0.344 9.53,-1.374c1.03,-0.343 2.06,-0.687 3.091,-1.03c0.944,-0.344 1.288,-0.172 1.803,0.773c1.03,1.717 2.06,3.434 3.777,4.55c0.344,0.257 0.429,0.687 0.429,1.116c-0.085,0.343 -0.257,0.687 -0.429,0.944c-1.288,1.889 -2.661,3.606 -4.378,5.151c-0.258,0.172 -0.515,0.344 -0.859,0.516c-1.631,-1.202 -3.52,-1.803 -5.494,-2.233c-0.945,-0.257 -1.889,-0.515 -2.834,-0.686c-1.631,-0.43 -3.348,-0.687 -5.065,-0.687l-15.883,0Zm-178.094,-113.581c0.019,-1.897 0.035,-3.791 0.035,-5.669c0,-3.434 -0.257,-6.868 -0.171,-10.302c0.085,-3.091 -0.086,-6.182 0.515,-9.272c0.086,-0.344 0.086,-0.773 0.086,-1.202c0.171,-2.233 0.429,-4.465 1.287,-6.611c1.116,-2.833 1.975,-5.752 3.692,-8.242c1.46,-2.146 3.348,-3.949 5.666,-5.237c2.233,-1.202 4.465,-1.975 6.954,-2.404c2.919,-0.429 5.838,-0.343 8.672,0.687c2.575,0.944 4.893,2.318 6.782,4.207c1.459,1.459 2.919,2.919 3.52,4.979c0.086,0.258 0.257,0.429 0.429,0.687c0.773,1.374 1.374,2.833 1.717,4.379c0.601,2.489 1.202,4.979 1.46,7.469c0.171,1.288 0.171,2.575 0.086,3.863c-0.086,2.061 -0.344,4.121 -0.344,6.182c-0.086,3.176 -0.257,6.353 0,9.443c0.258,3.864 0.172,7.641 0.601,11.505c0,0.601 0,1.202 0,1.803c0,1.717 -0.086,3.52 -0.086,5.322c0,1.288 0.258,2.919 0.945,3.95c0.601,0.858 0.429,0.944 0.944,1.717c0.773,1.03 0.773,1.03 -0.172,1.888c-0.772,0.859 -0.858,1.288 -1.202,2.576c-0.257,0.687 -0.429,1.803 -0.429,2.49c-0.086,5.752 -0.257,11.504 -0.257,17.256c-0.086,6.697 0,13.479 0,20.176c0,0.526 0.032,1.068 0.069,1.612l0.032,0.467c0.037,0.544 0.07,1.086 0.07,1.612c0.086,2.748 0.172,5.409 0.258,8.071c0.172,3.262 0.257,6.438 0.429,9.701c0.022,0.472 0.043,0.939 0.065,1.403l0.128,2.774c0.022,0.464 0.043,0.931 0.065,1.403c0.171,2.318 0,4.636 -0.43,6.954c-0.085,0.172 -0.171,0.43 -0.171,0.601c0.086,2.147 -0.601,4.035 -0.945,6.096c-0.429,3.005 -1.888,5.495 -3.949,7.727c-0.429,0.515 -0.944,1.03 -1.374,1.545c-1.287,1.717 -3.004,2.833 -4.979,3.52c-1.975,0.687 -3.863,1.374 -5.924,1.803c-1.374,0.343 -2.661,0.258 -4.035,0c-3.949,-0.859 -7.555,-2.576 -10.646,-5.151c-2.232,-1.889 -4.035,-4.207 -5.151,-7.04c-1.202,-3.177 -1.717,-6.439 -2.146,-9.787c-0.429,-3.005 -0.601,-6.096 -0.859,-9.187c-0.429,-5.408 -0.343,-10.731 -0.257,-16.054c0,-1.546 -0.086,-3.177 -0.086,-4.722l0,-3.52l0.086,0l-0.258,-18.544c0,-0.172 0,-0.43 0,-0.601c0.086,-5.409 -0.172,-10.818 -0.429,-16.226c-0.172,-2.748 -1.288,-5.152 -3.091,-7.212c-0.515,-0.601 -0.601,-0.687 -0.086,-1.374c0.065,-0.064 0.117,-0.129 0.166,-0.193l0.098,-0.129c0.049,-0.064 0.101,-0.128 0.166,-0.193c1.802,-2.232 2.661,-4.893 2.403,-7.812c-0.085,-0.687 0,-1.288 0,-1.889c0,-1.878 0.017,-3.773 0.035,-5.669l0.016,-1.626Zm119.508,2.916c0.019,1.803 0.045,3.606 0.12,5.409c0.086,0.172 0.086,0.429 0.172,0.773c0.258,-0.172 0.515,-0.344 0.601,-0.515c0.172,-0.344 0.344,-0.601 0.429,-0.945c1.889,-5.838 4.379,-11.504 6.783,-17.17c1.974,-4.722 4.121,-9.444 6.181,-14.166c0.859,-1.889 1.803,-3.692 2.662,-5.581c1.03,-2.146 1.974,-4.378 2.833,-6.61c0.601,-1.546 1.03,-3.263 1.373,-4.894c0.086,-0.687 -0.171,-1.374 -0.171,-2.06c0,-0.945 -0.773,-1.803 -0.43,-2.748c0.344,-1.03 1.632,-0.772 2.404,-1.287c1.202,-0.773 2.49,-1.374 3.778,-1.975c1.202,-0.515 1.545,-0.429 2.318,0.515c0.515,0.601 0.944,1.202 1.374,1.803c0.515,0.687 0.858,1.545 1.631,2.06c0.257,0.172 0.343,0.516 0.601,0.945c-0.687,0.601 -1.202,1.202 -1.889,1.631c-1.116,0.687 -1.889,1.631 -2.404,2.747c-1.374,2.662 -2.661,5.409 -3.863,8.156c-1.632,3.778 -3.091,7.641 -4.636,11.419c-0.344,0.944 -0.687,1.974 -1.031,2.919c-0.515,1.459 -1.03,2.919 -1.717,4.378c-0.343,0.687 -0.515,1.374 -0.429,2.147c0.086,1.287 0.172,2.575 0.429,3.863c0.43,2.146 0.43,4.379 0.773,6.525c0.515,3.434 1.03,6.782 1.288,10.216c0.257,2.662 1.202,4.722 3.09,6.525c0.113,0.15 0.209,0.301 0.304,0.451l0.08,0.129c0.094,0.15 0.191,0.3 0.303,0.45c0.773,0.859 0.859,1.632 0.172,2.748c-1.116,1.717 -1.374,3.863 -1.889,5.838c-0.086,0.343 -0.086,0.687 0,1.03c0.515,3.606 0.515,7.297 1.116,10.989c0.29,1.69 0.444,3.381 0.584,5.071l0.093,1.127c0.078,0.939 0.16,1.878 0.268,2.817c0.171,2.06 0.601,4.035 0.858,6.095c0.086,0.687 0.172,1.374 0.258,2.061c0.343,3.262 0.515,6.524 1.116,9.787c0.515,2.318 0.687,4.722 1.03,7.126c0.429,3.005 0.945,5.924 1.46,8.928c0.515,2.748 0.944,5.581 1.373,8.328c0.344,2.49 0.601,5.065 0.859,7.555c0.064,0.548 0.129,1.083 0.193,1.615l0.129,1.063c0.064,0.532 0.129,1.068 0.193,1.615c0.257,1.889 0.858,3.692 1.631,5.494c0.344,0.687 0.773,1.374 1.202,1.632c0.515,0.343 0.944,0.772 1.545,1.202c-0.343,0.429 -0.515,0.772 -0.858,0.944c-1.631,0.944 -2.747,2.404 -3.52,4.121c-0.172,0.343 -0.343,0.687 -0.601,1.03c-0.429,0.515 -1.374,0.515 -1.889,0.086c-0.601,-0.515 -1.202,-1.03 -1.803,-1.631c-0.944,-0.945 -1.974,-1.717 -3.262,-2.061c-0.172,0 -0.258,-0.257 -0.429,-0.343c0,-0.172 -0.086,-0.344 0,-0.429c1.373,-1.546 1.717,-3.349 1.545,-5.323c-0.429,-4.465 -0.944,-9.015 -1.46,-13.479c-0.429,-3.606 -1.116,-7.126 -1.802,-10.732c-0.258,-1.631 -0.258,-3.262 -0.43,-4.893c-0.086,-1.288 -0.257,-2.49 -0.429,-3.692c-0.343,-2.404 -0.601,-4.808 -1.03,-7.126c-0.687,-3.434 -0.601,-7.04 -1.288,-10.56c-0.601,-2.747 -0.859,-5.494 -1.03,-8.328c-0.258,-2.919 -0.687,-5.838 -1.116,-8.757c-0.344,-2.232 -0.773,-4.55 -1.031,-6.868c-0.257,-2.232 -0.686,-4.55 -1.03,-6.868c-0.687,-4.808 -1.288,-9.701 -1.803,-14.509c-0.257,-2.404 -0.772,-4.808 -1.202,-7.469c-0.858,0.687 -1.116,1.373 -1.373,2.146c-0.376,1.014 -0.735,2.028 -1.092,3.042l-0.306,0.87c-0.357,1.014 -0.716,2.028 -1.092,3.042c-0.343,0.859 -0.859,1.717 -1.202,2.576c-1.202,2.747 -2.232,5.494 -3.434,8.156c-0.601,1.459 -1.288,2.833 -1.975,4.292c-0.601,1.288 -0.687,2.662 -0.687,4.035c0,2.748 0,5.495 0,8.242c0,1.202 0.172,2.318 0.172,3.52c0.086,5.151 0.086,10.388 0.172,15.626c0,0.686 0,1.287 0.086,1.888c0.429,3.864 0.257,7.641 0.257,11.505c0.086,5.752 -0.171,11.504 0.086,17.256c0.086,1.374 0,2.833 -0.172,4.293c-0.343,3.262 -0.343,6.524 -0.171,9.701c0.059,1.24 0.361,2.479 0.684,3.719l0.177,0.676c0.088,0.338 0.174,0.676 0.255,1.014c0.172,0.515 0.601,0.858 0.944,1.288c-0.171,0.686 -0.515,1.202 -1.116,1.459c-1.631,0.773 -2.661,2.146 -3.434,3.692c-0.859,1.803 -1.975,1.889 -3.262,0.429c-0.601,-0.687 -1.202,-1.288 -1.889,-1.889c-0.429,-0.429 -1.03,-0.687 -1.546,-0.944c-0.515,-0.344 -0.772,-0.859 -0.6,-1.374c0.171,-0.257 0.429,-0.515 0.515,-0.858c0.515,-1.374 1.202,-2.748 1.287,-4.293c0,-1.116 0.601,-2.232 0.773,-3.348c0.344,-2.318 0.687,-4.636 0.687,-6.954c0.172,-5.495 0.086,-10.989 0.086,-16.484c0,-3.606 0.086,-7.298 0.086,-10.903c0.085,-0.859 0.257,-1.632 0.257,-2.49c0,-0.601 -0.016,-1.202 -0.035,-1.803l-0.016,-0.515c-0.018,-0.601 -0.035,-1.202 -0.035,-1.803c0,-3.778 0,-7.555 -0.171,-11.333c-0.172,-5.323 0,-10.731 -0.086,-16.054c0,-2.576 0,-5.237 0,-7.813c0,-1.803 -0.773,-3.176 -1.717,-4.55c-0.344,-0.687 -0.945,-1.202 -1.374,-1.803c-0.515,-0.773 -0.429,-1.202 0.086,-2.06c0.773,-1.202 1.545,-2.404 2.232,-3.692c0.429,-0.773 0.601,-1.803 0.601,-2.747c-0.086,-1.546 -0.086,-3.005 -0.086,-4.551c0,-6.353 0,-12.62 0,-18.973c0,-2.919 0,-5.924 -0.343,-8.843c-0.258,-2.575 -0.258,-5.065 -0.344,-7.641c-0.037,-1.239 -0.058,-2.462 -0.077,-3.683l-0.017,-1.047c-0.019,-1.221 -0.04,-2.444 -0.077,-3.683c0,-2.061 -0.344,-3.95 -1.717,-5.581c-0.086,-0.086 -0.172,-0.257 -0.258,-0.343c-0.257,-0.429 -0.086,-1.03 0.429,-1.202c1.46,-0.429 2.404,-1.546 3.434,-2.49c0.687,-0.601 1.202,-1.288 1.889,-1.889c0.773,-0.772 1.546,-0.601 2.147,0.43c0.343,0.429 0.515,1.03 0.772,1.459c0.687,1.03 1.288,2.061 2.318,2.833c0.515,0.515 0.515,0.859 0.172,1.46c-1.202,1.974 -1.717,4.035 -1.717,6.267c0,1.24 -0.017,2.463 -0.035,3.684l-0.016,1.046c-0.019,1.221 -0.035,2.444 -0.035,3.684c0,4.979 0,10.044 0,15.024c0,2.661 -0.086,5.323 0.086,7.984c0.075,1.803 0.101,3.606 0.12,5.409l0.017,1.545Zm163.212,0.151c-0.169,-0.451 -0.336,-0.902 -0.486,-1.353c-0.859,-2.489 -1.717,-5.065 -2.662,-7.555c-0.429,-1.288 -1.03,-2.489 -1.545,-3.777c-1.374,-3.52 -2.747,-7.04 -4.035,-10.56c-0.687,-1.803 -1.202,-3.778 -1.975,-5.581c-1.373,-3.262 -2.833,-6.524 -4.206,-9.787c-0.344,-0.858 -0.773,-1.545 -1.46,-2.232c-1.202,-1.202 -2.318,-2.404 -3.52,-3.692c-0.601,-0.601 -0.515,-1.116 0.258,-1.631c1.459,-0.858 2.489,-2.06 3.09,-3.692c0.086,-0.343 0.258,-0.686 0.43,-0.944c0.429,-0.687 0.858,-0.773 1.545,-0.343c0.859,0.515 1.717,1.202 2.49,1.803c0.772,0.601 1.631,1.201 2.747,1.116c0.515,0 0.859,0.515 0.687,1.03c-0.429,1.545 0,2.919 0.429,4.378c0.429,1.717 1.288,3.263 1.631,5.066c0.172,1.202 0.773,2.318 1.288,3.434c1.46,3.434 2.576,6.954 3.864,10.388c0.343,0.859 0.686,1.631 1.03,2.49c0.429,1.202 0.944,2.404 1.288,3.691c0.858,3.263 1.888,6.439 3.176,9.53c1.116,2.49 1.975,5.065 2.747,7.727c0.258,1.03 0.773,1.974 1.374,2.919c0.172,-0.258 0.429,-0.429 0.515,-0.601c0.601,-1.631 1.288,-3.177 1.803,-4.808c0.343,-1.03 0.601,-2.232 0.859,-3.348c0.601,-2.404 1.202,-4.808 1.803,-7.212c0.343,-1.459 0.858,-2.833 1.287,-4.292c0.43,-1.288 0.859,-2.576 1.288,-3.864c0.515,-1.631 0.944,-3.348 1.374,-4.979c1.03,-3.778 2.146,-7.469 3.262,-11.247c0.515,-1.717 0.945,-3.434 0.601,-5.237c0,-0.515 -0.172,-0.944 -0.343,-1.374c-0.258,-0.858 -0.086,-1.287 0.515,-1.803c0.172,-0.171 0.343,-0.257 0.515,-0.343c1.631,-0.859 2.919,-2.06 3.863,-3.606c0.172,-0.172 0.258,-0.343 0.43,-0.515c0.772,-0.773 1.373,-0.773 1.974,0.172c0.515,0.687 0.945,1.459 1.46,2.232c0.858,1.202 1.631,2.404 2.06,3.692c-0.086,0.171 -0.257,0.601 -0.515,0.858c-0.944,1.116 -1.288,2.49 -1.545,3.864c0,0 -0.687,2.747 -0.859,3.09c-0.515,1.546 -1.03,3.091 -1.545,4.636c-1.116,3.606 -2.146,7.212 -3.263,10.818c-0.171,0.601 -0.343,1.202 -0.429,1.803c-0.858,4.206 -2.232,8.327 -3.434,12.448c-0.858,3.263 -1.717,6.439 -2.661,9.702c-0.258,1.03 -0.601,2.06 -1.031,3.09c-0.601,1.46 -0.944,3.005 -1.116,4.551c-0.171,1.373 0.258,2.661 0.859,3.949c0.772,1.631 0.858,1.717 -0.344,3.176c-1.717,2.147 -2.403,4.722 -3.09,7.298c-0.172,0.515 -0.086,1.116 -0.086,1.631c0.172,6.611 0.429,13.307 0.515,19.918c0,4.378 -0.086,8.757 -0.172,13.135c0,1.546 0,3.005 0,4.551c0,0.687 0.086,1.287 0,1.888c-0.343,1.632 -0.171,3.263 -0.086,4.894c0,0.714 -0.016,1.427 -0.035,2.141l-0.016,0.612c-0.018,0.713 -0.034,1.427 -0.034,2.141c0,1.803 0,3.52 0,5.323c0,0.601 -0.086,1.202 -0.086,1.802c0,0.344 -0.086,0.687 -0.086,1.031c0.172,2.318 0.086,4.636 -0.086,6.954c-0.172,2.06 0,4.207 0,6.353c0,2.06 0,4.121 0.086,6.181c0,1.288 0.601,2.49 1.288,3.606c0.171,0.258 0.429,0.515 0.686,0.859c-0.257,0.257 -0.515,0.601 -0.772,0.687c-1.288,0.343 -1.975,1.201 -2.576,2.232c-0.257,0.515 -0.601,1.03 -0.944,1.545c-0.086,0.258 -0.258,0.515 -0.429,0.687c-0.516,0.601 -1.288,0.515 -1.718,-0.086c-0.429,-0.601 -0.772,-1.288 -1.287,-1.803c-0.859,-0.944 -1.803,-1.803 -2.833,-2.747c0.171,-0.515 0.257,-1.202 0.601,-1.803c1.373,-2.662 1.545,-5.409 1.545,-8.242c0.086,-4.979 0,-10.045 0,-15.024c0,-1.03 0,-1.975 0.086,-2.919c0.086,-1.546 0,-3.177 0,-4.722c-0.038,-2.028 -0.043,-4.04 -0.043,-6.05l0,-1.723c-0.001,-2.009 -0.006,-4.021 -0.043,-6.049c-0.086,-4.551 -0.172,-9.015 -0.258,-13.565c0,-1.374 -0.086,-2.833 0,-4.293c0.344,-4.55 0.344,-9.014 0,-13.565c-0.171,-2.232 -0.257,-4.464 -0.171,-6.61c0.085,-2.404 -0.945,-4.207 -2.49,-5.838c-0.515,-0.515 -1.116,-1.031 -1.631,-1.546c-0.773,-0.686 -0.773,-0.858 -0.258,-1.717c0.344,-0.515 0.601,-0.944 0.944,-1.373c1.031,-1.546 1.374,-3.091 0.687,-4.894c-0.772,-2.146 -1.459,-4.293 -2.146,-6.439c-0.15,-0.451 -0.317,-0.901 -0.486,-1.352l-0.144,-0.386Zm-56.288,111.726c-0.093,0.226 -0.185,0.451 -0.26,0.676c-0.172,0.43 -0.515,0.687 -0.944,0.687c-0.344,0.086 -0.687,0.086 -0.859,-0.343c-0.859,-2.318 -2.833,-3.606 -4.722,-4.98c-0.429,-0.343 -0.601,-0.686 -0.257,-1.03c1.201,-1.288 1.287,-2.919 1.459,-4.55c0.515,-4.207 0.429,-8.328 0.172,-12.535c-0.172,-2.318 0,-4.636 0,-6.954c0,-2.232 0.086,-4.378 0.171,-6.61c0.086,-2.748 0.172,-5.495 0.258,-8.242c0,-1.889 0,-3.692 -0.086,-5.581c-0.172,-3.863 -0.257,-7.812 -0.429,-11.676c-0.172,-5.58 0.257,-11.075 0.172,-16.655c0,-4.121 0.085,-8.156 0.085,-12.191c0.086,-1.803 -0.686,-3.263 -1.974,-4.55c-0.344,-0.344 -0.601,-0.687 -0.945,-1.031c0.601,-0.772 1.202,-1.459 1.718,-2.146c0.944,-1.288 1.631,-2.661 1.459,-4.378c-0.086,-0.687 -0.086,-1.288 0,-1.889c0.515,-5.495 0.515,-11.075 0.515,-16.656c0,-4.464 -0.257,-8.928 -0.343,-13.393c-0.086,-4.121 -0.086,-8.328 -0.258,-12.534c-0.086,-3.778 -0.773,-7.47 -2.232,-10.989c-0.258,-0.687 -0.687,-1.288 -1.03,-1.975c-0.344,-0.515 -0.172,-1.03 0.515,-1.202c0.515,-0.086 0.944,-0.172 1.459,-0.172c4.465,0.086 8.843,0.086 13.222,0.172c0.944,0 1.888,0.172 2.833,0.429c2.747,0.687 5.58,1.288 7.898,3.177c2.662,2.146 5.667,4.035 7.985,6.696c2.232,2.662 4.464,5.409 5.924,8.586c0.944,2.232 1.802,4.55 1.802,7.125c0,1.632 0.258,3.349 0.516,5.066c0.343,2.747 0.343,5.494 -0.43,8.156c-0.429,1.373 -0.515,2.833 -0.858,4.207c-0.601,2.661 -1.889,4.979 -3.263,7.297c-1.717,2.919 -3.691,5.666 -6.009,8.07c-0.601,0.687 -0.773,1.374 -0.687,2.232c0.257,2.318 0.601,4.636 0.858,6.954c0.258,1.632 0.515,3.349 0.687,5.066c0.172,1.459 0.344,2.833 0.429,4.292c0.344,4.121 0.945,8.156 1.374,12.277c0.343,2.49 0.601,4.98 0.859,7.384c0.257,2.404 0.601,4.722 0.944,7.126c0.086,0.515 0.172,0.944 0.172,1.459c0,2.576 0.429,5.065 0.858,7.555c0.773,3.778 1.202,7.641 1.717,11.419c0.172,1.287 0.43,2.489 0.601,3.691c0,0.075 0.017,0.134 0.035,0.191l0.016,0.048c0.019,0.057 0.035,0.115 0.035,0.19c0,2.319 0.515,4.551 0.859,6.869c0.601,3.777 1.116,7.641 1.631,11.418c0.172,1.288 0.343,2.576 0.515,3.864c0.258,1.459 0.773,2.833 1.545,4.035c0.344,0.515 0.687,1.03 1.374,1.116c0.429,0.086 0.429,0.687 0.515,0.772c-0.257,0.258 -0.515,0.516 -0.773,0.687c-1.202,0.601 -1.974,1.631 -2.575,2.833c-0.258,0.43 -0.515,0.859 -0.773,1.202c-0.515,0.601 -1.116,0.687 -1.803,0.172c-0.171,-0.172 -0.429,-0.429 -0.601,-0.601c-1.631,-1.545 -3.348,-3.005 -5.408,-4.035c-0.601,-0.343 -0.773,-0.859 -0.344,-1.374c0.601,-0.772 0.687,-1.631 0.859,-2.489c0.601,-3.864 0.257,-7.813 -0.086,-11.676c-0.344,-3.091 -0.687,-6.096 -1.116,-9.187c-0.344,-2.747 -0.859,-5.494 -1.288,-8.156c-0.344,-2.06 -0.687,-4.035 -1.03,-6.095c-0.065,-0.419 -0.129,-0.825 -0.194,-1.229l-0.128,-0.805c-0.065,-0.404 -0.129,-0.81 -0.193,-1.229c-0.172,-0.601 -0.344,-1.202 -0.344,-1.803c-0.172,-3.949 -1.116,-7.898 -1.459,-11.847c-0.344,-3.778 -1.031,-7.641 -1.46,-11.419c-0.515,-4.55 -0.944,-9.186 -1.374,-13.736c-0.343,-3.177 -0.772,-6.353 -1.459,-9.53c-0.075,-0.225 -0.167,-0.418 -0.26,-0.606l-0.081,-0.161c-0.093,-0.189 -0.185,-0.381 -0.26,-0.607c-0.343,0.086 -0.601,0.172 -0.859,0.258c-2.232,1.288 -4.721,1.631 -7.211,2.232c-1.46,0.344 -3.005,0.515 -4.55,0.859c-0.086,0.429 -0.172,0.944 -0.172,1.373c0,1.353 -0.017,2.705 -0.035,4.057l-0.016,1.159c-0.018,1.352 -0.035,2.704 -0.035,4.057c0,0.515 0,0.944 0.086,1.459c0.011,0.123 0.022,0.247 0.033,0.37l0.068,0.741c0.146,1.604 0.264,3.208 -0.015,4.813c-0.086,0.343 0,0.601 0,0.858c0.171,3.95 0.343,7.985 0.429,11.934c0.086,2.49 0.086,4.894 0.086,7.383c-0.086,2.061 -0.258,4.121 -0.258,6.182c0.086,4.55 -0.257,9.186 -0.086,13.736c0,0.344 0,0.773 -0.085,1.202c-0.344,2.232 0,4.379 0,6.611c0,1.974 0.085,3.863 0.085,5.752c0,2.404 -0.257,4.808 -0.343,7.212c-0.172,2.232 0.258,4.378 0.687,6.524c0.086,0.43 0.343,0.859 0.601,1.288c0.257,0.344 0.429,0.687 0.687,1.116c-0.344,0.172 -0.515,0.344 -0.773,0.43c-1.717,0.429 -2.833,1.545 -3.434,3.176c-0.075,0.225 -0.167,0.451 -0.26,0.676l-0.081,0.193Zm-154.889,-69.916c-0.018,0.751 -0.03,1.502 0.008,2.254c0.172,3.09 -0.172,6.181 0,9.272c0.086,1.888 0.343,3.777 -0.086,5.666c0.258,2.833 -0.172,5.752 0.172,8.585c0.086,0.687 -0.172,1.46 -0.172,2.232c0,2.49 0.086,4.894 0,7.384c-0.086,2.489 0.172,4.893 0.172,7.383c0,2.747 0.601,5.409 1.717,7.984c1.116,2.576 2.404,5.152 4.207,7.298c0.6,0.687 1.201,1.459 1.974,2.06c0.601,0.516 1.288,0.945 1.975,1.116c2.06,0.516 4.207,0.859 6.353,0.516c3.52,-0.516 6.353,-2.147 7.641,-5.753c0,-0.171 0.086,-0.429 0.171,-0.601c0.172,-0.6 0.687,-0.772 1.288,-0.772c0.172,0 0.43,0 0.601,0.086c2.147,0.601 4.293,0.772 6.525,1.202c0.172,0 0.343,0.171 0.687,0.257c-0.172,0.429 -0.258,0.773 -0.429,1.116c-0.773,1.546 -1.202,3.177 -1.288,4.894c-0.086,1.974 -0.429,2.318 -2.404,2.575c-1.46,0.172 -2.661,0.773 -3.778,1.546c-1.202,0.858 -2.489,1.459 -3.863,1.974c-0.944,0.43 -1.803,0.773 -2.661,1.202c-1.031,0.515 -2.233,0.687 -3.349,0.687c-2.146,-0.086 -4.206,-0.515 -6.267,-1.116c-3.52,-1.03 -6.095,-3.091 -8.499,-5.58c-2.576,-2.662 -4.551,-5.581 -5.753,-9.101c-0.6,-1.889 -1.03,-3.691 -1.459,-5.58c-1.545,-7.04 -1.374,-14.08 -1.288,-21.12c0,-2.576 0.086,-5.065 0.086,-7.641c0,-1.03 0,-2.146 0,-3.262c-0.086,-2.404 -0.086,-4.808 -0.172,-7.212c0,-1.631 0.086,-3.262 0.258,-4.894c0.172,-1.717 0.086,-3.52 0.086,-5.322c0,-3.606 -0.086,-7.298 -0.172,-10.904c0,-2.232 0,-4.464 0.086,-6.61c0.086,-1.632 -0.515,-3.091 -1.545,-4.293c-0.687,-0.773 -1.202,-1.803 -2.233,-2.318c-0.429,-0.172 -0.429,-0.601 -0.085,-1.03c0.772,-1.031 1.545,-2.061 2.318,-3.091c1.03,-1.288 1.287,-2.833 1.116,-4.464c-0.344,-2.318 -0.258,-4.636 -0.258,-6.955c0,-2.833 -0.257,-5.58 -0.343,-8.413c-0.086,-2.404 -0.172,-4.894 -0.086,-7.383c0.086,-3.864 0.257,-7.641 0.429,-11.505c0.172,-2.575 0.343,-5.151 0.515,-7.641c0.086,-1.803 0.859,-3.348 1.717,-4.807c0.945,-1.632 1.975,-3.177 3.263,-4.465c2.146,-2.232 4.378,-4.378 7.383,-5.494c2.919,-1.116 5.838,-1.975 8.929,-2.061c2.146,-0.086 4.207,0.344 6.181,1.202c1.717,0.687 3.52,1.46 5.237,2.318c1.46,0.687 3.005,1.288 4.636,1.46c0.172,0 0.258,0.085 0.429,0.085c0.516,0.172 0.687,0.516 0.601,1.117c-0.343,2.06 -0.429,4.206 0.172,6.267c0.258,0.858 -0.257,1.202 -1.03,1.373c-0.258,0 -0.515,0 -0.773,-0.085c-1.288,-0.258 -2.575,0.085 -3.863,0.257c-0.344,0.086 -0.687,0.172 -1.03,0.258c-0.687,0.171 -1.202,0 -1.546,-0.687c-0.343,-0.601 -0.601,-1.116 -0.944,-1.631c-0.687,-1.202 -1.717,-2.061 -3.005,-2.662c-4.121,-1.974 -8.07,-1.545 -12.019,0.515c-1.288,0.687 -2.576,1.46 -3.692,2.49c-1.202,1.03 -1.803,2.404 -2.146,3.864c-0.113,0.525 -0.193,1.068 -0.269,1.612l-0.064,0.467c-0.076,0.544 -0.156,1.086 -0.268,1.612c-0.773,3.263 -0.601,6.525 -0.687,9.787c0,3.005 -0.086,6.01 0,9.015c0.086,3.778 0.257,7.555 0.343,11.333c0.086,2.833 0.172,5.752 0.086,8.585c0,1.974 0.515,3.606 1.545,5.237c0.43,0.687 0.859,1.288 1.288,1.889c0.258,0.343 0.258,0.772 -0.086,1.116c-0.944,0.944 -1.631,1.974 -2.232,3.176c-0.343,0.687 -0.515,1.288 -0.515,1.975c0.086,1.717 0.086,3.52 0.086,5.323c0,3.949 0.086,7.984 0.086,11.933c0.037,0.752 0.026,1.503 0.008,2.254l-0.016,0.644Zm-38.213,-53.32c-0.037,-1.165 -0.07,-2.329 -0.07,-3.493c0,-0.945 0.086,-1.889 0,-2.833c-0.085,-0.773 -0.085,-1.546 0,-2.404c0,-0.344 0,-0.687 0,-1.031c-0.257,-2.318 -0.085,-4.636 -0.085,-6.954c0,-2.661 -0.516,-5.151 -1.632,-7.555c-0.343,-0.601 -0.686,-1.287 -1.03,-1.974c-2.06,-4.035 -5.151,-6.439 -9.787,-7.126c-2.919,-0.429 -5.237,0.601 -7.126,2.404c-2.747,2.661 -4.636,5.924 -5.151,9.787c-0.075,0.451 -0.167,0.885 -0.26,1.317l-0.081,0.371c-0.093,0.432 -0.185,0.866 -0.26,1.317c-0.343,1.974 -0.687,3.949 -0.773,5.924c-0.171,2.575 -0.086,5.151 -0.086,7.726c0,1.46 0,3.005 0,4.465c0,2.661 -0.171,5.323 -0.171,7.984c0,3.263 0,6.439 0,9.702c0,1.201 0.086,2.318 0,3.52c-0.086,1.545 0.515,2.833 1.459,3.949c0.429,0.515 1.03,0.944 1.546,1.373c0.944,0.773 1.03,0.945 0.171,1.889c-0.429,0.429 -0.858,0.859 -1.202,1.374c-1.545,2.146 -2.06,4.636 -2.06,7.211c0,1.503 0.016,3.005 0.035,4.508l0.016,1.288c0.018,1.502 0.035,3.004 0.035,4.507c0,5.237 0.086,10.388 0.086,15.625c0,3.091 -0.086,6.181 0,9.272c0.085,2.662 0.343,5.323 0,7.984c-0.086,0.516 0,1.031 0.085,1.46c0.344,1.803 0.43,3.52 0.172,5.323c-0.086,0.515 0,0.944 0,1.459c0.086,1.717 0.258,3.434 0.344,5.152c0.171,1.974 0.085,3.949 0.429,5.923c0.343,1.975 0.171,4.035 1.03,5.838c0,2.061 1.116,3.778 1.889,5.581c0.601,1.288 1.373,2.661 2.575,3.606c0.344,0.257 0.687,0.601 1.031,0.944c1.459,1.46 3.262,2.49 5.151,3.262c0.601,0.258 1.288,0.43 1.974,0.344c2.404,-0.172 4.722,-0.859 6.697,-2.232c2.06,-1.374 3.434,-3.52 4.378,-5.838c0.945,-2.318 1.374,-4.722 1.546,-7.212c0.343,-3.52 0.429,-7.126 0.257,-10.646c0,-3.262 -0.086,-6.61 -0.171,-9.873c-0.038,-1.39 -0.059,-2.796 -0.078,-4.204l-0.016,-1.207c-0.019,-1.408 -0.041,-2.815 -0.078,-4.204c0,-0.344 -0.086,-0.601 -0.086,-0.859c-0.172,-0.858 -0.257,-1.803 -0.343,-2.661c-0.344,-2.833 -0.086,-5.667 -0.687,-8.414c0,-0.257 0,-0.515 0.086,-0.773c0.429,-1.888 0.171,-3.863 0,-5.752c0,-0.687 0,-1.373 0,-2.06c0.086,-1.546 0.257,-3.177 0.086,-4.722c-0.172,-1.803 -0.086,-3.52 -0.172,-5.323c0,-0.526 -0.017,-1.035 -0.035,-1.543l-0.016,-0.434c-0.019,-0.508 -0.035,-1.017 -0.035,-1.543c0,-2.318 0.086,-4.378 0,-6.696c0,-1.288 -0.258,-2.233 -0.773,-3.263c-0.515,-1.03 -2.661,-2.575 -2.661,-3.005c0,-0.171 0.086,-0.257 0.172,-0.343c2.403,-2.747 3.949,-7.212 3.777,-11.504c-0.086,-1.288 -0.257,-2.662 0.172,-4.036c0.086,-0.257 0,-0.601 0,-0.858c-0.258,-1.803 -0.172,-3.52 -0.172,-5.323c0,-1.164 -0.033,-2.329 -0.07,-3.493l-0.032,-0.998Zm211.043,17.026c-0.344,0.429 -0.859,0.601 -1.288,1.03c-2.49,2.146 -5.409,3.606 -8.414,4.979c-1.717,0.773 -3.52,1.288 -5.58,1.288c0,-1.116 -0.086,-2.232 -0.086,-3.262c0,-2.576 -0.086,-5.066 -0.086,-7.641c-0.086,-2.318 -0.171,-4.636 -0.171,-6.954c-0.086,-3.349 -0.086,-6.697 -0.086,-10.045c0,-1.717 0.171,-3.434 0,-5.151c-0.086,-0.945 0.086,-1.889 0.086,-2.833c0.085,-1.202 0.171,-2.49 0.171,-3.692c-0.086,-2.146 -0.086,-4.207 0.086,-6.353c0.086,-0.515 0,-1.116 0,-1.631c0,-2.318 0,-4.637 0.343,-7.126c1.889,0 3.435,0.343 5.066,0.772c1.288,0.344 2.575,0.859 3.863,1.288c0.773,0.344 1.46,0.773 2.147,1.202c1.287,0.859 2.661,1.631 3.863,2.747c2.318,2.147 4.55,4.293 5.924,7.212c1.116,2.232 1.974,4.55 2.489,6.954c0.086,0.429 0.258,0.945 0.258,1.374c0.086,2.49 0.429,4.893 0.086,7.383c-0.344,2.833 -0.859,5.666 -1.889,8.414c-0.429,1.202 -1.202,2.318 -1.803,3.434c-1.288,2.404 -3.09,4.55 -4.979,6.611Zm-135.562,-146.036c3.348,0.086 6.697,0.086 10.045,0.171c2.747,0.086 5.494,0.086 8.242,0.172c1.03,0.086 2.06,0.172 3.09,0.258c4.379,0.343 8.757,0.687 13.05,1.459c3.606,0.601 7.212,1.116 10.732,1.889c2.919,0.601 5.923,1.03 8.842,1.717c4.722,1.116 9.444,2.06 14.08,3.692c2.833,1.03 5.667,1.631 8.5,2.489c0.601,0.172 1.288,0.43 1.889,0.687c1.545,0.601 3.09,1.116 4.636,1.631c3.863,1.288 7.641,2.662 11.332,4.379c4.379,2.06 8.843,4.035 12.706,7.04c1.117,0.858 2.404,1.545 3.606,2.318c3.864,2.661 7.384,5.495 10.818,8.585c0.944,0.859 1.888,1.631 2.747,2.49c0.515,0.515 0.429,1.374 -0.258,1.717c-0.343,0.258 -0.686,0.343 -1.116,0.429c-3.262,0.43 -6.524,1.031 -9.787,1.202c-3.949,0.258 -7.727,1.202 -11.504,2.232c-1.202,0.258 -2.318,0.859 -3.434,1.288c-0.258,0.086 -0.43,0.344 -0.687,0.601c1.545,2.061 2.661,4.379 3.606,6.697c1.545,3.777 3.52,7.383 4.464,11.418c0.773,1.803 0.687,3.778 0.773,5.666c0.086,0.773 -0.172,1.374 -0.773,1.803c-0.515,0.344 -0.944,0.515 -1.545,0.172c-0.344,-0.258 -0.773,-0.429 -1.116,-0.601c-0.43,-0.257 -0.859,-0.515 -1.288,-0.687c-3.606,-1.116 -7.04,-2.661 -10.56,-3.949c-3.606,-1.374 -7.298,-2.318 -10.989,-3.434c-2.919,-0.859 -5.838,-1.374 -8.843,-1.889c-2.061,-0.343 -4.035,-0.944 -6.01,-1.459c-1.39,-0.338 -2.779,-0.693 -4.169,-1.049l-1.191,-0.306c-1.39,-0.357 -2.78,-0.711 -4.169,-1.049c-2.49,-0.515 -4.98,-0.945 -7.47,-1.46c-4.55,-0.858 -9.186,-1.116 -13.65,-2.06c-0.945,-0.258 -1.889,-0.172 -2.833,-0.344c-1.889,-0.429 -3.778,-0.343 -5.667,-0.686c-0.944,-0.178 -1.889,-0.233 -2.833,-0.278l-0.515,-0.024c-0.258,-0.013 -0.515,-0.026 -0.773,-0.042c-0.772,0 -1.631,-0.086 -2.404,-0.257c-2.318,-0.516 -4.636,-0.687 -6.954,-0.859c-2.146,-0.172 -4.292,0 -6.524,-0.343c-1.718,-0.344 -3.52,-0.258 -5.323,-0.172c-2.49,0.172 -5.066,-0.172 -7.555,0.343c-2.834,-0.515 -5.581,0.515 -8.414,0.344c-1.803,-0.086 -3.52,0.429 -5.323,0.601c-0.343,0 -0.773,0.086 -1.202,0.086c-2.661,-0.086 -5.323,0.257 -7.984,0.686c-4.894,0.687 -9.787,1.374 -14.681,2.061c0,0 -0.086,0 -0.172,0c-1.652,0.338 -3.289,0.692 -4.923,1.049l-1.4,0.306c-1.635,0.356 -3.271,0.711 -4.923,1.049c-1.889,0.343 -3.778,0.772 -5.581,1.373c-4.55,1.546 -9.186,3.005 -13.65,4.636c-3.177,1.117 -6.268,2.318 -9.53,3.263c-1.202,0.343 -2.318,0.944 -3.434,1.459c-1.374,0.601 -2.748,1.288 -4.121,1.889c-0.773,0.344 -1.374,0.086 -1.546,-0.687c-0.085,-0.429 -0.085,-0.944 -0.085,-1.373c0.085,-1.546 0.171,-3.177 0.257,-4.722c0.086,-0.601 0.172,-1.374 0.344,-1.975c1.201,-3.863 2.833,-7.727 4.55,-11.418c0.858,-1.889 1.974,-3.606 3.09,-5.323c0.344,-0.515 0.859,-0.859 1.374,-1.374c-0.687,-0.429 -1.202,-0.773 -1.803,-1.03c-3.348,-1.545 -6.782,-2.919 -10.474,-3.52c-3.692,-0.515 -7.383,-0.773 -11.075,-0.343c-0.257,0 -0.515,0 -0.773,0.085c-1.373,0.43 -1.717,0.344 -2.575,-1.373c0.257,-0.773 0.858,-1.46 1.545,-1.975c1.116,-0.944 2.318,-1.803 3.434,-2.661c1.632,-1.202 3.177,-2.49 4.894,-3.692c1.717,-1.116 3.434,-2.232 5.151,-3.348c1.889,-1.202 3.778,-2.404 5.752,-3.52c3.091,-1.717 6.182,-3.52 9.358,-5.066c2.748,-1.287 5.581,-2.318 8.328,-3.52c3.606,-1.545 7.383,-2.833 11.247,-3.777c1.373,-0.343 2.661,-0.859 3.949,-1.202c1.459,-0.429 3.005,-0.773 4.55,-1.116c3.434,-0.687 6.783,-1.288 10.131,-1.889c2.146,-0.429 4.378,-0.687 6.525,-1.03c0.257,-0.086 0.515,-0.086 0.772,-0.172c1.889,-0.772 3.95,-0.772 6.01,-1.116c0.343,0 0.601,0 0.859,-0.086c3.863,-0.858 7.812,-1.116 11.761,-1.803c1.975,-0.429 4.035,-0.515 6.096,-0.686c3.348,-0.258 6.611,-0.516 9.873,-0.687l0.601,0Zm-13.018,21.474c-0.226,-0.677 -0.456,-1.358 -0.718,-2.072c-0.687,-1.802 -1.374,-3.605 -2.061,-5.408c-0.343,-0.859 -0.773,-1.631 -1.202,-2.404c-0.257,-0.515 -0.773,-0.859 -1.459,-0.859c-1.803,0.086 -3.52,0.086 -5.323,0.258c-2.662,0.257 -5.237,0.687 -7.899,1.03c-0.343,0 -0.687,0.086 -1.03,0.172c-2.404,0.515 -4.808,1.03 -7.212,1.631c-1.888,0.429 -3.777,0.687 -5.58,1.288c-1.631,0.515 -3.348,0.687 -4.98,1.03c-1.888,0.429 -3.777,0.773 -5.58,1.46c-0.601,0.257 -1.202,0.343 -1.803,0.515c-1.374,0.429 -2.747,0.858 -4.121,1.287c-0.944,0.344 -1.631,1.031 -1.717,2.061c-0.172,2.146 -0.343,4.378 -0.429,6.525c0,0.343 0,0.687 -0.086,1.03c-0.601,3.177 -0.429,6.439 -0.515,9.616c-0.086,2.661 -0.344,5.322 0.086,7.984c0.171,1.202 -0.258,1.631 -1.374,1.974c-1.116,0.344 -2.232,0.601 -3.348,0.945c-1.288,0.429 -2.49,1.116 -3.778,1.717c0.258,0.773 0.43,1.374 0.687,1.889c0.258,0.687 0.515,0.772 1.288,0.601c1.374,-0.43 2.661,-0.859 3.949,-1.202c3.005,-0.859 6.01,-1.631 9.101,-2.404c2.747,-0.687 2.747,-0.687 2.318,-3.434c0,-0.086 -0.172,-0.172 -0.258,-0.43c-0.859,0 -1.717,-0.085 -2.576,0.258c-0.429,0.172 -0.944,0.258 -1.373,0.343c-0.429,0.086 -0.773,-0.171 -0.859,-0.686c-0.257,-2.834 0.172,-5.581 0.258,-8.414c0.086,-0.944 0.343,-1.631 1.717,-1.803c0.257,0 0.429,-0.086 0.601,-0.172c2.318,-0.601 4.636,-1.631 7.04,-2.06c1.03,-0.172 2.06,-0.343 3.005,-0.687c4.292,-1.288 8.671,-2.404 13.135,-3.176c0.225,-0.033 0.451,-0.062 0.676,-0.09l0.451,-0.057c0.826,-0.104 1.653,-0.218 2.479,-0.454c2.919,-0.773 5.838,-1.46 8.843,-1.717c2.06,-0.172 4.207,-0.172 6.353,-0.258c1.202,1.459 1.975,2.833 2.318,4.378c0.172,0.601 0.515,1.288 0.773,1.889c0.193,0.483 0.398,0.978 0.606,1.476l0.418,0.998c0.208,0.498 0.414,0.993 0.607,1.475c0,0.076 0.016,0.134 0.035,0.191l0.016,0.048c0.018,0.057 0.035,0.116 0.035,0.191c0.086,0.515 -0.172,0.944 -0.687,1.03c-0.687,0.086 -1.374,0.172 -2.061,0.172c-2.919,0.086 -2.919,-0.344 -2.403,3.09c0,0 0.085,0.086 0.257,0.258c0.343,0 0.859,0.086 1.288,0.086c4.207,0.086 8.328,0.171 12.534,0.171c0.601,0 1.202,-0.016 1.803,-0.034l0.515,-0.016c0.601,-0.019 1.202,-0.035 1.803,-0.035c0.601,0 0.945,-0.172 1.031,-0.773c0.037,-0.075 0.058,-0.167 0.077,-0.26l0.017,-0.081c0.019,-0.093 0.04,-0.185 0.077,-0.26c0.344,-1.03 0.086,-1.46 -0.858,-1.717c-1.631,-0.515 -3.263,-0.515 -4.894,-0.515c-0.687,0 -1.374,0 -2.06,0.086c-1.031,0.086 -1.632,-0.344 -1.975,-1.202c-0.343,-0.859 -0.687,-1.631 -1.03,-2.49c-0.859,-2.404 -1.889,-4.894 -2.747,-7.298c-0.601,-1.545 -0.687,-2.575 -1.288,-4.035c-0.263,-0.713 -0.493,-1.394 -0.719,-2.071l-0.194,-0.579Zm95.437,13.382c-0.086,0.258 -0.086,0.515 -0.086,0.773c0,1.631 -0.258,3.262 -0.859,4.807c-0.257,0.687 -0.515,1.202 -0.944,1.803c-2.232,2.748 -4.808,4.98 -7.984,6.697c-2.662,1.374 -5.323,2.06 -8.242,2.06c-2.232,0 -4.465,-0.085 -6.697,-0.601c-2.489,-0.515 -4.979,-0.858 -7.469,-1.202c-0.172,0 -0.429,-0.085 -0.601,-0.085c-4.464,-0.945 -9.014,-1.803 -13.479,-2.834c-2.919,-0.686 -5.924,-1.03 -8.843,-1.459c-3.348,-0.429 -6.782,-1.116 -10.216,-1.03c-1.46,0 -2.833,-0.258 -4.293,-0.43c-0.515,-0.085 -0.858,-0.429 -0.858,-0.944c0,-0.086 0,-0.172 0,-0.172c-0.086,-3.004 0.257,-2.489 3.348,-2.489c0.687,0 1.374,0.085 2.06,0.085c0.43,0 0.945,0 1.46,0c1.202,-0.171 1.288,-0.171 1.374,-1.373c0.171,-3.434 0.772,-7.641 1.202,-11.075c0.257,-2.318 0.429,-4.636 0.6,-6.954c0.172,-1.717 0.344,-3.434 0.43,-5.151c0.086,-2.748 0.429,-2.233 -2.147,-2.49c-0.686,-0.086 -1.373,0 -2.06,-0.086c-0.687,-0.086 -1.374,-0.172 -2.061,-0.343c0,-1.288 0.086,-2.061 0.086,-3.177c0.687,-0.515 1.288,-0.429 1.889,-0.429c1.202,0.086 2.318,0.086 3.434,0.343c2.576,0.429 5.066,0.258 7.641,0.429c2.833,0.172 5.752,0.516 8.585,0.859c2.748,0.343 5.409,0.858 8.156,1.116c1.889,0.172 3.606,0.601 5.409,1.116c1.374,0.429 2.833,0.601 4.207,0.773c4.121,0.515 8.07,1.631 11.934,3.005c2.661,0.944 5.237,1.803 7.555,3.52c2.06,1.459 3.691,3.262 5.065,5.322c1.202,1.803 2.146,3.864 2.575,6.01c0,1.288 0.258,2.404 -0.171,3.606Zm-54.842,-21.002c0.147,0.011 0.294,0.022 0.441,0.032l1.743,0.129c0.293,0.022 0.588,0.043 0.888,0.065l0,-0.086c4.894,0.601 9.788,1.116 14.681,1.803c5.495,0.772 10.904,1.888 16.312,3.09c3.52,0.773 6.697,2.233 9.959,3.692c1.803,0.859 3.091,2.232 4.551,3.52c0.257,0.172 0.429,0.429 0.515,0.687c1.545,3.262 2.747,6.696 1.717,10.302c-0.687,2.318 -1.632,4.636 -3.864,6.096c-0.687,0.429 -1.287,0.858 -1.888,1.288c-1.632,1.03 -3.349,1.888 -5.323,1.974c-1.632,0.086 -3.177,0.515 -4.722,0.429c-2.404,-0.085 -4.722,-0.343 -7.126,-0.686c-2.232,-0.344 -4.293,-0.945 -6.439,-1.46c-2.576,-0.687 -5.151,-1.116 -7.813,-1.545c-4.121,-0.601 -8.156,-1.288 -12.191,-2.061c-1.459,-0.257 -2.919,-0.687 -4.378,-1.116c-0.515,-0.172 -0.773,-0.601 -0.773,-1.116c0.344,-3.348 0.086,-6.868 0.773,-10.216c0.171,-0.601 0.257,-1.202 0.257,-1.803c0.172,-3.349 0.601,-6.697 1.202,-9.959c0.086,-0.687 0.086,-1.374 0.086,-2.061c0,-0.687 0.258,-1.03 0.945,-1.03l0.447,0.032Zm-46.207,3.316c-0.258,-0.601 -0.515,-1.287 -0.773,-1.888c-0.257,-0.601 -0.772,-0.773 -1.373,-0.773c-1.288,0.086 -2.576,0.172 -3.864,0.343c-4.035,0.601 -8.156,1.202 -12.191,1.889c-2.661,0.429 -5.237,1.03 -7.813,1.631c-4.378,1.116 -8.757,2.232 -13.049,3.434c-2.147,0.601 -2.147,0.601 -2.147,2.748c0,0.257 0,0.515 0,0.858c0,2.232 -0.085,4.379 -0.429,6.525c-0.086,0.601 0.601,1.202 1.202,0.944c0.515,-0.171 0.945,-0.515 1.46,-0.686c1.202,-0.43 2.489,-0.859 3.691,-1.202c0.43,-0.172 0.945,-0.258 1.374,-0.43c1.545,-0.429 3.005,-0.686 4.55,-1.202c3.864,-1.202 7.813,-2.06 11.676,-3.004c2.576,-0.601 5.237,-1.031 7.813,-1.546c0.772,-0.171 1.631,-0.429 2.404,-0.515c1.888,-0.172 3.777,-0.343 5.237,-0.515c1.288,0 2.232,0 3.09,0c0.687,0 1.117,-0.859 0.859,-1.545c-0.515,-1.632 -1.116,-3.349 -1.717,-5.066Z"/></svg>