<?xml version="1.0" encoding="UTF-8" standalone="no"?><!DOCTYPE svg PUBLIC "-//W3C//DTD SVG 1.1//EN" "http://www.w3.org/Graphics/SVG/1.1/DTD/svg11.dtd"><svg width="100%" height="100%" viewBox="0 0 500 307" version="1.1" xmlns="http://www.w3.org/2000/svg" xmlns:xlink="http://www.w3.org/1999/xlink" xml:space="preserve" style="fill-rule:evenodd;clip-rule:evenodd;stroke-linejoin:round;stroke-miterlimit:1.41421;"><rect id="brolly" x="0" y="0.427" width="500" height="306.019" style="fill:none;"/><path d="M440.221,106.542c-2.321,-2.321 -4.798,-4.797 -13.852,-4.797c-5.958,0 -11.22,2.708 -11.22,2.708c0,0 2.321,7.197 2.321,42.019c0,4.488 -0.077,8.744 -0.154,12.768c-2.399,5.726 -5.572,10.292 -9.286,10.292c-3.792,0 -5.262,-6.423 -5.262,-13.619c0,-7.197 4.643,-45.811 0.387,-50.067c-2.631,-2.631 -6.81,-4.101 -10.679,-4.101c-11.143,0 -14.626,2.631 -14.626,2.631c2.631,12.845 0.465,30.721 0.078,53.703c-2.631,4.643 -7.274,11.453 -11.53,11.453c-2.631,0 -4.334,-5.339 -4.334,-12.149c0,-9.441 5.727,-27.781 5.727,-56.954c0,-40.394 -4.179,-49.912 -6.114,-51.769c-0.928,-1.006 -2.399,-2.167 -5.881,-2.167c-8.976,0 -19.346,7.893 -19.346,8.899c3.715,1.857 7.12,18.727 7.12,54.246c0,17.333 -3.715,39.388 -4.256,50.685c-2.709,4.334 -6.501,9.132 -10.138,9.132c-2.631,0 -4.333,-5.34 -4.333,-12.149c0,-9.441 5.726,-27.781 5.726,-56.954c0,-40.394 -4.178,-49.912 -6.113,-51.77c-1.006,-1.006 -2.476,-2.166 -5.958,-2.166c-8.977,0 -19.346,7.893 -19.346,8.899c3.637,2.244 7.119,18.726 7.119,54.245c0,18.727 -4.333,42.793 -4.333,53.162c0,14.548 7.196,24.918 17.333,24.918c11.763,0 18.727,-8.358 21.745,-13.233c2.708,8.125 8.435,13.233 15.554,13.233c13.465,0 20.661,-10.989 22.828,-15.167c3.482,9.363 12.613,15.167 21.667,15.167c5.417,0 10.679,-4.334 15.167,-10.138c-3.172,31.031 -13.697,43.799 -44.959,43.799c-38.46,0 -93.866,-21.899 -169.237,-21.899c-51.692,0 -90.77,9.828 -105.473,24.53c-7.583,7.584 7.506,36.525 10.447,36.525c2.089,0 20.971,-36.293 113.598,-36.293c67.71,0 98.044,18.185 157.939,18.185c61.519,0 63.222,-50.918 63.222,-104.08c0.077,-17.488 1.393,-28.786 -1.548,-31.727Zm-340.021,81.175c39.852,0 57.031,-20.971 57.031,-44.263c0,-18.495 -10.291,-30.257 -26.851,-30.257c0,0 12.69,-9.982 12.69,-23.602c0,-23.214 -19.81,-35.131 -43.644,-35.131c-17.101,0 -41.554,8.28 -41.554,18.726c0,10.215 6.809,15.709 6.809,15.709c0,0 3.096,-5.804 7.507,-5.804c0,0 2.012,10.215 2.012,30.644c0,51.15 -7.197,62.061 -7.197,62.061c0,0 15.477,11.917 33.197,11.917Zm67.71,0c6.346,0 15.322,-2.631 17.953,-5.339c1.78,-1.78 2.863,-9.673 3.405,-21.203c0.077,-1.316 0.155,-2.631 0.155,-4.024c0.774,-9.983 4.333,-22.906 11.143,-29.561c0,0 -1.238,3.251 -1.238,9.519c0,2.94 0.696,7.041 2.321,7.041c7.661,0 15.09,-4.178 16.56,-7.815c1.161,-2.709 1.935,-9.286 1.935,-17.411c0,-4.179 -0.31,-14.239 -1.548,-15.477c-1.238,-1.238 -2.94,-1.625 -7.661,-1.625c-8.976,0 -17.101,11.685 -20.816,23.37c0.542,-7.352 -0.309,-16.947 -1.934,-18.572c-2.322,-2.322 -4.798,-4.798 -13.852,-4.798c-5.958,0 -11.22,2.708 -11.22,2.708c0,0 2.321,7.197 2.321,42.019c0,27.626 -2.399,31.805 -2.399,37.454c-0.077,1.934 1.703,3.714 4.875,3.714Zm91.544,0c24.84,0 34.281,-10.369 34.281,-43.025c0,-32.578 -9.441,-43.025 -34.281,-43.025c-24.84,0 -34.28,10.369 -34.28,43.025c0,32.656 9.44,43.025 34.28,43.025Zm0,-71.27c5.34,0 7.352,6.81 7.352,28.322c0,21.436 -2.012,28.323 -7.352,28.323c-5.339,0 -7.351,-6.81 -7.351,-28.323c0,-21.512 2.012,-28.322 7.351,-28.322Zm-161.73,12.614c4.256,-1.471 9.673,-2.709 15.244,-2.709c9.673,0 18.65,7.506 18.65,18.572c0,13.078 -10.215,20.12 -23.989,20.12c-4.953,0 -9.673,-1.393 -13.155,-2.786c1.315,-6.964 2.631,-17.489 3.25,-33.197Zm7.042,-52.389c9.827,0 16.018,6.501 16.018,15.477c0,9.905 -7.97,16.018 -17.798,16.018c-1.702,0 -3.482,-0.464 -4.953,-1.083c-0.232,-14.78 -1.315,-25.846 -1.702,-29.251c1.935,-0.619 4.72,-1.161 8.435,-1.161Z"/></svg>