<?xml version="1.0" encoding="UTF-8" standalone="no"?><!DOCTYPE svg PUBLIC "-//W3C//DTD SVG 1.1//EN" "http://www.w3.org/Graphics/SVG/1.1/DTD/svg11.dtd"><svg width="100%" height="100%" viewBox="0 0 500 282" version="1.1" xmlns="http://www.w3.org/2000/svg" xmlns:xlink="http://www.w3.org/1999/xlink" xml:space="preserve" style="fill-rule:evenodd;clip-rule:evenodd;stroke-linejoin:round;stroke-miterlimit:1.41421;"><rect id="circumvolve" x="0" y="0.277" width="500" height="281.268" style="fill:none;"/><path d="M270.021,161.435c0,4.436 1.21,7.816 3.534,9.794c1.805,1.536 4.186,2.112 6.874,1.67c7.413,-1.209 11.004,-6.279 11.004,-15.516l0,-39.751c-5.07,-1.076 -9.083,-5.224 -9.083,-9.871c0,-3.956 2.631,-6.952 6.126,-6.952c1.574,0 3.783,0.615 5.185,3.457c0.96,1.959 1.44,4.743 1.44,8.507l0,1.46c2.496,-0.096 4.954,-0.538 6.74,-1.21c3.495,-1.325 3.63,-3.054 3.63,-3.707l0,-0.057c0,-14.96 7.528,-18.09 14.095,-19.146c3.899,-0.634 7.317,0.211 9.928,2.42c3.111,2.65 4.744,7.028 4.744,12.655l0,2.496c4.109,-0.173 10.37,-1.363 10.37,-4.974l0,-40.173c0,-5.128 0.883,-8.872 2.323,-11.618c-0.326,-0.135 -0.633,-0.269 -0.941,-0.385c-6.759,-2.669 -16.035,-4.147 -26.136,-4.147c-8.123,0 -16.265,1.209 -24.427,3.283c9.276,3.899 14.134,9.18 14.134,15.402c0,4.781 -3.245,9.294 -9.371,13.058c-5.377,3.284 -12.598,5.742 -20.337,6.894c-12.847,1.92 -26.328,0.519 -41.23,-4.282c-2.688,-0.865 -5.357,-1.806 -7.988,-2.823c-21.854,11.387 -42.536,21.93 -62.546,25.156c-8.699,1.402 -17.341,1.287 -24.965,-0.365c-7.355,-1.593 -13.826,-4.57 -18.723,-8.66c-13.27,4.916 -27.346,9.16 -42.382,12.002c-0.538,0.115 -1.095,-0.039 -1.517,-0.384c-0.423,-0.365 -0.673,-0.884 -0.673,-1.421l0,-42.402c0,-7.067 -2.381,-15.497 -13.769,-15.497c-4.186,0 -7.489,1.152 -9.793,3.418c-2.631,2.593 -3.975,6.664 -3.975,12.079l0,159.601c0,7.067 2.381,15.497 13.768,15.497c4.206,0 7.528,-1.094 9.833,-3.264c2.611,-2.459 3.936,-6.299 3.936,-11.427c0,-0.825 0.557,-1.555 1.364,-1.766c0.806,-0.212 1.651,0.134 2.074,0.864c5.665,9.928 16.4,15.612 29.42,15.612c8.276,0 16.054,-1.958 21.892,-5.492c1.594,-0.96 2.995,-2.016 4.167,-3.13c-2.669,-2.746 -4.071,-5.838 -4.071,-9.122c0,-3.476 1.901,-8.392 6.106,-8.392c3.976,0 6.107,4.321 6.107,8.392c0,3.073 -1.018,6.03 -2.938,8.738c1.767,1.267 3.917,2.42 6.433,3.476c8.68,3.61 20.74,5.511 34.912,5.511c5.838,0 12.156,-0.864 19.069,-2.65c-10.274,-3.956 -15.689,-9.467 -15.689,-16.035c0,-4.782 3.245,-9.294 9.371,-13.058c5.377,-3.284 12.598,-5.742 20.337,-6.894c12.847,-1.921 26.328,-0.519 41.23,4.282c2.746,0.883 5.473,1.863 8.181,2.9c20.931,-11.158 42.343,-22.008 62.353,-25.234c8.7,-1.402 17.341,-1.286 24.965,0.365c6.068,1.306 11.541,3.572 16.016,6.625c9.678,-3.015 19.395,-4.858 29.035,-4.858c2.459,0 4.84,0.077 7.125,0.211c0.941,-2.976 2.266,-5.819 3.937,-8.277c3.207,-4.762 9.217,-10.427 19.53,-10.427c7.259,0 11.695,3.015 14.133,5.55c2.67,2.765 3.592,5.569 3.63,5.684c0.307,0.96 -0.231,1.997 -1.191,2.304c-0.96,0.327 -1.997,-0.211 -2.304,-1.171c-0.135,-0.403 -3.053,-8.699 -14.268,-8.699c-6.99,0 -12.54,2.957 -16.496,8.814c-1.402,2.074 -2.439,4.321 -3.207,6.529c10.907,1.095 19.587,3.937 25.848,8.469c3.898,2.823 6.855,6.318 8.795,10.428c1.863,3.86 2.804,8.257 2.804,13.077c0,6.952 -2.554,13.462 -7.163,18.32c-4.59,4.821 -10.677,7.49 -17.13,7.49c-4.916,0 -9.486,-1.46 -12.905,-4.11c-3.629,-2.823 -5.626,-6.74 -5.626,-11.042c0,-4.897 1.92,-9.39 5.434,-12.732c-0.288,-0.441 -0.576,-0.921 -0.864,-1.421c-2.899,-5.108 -4.57,-12.002 -4.57,-18.934c0,-2.036 0.211,-4.11 0.634,-6.184c-1.978,-0.096 -4.052,-0.154 -6.184,-0.154c-8.411,0 -16.937,1.479 -25.483,3.956c6.299,5.608 9.621,12.886 9.621,21.067c0,7.911 -3.476,15.324 -9.794,20.855c-6.375,5.588 -15.094,8.68 -24.523,8.68c-16.131,0 -32.511,-7.49 -49.718,-15.997c-5.665,2.765 -11.311,5.339 -16.899,7.566c-14.23,5.665 -26.539,8.431 -37.62,8.431c-12.751,0 -25.367,-1.556 -35.161,-4.283c-9.314,2.881 -17.667,4.283 -25.31,4.283c-14.653,0 -27.212,-1.998 -36.314,-5.8c-2.881,-1.19 -5.377,-2.573 -7.413,-4.071c-1.421,1.383 -3.111,2.688 -5.05,3.86c-6.414,3.879 -14.864,6.011 -23.794,6.011c-12.386,0 -22.929,-4.724 -29.669,-13.136c-1.69,8.431 -7.662,13.136 -16.957,13.136c-11.08,0 -17.437,-6.99 -17.437,-19.166l0,-159.658c0,-6.452 1.71,-11.387 5.07,-14.69c2.977,-2.919 7.259,-4.475 12.367,-4.475c11.081,0 17.437,6.99 17.456,19.165l0,40.155c13.328,-2.669 25.944,-6.433 37.889,-10.792c-4.916,-5.281 -7.49,-11.791 -7.49,-18.993c0,-7.912 3.476,-15.324 9.794,-20.855c6.376,-5.588 15.094,-8.68 24.523,-8.68c15.536,0 31.321,6.952 47.836,15.075c5.953,-2.65 11.81,-5.089 17.591,-7.201c14.748,-5.377 27.077,-7.874 38.791,-7.874c13.557,0 26.923,1.748 36.947,4.801c10.121,-2.996 20.298,-4.801 30.457,-4.801c10.562,0 20.317,1.575 27.5,4.417c0.595,0.25 1.19,0.499 1.747,0.749c2.708,-2.861 6.28,-3.937 9.602,-4.474c3.898,-0.634 7.316,0.211 9.928,2.419c0.192,0.173 0.384,0.346 0.576,0.538c4.551,-2.381 9.871,-3.649 15.459,-3.649c10.082,0 16.361,3.783 19.837,6.952c0.327,0.288 0.634,0.595 0.941,0.902c0.346,-0.326 0.711,-0.652 1.076,-0.96c5.357,-4.436 12.29,-6.894 19.568,-6.894c9.429,0 18.781,4.667 22.122,11.061c0.481,0.884 0.154,1.998 -0.748,2.478c-0.884,0.48 -1.998,0.153 -2.478,-0.749c-2.784,-5.204 -10.946,-9.141 -18.973,-9.141c-6.414,0 -12.54,2.151 -17.225,6.049c-0.365,0.307 -0.73,0.634 -1.076,0.96c2.113,3.015 3.303,6.357 3.303,9.506c0,3.476 -1.901,8.392 -6.106,8.392c-3.976,0 -6.107,-4.321 -6.107,-8.392c0,-3.034 1.459,-6.491 4.013,-9.64c-0.269,-0.288 -0.576,-0.576 -0.883,-0.864c-2.996,-2.727 -8.45,-5.992 -17.36,-5.992c-4.782,0 -9.333,1.037 -13.25,2.977c1.286,2.438 1.958,5.53 1.958,9.121l0,29.555c0,15.036 -9.198,25.713 -16.572,34.297c-4.571,5.319 -8.527,9.909 -8.527,13.692c0,9.756 2.458,17.226 6.914,21.028c2.477,2.093 5.434,2.938 8.564,2.439c5.339,-0.864 9.564,-3.841 12.521,-8.853c2.842,-4.801 4.34,-11.215 4.34,-18.551l0,-50.255c0,-1.018 0.826,-1.844 1.844,-1.844c1.017,0 1.843,0.826 1.843,1.844l0,61.182c0,4.436 1.21,7.816 3.534,9.794c1.805,1.536 4.186,2.112 6.874,1.671c7.413,-1.21 11.004,-6.28 11.004,-15.517l0,-39.54c-5.07,-1.075 -9.083,-5.223 -9.083,-9.87c0,-3.956 2.631,-6.952 6.126,-6.952c1.574,0 3.783,0.614 5.185,3.457c0.96,1.958 1.44,4.743 1.44,8.507l0,1.459c2.496,-0.096 4.954,-0.537 6.74,-1.21c3.495,-1.325 3.63,-3.053 3.63,-3.706l0,-0.288c0,-14.959 7.528,-18.09 14.095,-19.146c3.899,-0.634 7.317,0.211 9.928,2.42c3.111,2.65 4.744,7.028 4.744,12.655c0,6.76 -1.863,12.751 -5.685,18.301c-3.264,4.743 -7.412,8.373 -11.061,11.58c-4.493,3.917 -8.353,7.316 -8.353,10.946l0,9.121c0,4.513 1.19,7.931 3.456,9.852c1.748,1.498 4.148,2.054 6.952,1.594c6.606,-1.076 11.004,-4.11 11.004,-15.517c0,-1.018 0.825,-1.843 1.843,-1.843c1.018,0 1.844,0.825 1.844,1.843c0,14.96 -7.528,18.09 -14.096,19.146c-0.825,0.134 -1.651,0.211 -2.439,0.211c-2.88,0 -5.434,-0.883 -7.47,-2.631c-3.111,-2.65 -4.743,-7.028 -4.743,-12.655l0,-39.597c-0.653,0.403 -1.44,0.787 -2.343,1.133c-2.88,1.075 -6.087,1.363 -8.027,1.44l0,39.29c0,13.923 -7.643,18.09 -14.076,19.146c-0.768,0.135 -1.517,0.192 -2.266,0.192c-2.861,0 -5.492,-0.922 -7.566,-2.688c-1.517,-1.287 -3.226,-3.438 -4.148,-6.894c-0.538,1.344 -1.172,2.611 -1.863,3.783c-3.495,5.914 -8.718,9.582 -15.094,10.619c-0.768,0.135 -1.536,0.192 -2.304,0.192c-3.361,0 -6.568,-1.19 -9.237,-3.456c-5.3,-4.513 -8.219,-12.982 -8.219,-23.832l0,-27.211c-0.653,0.403 -1.441,0.787 -2.343,1.133c-2.881,1.075 -6.088,1.363 -8.027,1.44l0,39.713c0,14.959 -7.528,18.09 -14.096,19.146c-0.825,0.134 -1.651,0.211 -2.439,0.211c-2.88,0 -5.434,-0.883 -7.47,-2.631c-3.111,-2.65 -4.743,-7.028 -4.743,-12.655l0,-39.828c-0.653,0.403 -1.44,0.787 -2.343,1.133c-2.88,1.075 -6.087,1.363 -8.027,1.44l0,39.502c0,13.922 -7.643,18.09 -14.076,19.146c-0.768,0.134 -1.517,0.192 -2.266,0.192c-2.861,0 -5.492,-0.922 -7.566,-2.689c-0.788,-0.653 -1.613,-1.555 -2.362,-2.727c-0.154,0.577 -0.327,1.133 -0.519,1.652c-0.998,2.727 -2.996,6.107 -6.855,6.74c-0.269,0.058 -0.557,0.077 -0.845,0.077c-1.345,0 -2.689,-0.518 -3.841,-1.498c-2.036,-1.728 -4.455,-5.665 -4.455,-14.556l0,-45.896c0,-4.744 -1.172,-8.258 -3.419,-10.159c-1.997,-1.69 -4.32,-1.748 -5.933,-1.479c-2.555,0.404 -4.917,1.94 -6.702,4.302c-2.113,2.823 -3.227,6.625 -3.227,11.042l0,61.202c0,1.017 -0.825,1.843 -1.843,1.843c-1.018,0 -1.844,-0.826 -1.844,-1.843l0,-61.202c0,-4.743 -1.171,-8.258 -3.418,-10.159c-1.997,-1.69 -4.321,-1.747 -5.934,-1.478c-2.554,0.403 -4.916,1.939 -6.702,4.301c-2.112,2.823 -3.226,6.625 -3.226,11.042l0,45.167c0,4.954 -0.595,8.987 -1.728,11.964c-0.98,2.573 -2.958,5.761 -6.837,6.394c-0.326,0.058 -0.634,0.077 -0.941,0.077c-1.421,0 -2.804,-0.518 -3.975,-1.517c-1.075,-0.922 -1.901,-2.17 -2.516,-3.572c-2.688,5.857 -7.7,8.047 -12.136,8.776c-0.768,0.135 -1.517,0.192 -2.266,0.192c-2.862,0 -5.492,-0.921 -7.566,-2.688c-1.518,-1.287 -3.227,-3.438 -4.148,-6.894c-0.538,1.344 -1.172,2.612 -1.863,3.783c-3.495,5.915 -8.719,9.582 -15.094,10.619c-0.73,0.116 -1.46,0.173 -2.189,0.173c-3.284,0 -6.453,-1.19 -9.103,-3.456c-2.016,-1.709 -3.687,-3.975 -5.012,-6.722c-0.269,2.804 -0.768,5.224 -1.498,7.24c-0.998,2.727 -2.996,6.107 -6.855,6.741c-0.269,0.057 -0.557,0.076 -0.845,0.076c-1.345,0 -2.689,-0.518 -3.841,-1.497c-2.036,-1.729 -4.455,-5.665 -4.455,-14.557l0,-55.114c-0.653,0.403 -1.441,0.787 -2.343,1.133c-2.9,1.095 -6.145,1.383 -8.085,1.46c-0.23,11.291 -1.287,27.48 -3.61,42.382c-1.402,8.949 -3.092,16.15 -5.012,21.373c-2.439,6.683 -5.281,10.178 -8.699,10.735c-0.346,0.058 -0.692,0.077 -1.037,0.077c-1.364,0 -2.612,-0.461 -3.649,-1.344c-3.418,-2.919 -4.878,-10.485 -4.878,-25.311l0,-50.543c0,-1.018 0.826,-1.844 1.844,-1.844c1.018,0 1.843,0.826 1.843,1.844l0,50.543c0,12.905 1.21,20.491 3.591,22.507c0.5,0.403 1.018,0.538 1.729,0.422c1.478,-0.23 6.606,-3.034 10.677,-29.035c2.189,-13.98 3.322,-30.303 3.572,-42.075c-5.032,-1.095 -9.026,-5.224 -9.026,-9.852c0,-3.956 2.631,-6.951 6.126,-6.951c1.575,0 3.783,0.614 5.185,3.456c0.96,1.959 1.44,4.744 1.44,8.507c0,0.481 0,0.941 0,1.441c4.129,-0.192 10.389,-1.383 10.389,-4.993c0,-1.018 0.826,-1.844 1.844,-1.844c1.018,0 1.843,0.826 1.843,1.844l0,61.201c0,8.2 2.209,10.966 3.169,11.772c0.576,0.48 1.152,0.692 1.728,0.596c3.418,-0.557 5.473,-6.299 5.473,-15.363l0,-45.167c0,-14.96 7.528,-18.09 14.096,-19.146c3.898,-0.634 7.316,0.211 9.928,2.42c3.111,2.65 4.743,7.028 4.743,12.655c0,1.018 -0.826,1.843 -1.843,1.843c-1.018,0 -1.844,-0.825 -1.844,-1.843c0,-4.513 -1.191,-7.931 -3.457,-9.852c-1.747,-1.497 -4.148,-2.054 -6.951,-1.593c-6.606,1.075 -11.004,4.109 -11.004,15.516l0,32.435c0,13.538 4.494,19.376 7.163,21.661c2.439,2.074 5.319,2.919 8.315,2.439c5.339,-0.864 9.564,-3.84 12.521,-8.853c2.842,-4.8 4.34,-11.214 4.34,-18.55l0,-50.256c0,-1.018 0.826,-1.843 1.843,-1.843c1.018,0 1.844,0.825 1.844,1.843l0,61.183c0,4.436 1.21,7.815 3.533,9.793c1.806,1.537 4.187,2.113 6.875,1.671c7.413,-1.21 11.004,-6.279 11.004,-15.516l0,-61.183c0,-1.018 0.826,-1.843 1.843,-1.843c1.018,0 1.844,0.825 1.844,1.843l0,61.221c0,5.492 1.056,9.544 2.938,11.138c0.595,0.519 1.268,0.73 1.94,0.615c2.035,-0.327 5.473,-2.689 5.473,-14.749l0,-60.472c0,-1.017 0.825,-1.843 1.843,-1.843c1.018,0 1.844,0.826 1.844,1.843l0,2.478c0.115,-0.135 0.211,-0.288 0.307,-0.423c2.343,-3.13 5.569,-5.166 9.045,-5.722c3.341,-0.538 6.51,0.268 8.891,2.304c0.922,0.787 1.94,1.959 2.785,3.61c0.595,-1.421 1.344,-2.746 2.227,-3.917c2.343,-3.13 5.569,-5.166 9.045,-5.723c3.341,-0.538 6.51,0.269 8.891,2.304c3.879,3.303 4.705,8.872 4.705,12.944l0,45.896c0,8.2 2.209,10.965 3.169,11.772c0.576,0.48 1.152,0.691 1.728,0.595c3.418,-0.557 5.473,-6.299 5.473,-15.363l0,-60.472c0,-1.017 0.826,-1.843 1.844,-1.843c1.017,0 1.843,0.826 1.843,1.843l0,61.183Zm110.593,49.679c0,6.837 -3.034,13.27 -8.545,18.109c-5.723,5.012 -13.558,7.778 -22.104,7.778c-14.537,0 -29.669,-6.587 -45.55,-14.365c5.761,-2.88 11.503,-5.895 17.148,-8.872c16.112,-8.449 32.55,-17.091 48.912,-22.429c0.422,0.326 0.826,0.653 1.229,0.998c5.818,4.955 8.91,11.446 8.91,18.781Zm58.072,19.511c-3.879,4.091 -9.026,6.357 -14.461,6.357c-8.468,0 -14.863,-4.936 -14.863,-11.484c0,-4.705 2.093,-7.874 4.052,-9.813c2.746,2.919 5.991,4.474 9.467,4.474c5.55,0 8.469,-3.111 8.469,-6.164c0,-3.457 -3.726,-6.164 -8.469,-6.164c-2.938,0 -6.087,0.979 -8.814,2.688c-0.211,-0.307 -0.403,-0.653 -0.596,-0.979c-2.592,-4.571 -4.09,-10.812 -4.09,-17.13c0,-1.69 0.211,-3.745 0.672,-5.915c10.543,0.98 18.839,3.611 24.696,7.855c6.702,4.858 10.101,11.733 10.101,20.49c-0.019,6.011 -2.189,11.618 -6.164,15.785Zm-174.733,-18.896c-13.231,7.086 -26.924,14.403 -40.078,19.818c-2.304,0.96 -4.57,1.824 -6.779,2.631c8.488,1.805 18.512,2.804 28.652,2.804c10.6,0 22.449,-2.689 36.256,-8.181c4.647,-1.844 9.352,-3.956 14.115,-6.222c-0.065,-0.029 -0.13,-0.06 -0.195,-0.093l-0.129,-0.064c-0.065,-0.032 -0.13,-0.064 -0.195,-0.093c-9.045,-4.513 -18.205,-9.064 -27.557,-12.789l-4.09,2.189Zm-53.444,20.817c-0.595,-0.173 -1.152,-0.346 -1.728,-0.538c-13.634,-4.398 -16.477,-9.89 -16.477,-13.731c0,-3.38 2.708,-6.913 7.624,-9.928c4.974,-3.034 11.695,-5.319 18.973,-6.395c3.668,-0.557 7.298,-0.806 10.87,-0.806c11.618,0 22.813,2.669 33.702,6.644c-0.423,0.231 -0.845,0.461 -1.268,0.672c-13.154,7.067 -26.75,14.345 -39.732,19.703c-4.167,1.709 -8.142,3.169 -11.964,4.379Zm-69.382,-6.971c-1.843,-1.978 -2.804,-4.11 -2.804,-6.318c0,-1.882 0.961,-4.724 2.42,-4.724c1.555,0 2.42,2.803 2.42,4.724c0.019,2.17 -0.692,4.301 -2.036,6.318Zm156.086,-6.53c-8.123,-4.052 -16.438,-8.18 -24.983,-11.733c19.779,-10.485 39.904,-20.394 58.474,-23.409c13.635,-2.208 26.559,-0.384 35.853,4.858c-15.708,5.454 -31.359,13.673 -46.722,21.739c-6.452,3.399 -13.02,6.836 -19.588,10.063c-0.998,-0.5 -2.016,-0.999 -3.034,-1.518Zm119.12,-5.626c2.074,-1.229 4.378,-1.921 6.529,-1.921c2.977,0 4.801,1.46 4.801,2.497c0,1.229 -1.786,2.496 -4.801,2.496c-2.304,0 -4.532,-1.056 -6.529,-3.072Zm-96.786,-46.838c-2.804,0.461 -5.204,-0.096 -6.952,-1.594c-2.266,-1.92 -3.456,-5.338 -3.456,-9.851l0,-45.896c0,-11.407 4.397,-14.441 11.003,-15.517c0.634,-0.096 1.249,-0.153 1.844,-0.153c1.479,0 2.823,0.326 3.975,0.96c-2.631,0.787 -4.474,3.399 -4.474,6.721c0,4.647 4.013,8.776 9.083,9.851l0,39.982c-0.039,11.388 -4.436,14.441 -11.023,15.497Zm-216.462,-37.619c-3.015,-0.941 -5.416,-3.457 -5.416,-6.069c0,-1.901 1.037,-3.283 2.459,-3.283c0.595,0 1.286,0.172 1.901,1.401c0.71,1.421 1.056,3.745 1.056,6.875c0.019,0.365 0.019,0.711 0,1.076Zm266.583,-70.516l0,29.516c0,13.673 -8.699,23.793 -15.67,31.897c-2.131,2.477 -4.129,4.801 -5.742,7.067l0,-64.409c0,-4.493 0.692,-7.681 1.921,-9.985c3.725,2.189 6.951,5.377 6.951,9.889c0,1.018 0.826,1.844 1.844,1.844c1.018,0 1.843,-0.826 1.843,-1.844c0,-3.36 2.42,-7.354 6.299,-10.408c0.365,-0.288 0.73,-0.557 1.114,-0.826c0.941,1.902 1.44,4.34 1.44,7.259Zm-288.025,55.817c1.964,0 3.557,1.594 3.557,3.557c0,1.963 -1.593,3.557 -3.557,3.557c-1.963,0 -3.557,-1.594 -3.557,-3.557c0,-1.963 1.594,-3.557 3.557,-3.557Zm341.776,-23.516c0,-11.407 4.398,-14.441 11.004,-15.517c0.633,-0.096 1.248,-0.153 1.843,-0.153c2.016,0 3.764,0.595 5.127,1.747c2.266,1.92 3.457,5.339 3.457,9.852c0,6.01 -1.651,11.31 -5.031,16.226c-2.996,4.36 -6.971,7.836 -10.466,10.889c-2.209,1.939 -4.263,3.745 -5.915,5.607l0,-28.651l-0.019,0Zm-132.024,23.082c-3.015,-0.941 -5.416,-3.456 -5.416,-6.068c0,-1.901 1.037,-3.284 2.458,-3.284c0.596,0 1.287,0.173 1.901,1.402c0.711,1.421 1.057,3.745 1.057,6.875l0,1.075Zm36.179,-15.881c0.595,0 1.287,0.173 1.901,1.402c0.711,1.421 1.056,3.745 1.056,6.875l0,1.056c-3.014,-0.941 -5.415,-3.457 -5.415,-6.068c0.019,-1.882 1.037,-3.265 2.458,-3.265Zm-126.609,-33.664c8.181,4.071 16.554,8.239 25.157,11.81c-20.548,10.697 -40.059,20.337 -58.648,23.333c-15.286,2.477 -29.669,-0.116 -39.079,-6.914c16.554,-6.375 31.84,-13.73 46.089,-20.586c7.412,-3.552 14.556,-6.99 21.488,-10.12c1.652,0.826 3.323,1.651 4.993,2.477Zm199.314,25.234c0,-1.902 1.037,-3.284 2.458,-3.284c0.595,0 1.286,0.173 1.901,1.402c0.48,0.979 1.056,2.976 1.056,6.875l0,1.056c-3.015,-0.922 -5.415,-3.438 -5.415,-6.049Zm-282.715,-17.284c0,-6.836 3.034,-13.269 8.546,-18.108c5.723,-5.013 13.558,-7.778 22.103,-7.778c13.923,0 28.364,6.03 43.496,13.366c-6.145,2.803 -12.405,5.818 -18.819,8.91c-14.729,7.086 -30.553,14.691 -47.74,21.182c-4.974,-4.782 -7.586,-10.831 -7.586,-17.572Zm171.814,-20.912c13.635,4.397 16.477,9.89 16.477,13.711c0,3.38 -2.708,6.913 -7.624,9.909c-4.974,3.034 -11.695,5.32 -18.973,6.395c-15.478,2.304 -30.13,-0.615 -44.322,-5.742c17.898,-9.314 36.161,-18.743 54.442,-24.273l0,0Zm-36.947,-4.974c10.869,0 21.604,1.152 30.457,3.188c-17.303,5.915 -34.471,14.883 -51.293,23.678c-0.403,0.211 -0.826,0.422 -1.229,0.653c-9.429,-3.745 -18.666,-8.335 -27.768,-12.867c-0.749,-0.384 -1.518,-0.749 -2.266,-1.133c18.185,-7.931 35.123,-13.519 52.099,-13.519Zm152.821,9.832c1.556,2.478 2.17,4.897 2.17,6.683c0,1.882 -0.96,4.724 -2.419,4.724c-1.556,0 -2.42,-2.804 -2.42,-4.724c-0.019,-2.016 0.96,-4.397 2.669,-6.683Zm-45.992,-9.179c2.631,-0.422 4.916,0.038 6.644,1.344c-0.365,0.25 -0.729,0.519 -1.075,0.807c-2.516,1.978 -4.513,4.282 -5.838,6.683c-1.383,-2.324 -3.553,-4.398 -6.472,-6.184c1.806,-1.479 4.091,-2.227 6.741,-2.65Z"/></svg>