<?xml version="1.0" encoding="UTF-8" standalone="no"?><!DOCTYPE svg PUBLIC "-//W3C//DTD SVG 1.1//EN" "http://www.w3.org/Graphics/SVG/1.1/DTD/svg11.dtd"><svg width="100%" height="100%" viewBox="0 0 500 197" version="1.1" xmlns="http://www.w3.org/2000/svg" xmlns:xlink="http://www.w3.org/1999/xlink" xml:space="preserve" style="fill-rule:evenodd;clip-rule:evenodd;stroke-linejoin:round;stroke-miterlimit:1.41421;"><rect id="deliciousness" x="0" y="0.476" width="500" height="195.613" style="fill:none;"/><path d="M442.646,82.381c0,-1.944 4.595,-8.022 4.595,-11.451c0,-2.756 -3.711,-6.078 -5.584,-6.078c-2.686,0 -6.892,8.093 -6.892,12.97c0,1.378 0.742,3.181 1.626,5.266c-1.98,4.594 -4.595,9.648 -7.528,13.889c0,-6.573 -5.832,-11.557 -5.832,-14.667c0,-1.943 3.711,-7.633 3.711,-11.062c0,-2.756 -3.711,-6.078 -5.584,-6.078c-2.686,0 -6.432,7.386 -6.432,12.263c0,1.167 0.53,2.58 1.273,4.135c-1.732,3.04 -4.065,6.68 -6.892,10.32c-6.256,0.106 -10.567,5.584 -10.603,11.027c-4.771,3.781 -10.107,6.361 -15.621,6.361c-0.954,0 -1.378,-1.59 -1.378,-3.923c0,-2.756 0.742,-5.619 1.909,-8.482c0.07,0 0.106,0 0.176,0c15.126,-1.661 21.205,-12.051 21.205,-19.049c0,-3.287 -5.018,-9.083 -9.507,-9.083c-3.286,0 -21.381,11.981 -21.452,31.702c-3.782,3.887 -9.295,8.27 -12.97,8.27c-0.142,0 -0.389,-0.106 -0.389,-0.389c0,-6.326 14.419,-23.679 14.419,-31.065c0,-2.828 -4.205,-8.553 -9.189,-8.553c-1.307,0 -7.068,6.644 -11.38,10.991c0.212,-0.848 0.318,-1.696 0.318,-2.544c0,-3.923 -4.665,-8.447 -9.648,-8.447c-0.671,0 -0.813,0.389 -0.813,0.742c0,0.424 0.848,0.53 0.848,1.308c0,4.523 -4.735,12.793 -8.517,20.639c-2.085,3.04 -4.453,6.044 -6.927,8.518c0.354,-1.061 0.53,-2.121 0.53,-3.252c0,-6.573 -6.432,-11.274 -6.432,-14.384c0,-1.944 4.206,-8.022 4.206,-11.451c0,-2.756 -3.57,-6.184 -5.443,-6.184c-2.686,0 -6.679,8.552 -6.679,13.465c0,0.919 0.353,1.979 0.883,3.074c-1.555,3.252 -3.534,6.857 -5.796,10.356c-6.573,0.212 -11.062,5.619 -11.062,11.415c0,0.601 0.071,1.202 0.177,1.767c-2.933,2.474 -5.938,4.029 -8.765,4.029c-0.141,0 -0.389,-0.106 -0.389,-0.389c0,-6.326 13.96,-23.573 13.96,-30.959c0,-2.827 -4.064,-8.235 -9.047,-8.235c-0.495,0 -0.954,0.142 -0.954,0.46c0,0.389 0.706,0.636 0.706,1.166c0,5.725 -7.563,17.636 -11.167,26.895c-4.312,6.079 -8.977,10.956 -12.759,10.956c-0.141,0 -0.389,-0.106 -0.389,-0.389c0,-6.326 13.572,-22.689 13.572,-31.065c0,-3.923 -4.206,-8.447 -9.189,-8.447c-0.495,0 -0.707,0.248 -0.707,0.53c0,0.566 0.777,0.495 0.777,1.202c0,2.05 -0.954,4.948 -2.367,8.235c-2.262,2.261 -5.231,4.594 -8.765,5.796c-1.166,-2.863 -4.064,-4.065 -6.362,-4.065c-1.943,0 -2.721,1.979 -2.721,3.888c0,1.908 0.954,3.534 2.686,3.993c-1.131,8.447 -5.902,21.064 -15.268,21.064c-0.954,0 -1.378,-1.59 -1.378,-3.923c0,-18.625 18.06,-27.99 19.297,-29.263c1.484,-1.484 -3.075,-7.068 -5.266,-7.068c-3.216,0 -20.993,11.309 -21.665,30.429c-4.135,3.711 -11.238,9.154 -13.818,9.154c-0.142,0 -0.389,-0.106 -0.389,-0.389c0,-6.326 14.384,-22.689 14.384,-31.065c0,-2.828 -4.206,-8.553 -9.189,-8.553c-0.495,0 -0.671,0.212 -0.671,0.459c0,0.389 0.565,0.53 0.565,1.237c0,5.584 -7.351,17.141 -11.203,26.365c-5.231,5.832 -13.218,12.617 -19.579,12.617c-0.955,0 -1.379,-1.59 -1.379,-3.923c0,-12.405 15.162,-27.92 17.706,-27.92c0.142,0 0.283,0.142 0.283,0.424c0,9.931 -6.927,11.628 -6.927,13.466c0,1.237 0.672,1.519 1.485,1.519c3.993,0 10.743,-6.609 10.743,-13.924c0,-4.453 -5.124,-9.896 -9.436,-9.896c-3.181,0 -20.463,11.062 -21.452,29.864c-4.029,3.711 -11.698,9.683 -14.42,9.683c-0.141,0 -0.388,-0.106 -0.388,-0.388c0,-6.327 14.384,-22.69 14.384,-31.066c0,-2.509 -4.206,-8.446 -9.189,-8.446c-0.495,0 -0.848,0.141 -0.848,0.388c0,0.566 0.919,0.495 0.919,1.202c0,6.927 -11.522,23.078 -13.36,32.55c-3.675,2.968 -7.881,5.796 -10.037,5.796c-0.141,0 -0.388,-0.106 -0.388,-0.389c0,-16.505 22.866,-45.414 22.866,-53.472c0,-3.358 -4.524,-8.517 -9.507,-8.517c-0.46,0 -0.636,0.176 -0.636,0.459c0,0.424 0.777,0.53 0.777,1.661c0,5.655 -14.384,26.718 -19.791,44.849c-4.665,6.114 -14.738,16.009 -22.371,16.009c-0.955,0 -1.379,-1.59 -1.379,-3.923c0,-2.65 0.707,-5.442 1.803,-8.163c0.106,0 0.212,0 0.318,0c15.126,-1.661 21.205,-13.854 21.205,-18.449c0,-3.817 -5.019,-9.719 -9.507,-9.719c-3.287,0 -21.453,11.734 -21.453,31.56c0,7.599 4.1,12.017 8.836,12.017c7.634,0 15.762,-7.104 21.064,-13.254c-0.354,2.05 -0.566,3.994 -0.566,5.867c0,4.595 2.227,7.457 5.372,7.457c3.994,0 8.977,-2.756 13.218,-5.973c0.424,3.853 2.474,5.973 5.301,5.973c5.584,0 13.041,-5.372 17.848,-9.86c0.671,6.326 4.453,9.896 8.729,9.896c6.185,0 12.688,-4.666 17.741,-9.649c-0.141,0.778 -0.247,1.52 -0.247,2.191c0,4.807 2.227,7.458 5.372,7.458c5.407,0 12.511,-5.019 17.317,-9.401c0.813,6.008 4.489,9.401 8.659,9.401c14.525,0 22.371,-22.018 22.371,-25.411c0,-0.071 0,-0.106 0,-0.177c2.085,-0.883 4.1,-2.085 5.973,-3.428c-3.675,7.669 -8.164,16.257 -8.164,21.558c0,4.807 2.227,7.458 5.372,7.458c5.16,0 10.037,-3.146 14.313,-7.599c0,0.071 0,0.177 0,0.247c0,4.807 2.227,7.458 5.372,7.458c4.736,0 9.154,-2.086 13.147,-5.337c1.944,3.251 5.973,5.195 10.426,5.195c8.129,0 15.586,-5.796 21.523,-12.793c-0.636,1.979 -1.06,3.816 -1.06,5.336c0,6.256 3.464,7.846 7.28,7.846c0.425,0 0.672,-0.283 0.672,-0.742c0,-7.563 4.912,-14.914 9.083,-21.594c6.538,-8.906 15.232,-16.929 16.151,-16.929c1.166,0 -12.971,23.997 -12.971,31.278c0,5.372 2.404,7.775 4.984,7.775c6.149,0 12.511,-4.524 16.964,-8.835c0.989,5.583 4.559,8.729 8.552,8.729c5.902,0 11.486,-2.58 16.434,-6.362c1.591,3.923 6.008,6.362 10.991,6.362c13.254,0 22.513,-14.738 27.567,-26.4c1.202,2.898 2.332,6.184 2.332,9.471c0,15.939 -15.055,35.731 -72.061,35.731c-41.456,0 -75.985,-12.865 -133.945,-12.865c-76.585,0 -87.4,13.359 -87.4,23.255c0,9.896 6.609,18.236 10.355,18.236c1.732,0 8.977,-27.672 88.849,-27.672c50.892,0 67.043,8.128 115.567,8.128c42.87,0 88.248,-21.311 88.248,-41.597c0.177,-8.941 -6.856,-13.571 -6.856,-16.681Zm-354.265,-47.216c-18.589,0 -38.875,12.511 -38.875,29.404c0,6.255 4.347,11.026 8.411,11.026c1.272,0 3.675,-0.212 3.675,-1.342c0,-1.131 -0.848,-4.029 -0.848,-7.811c0,-13.112 17.742,-25.057 32.515,-25.057c10.567,0 15.02,3.039 15.02,16.893c0,21.983 -26.506,58.561 -40.078,58.561c-0.848,0 -0.989,-2.12 -0.989,-4.63c0,-20.568 22.194,-45.343 22.194,-54.638c0,-2.297 -4.488,-8.517 -9.471,-8.517c-0.318,0 -0.566,0.106 -0.566,0.495c0,0.671 0.707,0.494 0.707,1.449c0,9.012 -22.159,36.013 -22.159,57.536c0,3.534 1.414,12.688 12.829,12.688c22.018,0 46.05,-30.465 46.05,-58.562c-0.035,-16.469 -12.97,-27.495 -28.415,-27.495Zm317.757,72.556c-2.156,0 -4.064,-1.767 -4.594,-3.428c3.357,-2.933 6.397,-6.362 9.047,-9.79c0.636,0.389 1.167,0.954 1.167,1.52c0,1.52 -1.308,2.333 -1.626,2.333c-0.283,0 -0.354,0.212 -0.354,0.388c0,1.697 1.237,3.464 3.358,3.464c2.332,0 4.099,-1.944 4.099,-4.559c0,-2.686 -2.155,-4.595 -4.947,-5.372c2.014,-2.828 3.781,-5.62 5.16,-8.023c1.378,2.651 2.756,5.513 2.756,8.093c-0.071,7.493 -6.962,15.374 -14.066,15.374Zm-98.638,0c-1.697,0 -3.252,-1.096 -4.065,-2.403c3.393,-3.216 6.433,-7.21 9.048,-11.31c0.707,0.389 1.343,0.99 1.343,1.626c0,1.52 -1.661,1.979 -1.979,1.979c-0.283,0 -0.354,0.212 -0.354,0.389c0,1.696 1.025,3.817 3.358,3.817c2.332,0 4.099,-1.59 4.099,-4.206c0,-2.827 -2.155,-5.018 -5.089,-5.796c1.661,-2.756 3.11,-5.513 4.312,-8.093c1.555,2.721 3.357,5.725 3.357,8.588c-0.035,7.528 -6.927,15.409 -14.03,15.409Zm1.943,-13.854c-2.085,3.04 -4.311,5.902 -6.608,8.27c0.388,-4.877 3.11,-7.563 6.608,-8.27Zm97.755,0.424c-1.661,2.015 -3.498,3.958 -5.407,5.796c0.848,-3.216 2.934,-5.124 5.407,-5.796Zm-7.916,-16.822c0.283,0 0.389,0.141 0.389,0.353c0,8.235 -8.306,13.889 -14.632,15.833c4.63,-8.729 12.476,-16.186 14.243,-16.186Zm-259.867,-0.106c0,0 0.141,-0.036 0.212,0.035c0.071,0.071 0.071,0.353 0.071,0.353c0,7.387 -7.952,13.678 -14.526,15.727c4.63,-8.658 12.476,-16.115 14.243,-16.115Zm96.094,-10.638c1.873,0 3.993,-2.651 3.993,-7.245c0,-2.474 -3.428,-6.468 -7.669,-6.468c-0.459,0 -0.742,0.071 -0.742,0.283c0,0.283 0.601,0.424 0.601,0.742c0,1.414 -3.075,2.545 -3.075,5.973c0,2.862 4.206,6.715 6.892,6.715Zm-48.878,-0.318c1.873,0 4.206,-2.474 4.206,-7.069c0,-2.474 -3.64,-6.326 -7.881,-6.326c-0.46,0 -0.672,0.071 -0.672,0.248c0,0.353 0.248,0.388 0.248,0.706c0,1.414 -3.11,2.969 -3.11,6.397c0.035,2.863 4.523,6.044 7.209,6.044Z"/></svg>