<?xml version="1.0" encoding="UTF-8" standalone="no"?><!DOCTYPE svg PUBLIC "-//W3C//DTD SVG 1.1//EN" "http://www.w3.org/Graphics/SVG/1.1/DTD/svg11.dtd"><svg width="100%" height="100%" viewBox="0 0 500 444" version="1.1" xmlns="http://www.w3.org/2000/svg" xmlns:xlink="http://www.w3.org/1999/xlink" xml:space="preserve" style="fill-rule:evenodd;clip-rule:evenodd;stroke-linejoin:round;stroke-miterlimit:1.41421;"><rect id="effulgent" x="0" y="0.383" width="500" height="442.985" style="fill:none;"/><path d="M270.449,384.923l-0.2,0c-0.901,0 -1.651,-0.651 -1.751,-1.551l-8.856,-84.256c-0.1,-0.95 0.6,-1.801 1.551,-1.901c0.951,-0.1 1.801,0.601 1.901,1.551l8.906,84.255c0.1,0.951 -0.6,1.801 -1.551,1.902Zm21.714,-98.165c-0.5,-0.85 -1.551,-1.1 -2.401,-0.65c-0.851,0.5 -1.101,1.551 -0.651,2.401l50.133,86.807c0.3,0.551 0.901,0.901 1.501,0.901c0.3,0 0.601,-0.1 0.851,-0.25c0.85,-0.501 1.1,-1.551 0.65,-2.402l-50.083,-86.807Zm-58.138,-3.402c-0.9,-0.3 -1.901,0.2 -2.201,1.101l-27.568,84.955c-0.3,0.901 0.2,1.902 1.101,2.202c0.2,0.05 0.35,0.1 0.55,0.1c0.75,0 1.401,-0.45 1.651,-1.201l27.568,-84.905c0.35,-0.951 -0.15,-1.952 -1.101,-2.252Zm-30.169,-4.803c-0.701,-0.65 -1.802,-0.6 -2.452,0.15l-69.746,77.451c-0.65,0.7 -0.6,1.801 0.15,2.451c0.351,0.301 0.751,0.451 1.151,0.451c0.501,0 0.951,-0.201 1.301,-0.601l69.746,-77.45c0.65,-0.701 0.6,-1.802 -0.15,-2.452Zm75.849,19.613c-0.3,-0.901 -1.301,-1.401 -2.201,-1.101c-0.901,0.3 -1.401,1.301 -1.101,2.201l18.762,57.788c0.25,0.751 0.951,1.201 1.651,1.201c0.201,0 0.351,-0.05 0.551,-0.1c0.9,-0.3 1.401,-1.301 1.1,-2.201l-18.762,-57.788Zm18.662,-27.618c-0.65,-0.701 -1.751,-0.801 -2.451,-0.15c-0.701,0.65 -0.801,1.751 -0.15,2.451l71.246,79.152c0.351,0.4 0.801,0.6 1.301,0.6c0.4,0 0.851,-0.15 1.151,-0.45c0.7,-0.65 0.8,-1.751 0.15,-2.452l-71.247,-79.151Zm-79.151,12.258c-0.851,-0.501 -1.902,-0.2 -2.402,0.65l-32.871,56.937c-0.501,0.851 -0.201,1.902 0.65,2.402c0.3,0.15 0.6,0.25 0.851,0.25c0.6,0 1.2,-0.3 1.501,-0.9l32.871,-56.938c0.55,-0.85 0.25,-1.901 -0.6,-2.401Zm22.714,53.134l-0.2,0c-0.95,-0.1 -1.651,-0.95 -1.551,-1.901l5.254,-49.932c0.1,-0.951 0.95,-1.652 1.901,-1.551c0.951,0.1 1.651,0.95 1.601,1.901l-5.253,49.932c-0.1,0.901 -0.851,1.551 -1.752,1.551Zm-91.059,-37.974c-0.55,-0.801 -1.651,-0.951 -2.452,-0.401l-36.373,26.418c-0.801,0.55 -0.951,1.651 -0.401,2.451c0.35,0.451 0.901,0.701 1.401,0.701c0.35,0 0.701,-0.1 1.051,-0.351l36.374,-26.417c0.8,-0.55 1,-1.651 0.4,-2.401Zm147.246,-42.178c-0.55,0.801 -0.4,1.901 0.401,2.452l64.792,47.08c0.3,0.251 0.65,0.351 1.051,0.351c0.55,0 1.05,-0.25 1.401,-0.701c0.55,-0.8 0.4,-1.901 -0.401,-2.451l-64.792,-47.081c-0.801,-0.601 -1.901,-0.45 -2.452,0.35Zm-174.114,25.267c-0.4,-0.901 -1.451,-1.301 -2.301,-0.901l-41.027,18.262c-0.901,0.4 -1.301,1.451 -0.901,2.301c0.301,0.651 0.951,1.051 1.601,1.051c0.251,0 0.501,-0.05 0.701,-0.15l41.027,-18.262c0.85,-0.35 1.251,-1.401 0.9,-2.301Zm294.443,13.859l-91.66,-40.827c-0.901,-0.4 -1.901,0 -2.302,0.901c-0.4,0.9 0,1.901 0.901,2.301l91.66,40.827c0.25,0.1 0.45,0.15 0.701,0.15c0.65,0 1.3,-0.4 1.601,-1.051c0.4,-0.9 0,-1.951 -0.901,-2.301Zm-223.596,-94.412c3.252,-26.668 12.758,-32.071 13.208,-32.321c0.851,-0.451 1.902,-0.15 2.352,0.7c0.45,0.851 0.15,1.901 -0.701,2.352c-0.2,0.1 -8.355,5.253 -11.407,29.419c10.057,0.75 13.559,3.402 13.959,3.752l0.2,0.201c0.05,0.05 0.05,0.1 0.1,0.15c0.05,0.05 0.05,0.1 0.1,0.15c0.05,0.05 0.1,0.1 0.1,0.15c0,0.05 0.05,0.1 0.05,0.15c0,0.05 0.05,0.1 0.05,0.15c0.051,0.05 0.051,0.1 0.051,0.15l0,0.601c0,0.1 -2.102,10.156 -2.102,20.013c0,10.206 2.902,11.507 5.404,11.507c7.505,0 10.557,-14.009 11.157,-19.563c0.6,-6.904 1.751,-12.358 1.801,-12.658c0.2,-0.951 1.101,-1.551 2.051,-1.351c0.951,0.2 1.552,1.101 1.351,2.052c0,0.1 -2.101,10.156 -2.101,20.013c0,10.106 1.551,11.507 3.252,11.507c1.801,0 5.304,-3.052 9.556,-8.956c-0.05,-1.651 -0.05,-3.402 -0.05,-5.153c0,-31.621 6.755,-55.486 15.711,-55.486c6.754,0 7.755,7.555 7.755,12.058c0,10.707 -6.505,26.517 -12.559,37.724c-1.3,2.402 -4.002,7.205 -7.254,11.858c0.35,6.654 1.401,7.955 3.302,7.955c1.051,0 3.952,-0.75 9.356,-7.805c2.852,-3.702 5.053,-7.455 5.454,-8.205c1.701,-16.211 10.657,-17.612 13.608,-17.612c3.553,0 6.405,1.451 8.256,4.103c0.15,-1.551 0.2,-2.452 0.2,-2.502c0.05,-1 0.901,-1.701 1.851,-1.651c1.001,0.05 1.701,0.901 1.651,1.851c0,0.2 -1.15,16.411 -2.902,31.771c2.552,-1.751 5.154,-3.502 7.655,-5.153c0.551,-0.4 1.151,-0.801 1.752,-1.201c-0.401,-1.501 -0.551,-3.102 -0.551,-4.653c0,-8.306 2.652,-13.659 4.853,-16.661c2.702,-3.702 6.355,-6.004 9.557,-6.004c5.203,0 8.555,3.102 8.555,7.905c0,7.705 -8.155,13.959 -18.312,20.814c1.101,2.652 3.052,4.853 6.404,4.853c9.256,0 15.911,-10.607 17.012,-12.458c0.85,-7.205 1.701,-15.36 1.701,-19.413c0,-0.95 0.8,-1.751 1.751,-1.751c0.95,0 1.751,0.801 1.751,1.751c0,1.951 -0.2,4.653 -0.45,7.755c3.102,-6.304 6.804,-9.506 11.207,-9.506c5.303,0 9.006,4.403 9.006,10.707c0,2.852 -0.45,6.104 -0.851,9.256c-0.7,5.254 -1.501,11.207 0.15,13.059c0.251,0.3 0.651,0.6 1.601,0.6c3.703,0 7.856,-8.956 9.707,-15.46c0,-6.004 0.4,-16.111 2.552,-25.917c-9.006,-1.901 -17.512,-5.103 -25.867,-8.205c-11.358,-4.253 -22.065,-8.256 -32.472,-8.256c-21.164,0 -26.517,11.458 -26.717,11.958c-0.4,0.901 -1.401,1.301 -2.302,0.901c-0.9,-0.401 -1.3,-1.401 -0.9,-2.302c0.25,-0.6 6.354,-14.059 29.919,-14.059c11.058,0 22.065,4.103 33.722,8.455c8.206,3.052 16.611,6.205 25.467,8.056c0.4,-1.551 0.901,-3.102 1.401,-4.603c4.553,-13.059 11.858,-19.713 21.864,-19.713c10.957,0 16.911,6.804 16.911,13.208c0,11.258 -12.508,16.261 -24.966,16.261c-4.303,0 -8.456,-0.4 -12.558,-1.101c-2.152,9.657 -2.502,19.663 -2.502,25.517c0,9.356 2.602,15.21 6.855,15.21c5.303,0 7.254,-7.405 7.254,-7.455c0.201,-0.9 1.151,-1.501 2.102,-1.251c0.95,0.2 1.551,1.151 1.301,2.102c0,0.1 -0.601,2.501 -2.152,4.903c-2.151,3.402 -5.103,5.203 -8.505,5.203c-3.202,0 -5.904,-1.801 -7.705,-5.053c-0.851,-1.551 -1.501,-3.402 -1.952,-5.604c-2.251,5.054 -5.803,10.707 -10.457,10.707c-1.801,0 -3.202,-0.6 -4.252,-1.801c-2.702,-3.052 -1.852,-9.256 -1.001,-15.81c0.4,-3.052 0.801,-6.154 0.801,-8.756c0,-3.302 -1.451,-7.205 -5.504,-7.205c-7.655,0 -12.058,17.512 -13.709,27.719c-0.35,2.451 -0.55,4.102 -0.6,4.352c0,0.05 -0.05,0.1 -0.05,0.15c-0.05,0.051 -0.05,0.101 -0.05,0.151c0,0.049 -0.049,0.098 -0.05,0.147l-0.001,0.005c0,0.021 -0.009,0.042 -0.02,0.063l-0.009,0.019c-0.011,0.022 -0.021,0.044 -0.021,0.066c-0.021,0.022 -0.034,0.044 -0.045,0.065l-0.009,0.019c-0.011,0.022 -0.024,0.044 -0.046,0.066c-0.05,0.05 -0.05,0.05 -0.1,0.1c0,0.05 -0.05,0.1 -0.1,0.15c-0.05,0.05 -0.05,0.05 -0.1,0.1c-0.05,0.05 -0.1,0.05 -0.15,0.1c-0.05,0.05 -0.05,0.1 -0.1,0.1c-0.05,0.05 -0.1,0.05 -0.15,0.1c0,0 -0.05,0.05 -0.1,0.05c-0.05,0 -0.15,0.05 -0.2,0.05c-0.05,0.05 -0.05,0.05 -0.1,0.05c-0.1,0.05 -0.2,0.05 -0.301,0.05l-0.25,0c-0.049,0 -0.098,-0.048 -0.147,-0.05l-0.005,0c-0.049,-0.001 -0.099,-0.05 -0.148,-0.05c-0.05,0 -0.1,-0.05 -0.15,-0.05c-0.05,0 -0.1,0 -0.15,-0.05c-0.05,-0.05 -0.1,-0.05 -0.15,-0.1c-0.05,-0.05 -0.1,-0.05 -0.15,-0.1c0,0 -0.05,-0.05 -0.1,-0.1c-0.05,0 -0.05,-0.05 -0.1,-0.1c-0.05,-0.05 -0.05,-0.1 -0.1,-0.15c-0.05,-0.05 -0.101,-0.1 -0.101,-0.15c0,-0.049 -0.048,-0.099 -0.05,-0.148l0,-0.005c-0.001,-0.049 -0.05,-0.098 -0.05,-0.147c-0.05,-0.05 -0.05,-0.1 -0.05,-0.15c-0.05,-0.05 -0.05,-0.101 -0.05,-0.151l0,-0.35c0,-0.15 0.2,-1.701 0.551,-4.052c0.1,-0.851 0.2,-1.752 0.35,-2.752c-3.502,4.052 -9.056,8.755 -16.111,8.755c-4.603,0 -7.655,-2.701 -9.406,-6.354c-0.3,0.2 -0.65,0.401 -1,0.651c-3.353,2.251 -6.805,4.553 -10.157,6.954c-0.3,2.202 -0.6,4.403 -0.901,6.455c-3.402,23.265 -6.854,35.823 -15.059,35.823c-4.804,0 -8.006,-5.304 -8.006,-13.259c0,-13.058 9.557,-22.715 20.664,-30.92c0.15,-1.251 0.3,-2.452 0.45,-3.702c-2.401,2.801 -5.604,4.352 -9.156,4.352c-5.854,0 -9.906,-5.003 -10.307,-12.508c-3.652,5.304 -9.456,12.508 -14.559,12.508c-4.103,0 -5.754,-3.001 -6.454,-7.304c-3.353,4.102 -6.905,7.304 -9.957,7.304c-4.653,0 -6.104,-4.402 -6.554,-8.955c-2.202,4.803 -5.654,8.955 -10.957,8.955c-8.906,0 -8.906,-11.307 -8.756,-15.159c0,-8.306 1.401,-16.461 1.951,-19.513c-1.451,-0.701 -4.803,-2.002 -11.257,-2.452c-0.2,2.202 -0.4,4.553 -0.501,7.055c-0.95,19.413 -2.801,33.972 -5.703,44.329c4.052,1.301 7.905,2.702 11.557,4.052c9.607,3.503 18.663,6.855 28.769,6.855c17.261,0 21.864,-12.158 21.914,-12.258c0.351,-0.901 1.351,-1.401 2.252,-1.051c0.901,0.35 1.401,1.351 1.051,2.252c-0.2,0.6 -5.504,14.559 -25.217,14.559c-10.757,0 -20.063,-3.452 -29.969,-7.104c-3.653,-1.351 -7.405,-2.702 -11.408,-4.003c-2.502,7.505 -5.704,12.458 -9.656,15.11c-2.302,1.551 -4.803,2.301 -7.555,2.301c-1.701,0 -3.452,-0.3 -5.254,-0.85c-4.703,5.153 -10.857,7.655 -18.512,7.655c-7.355,0 -15.26,-5.804 -15.26,-14.46c0,-11.457 9.456,-18.312 25.317,-18.312c5.403,0 10.357,0.451 14.96,1.151c2.251,-11.808 3.002,-26.317 3.702,-40.426c0.1,-1.801 0.2,-3.553 0.35,-5.254c-5.503,1.401 -9.856,3.402 -13.008,5.204c-2.202,1.25 -4.003,2.501 -5.404,3.602c1.851,0.4 3.503,1.301 4.803,2.602c2.102,2.151 3.152,5.153 3.152,9.056c0,8.355 -8.405,14.909 -19.162,14.909c-12.008,0 -20.363,-8.355 -20.363,-20.313c0,-8.906 4.903,-15.51 11.507,-19.262c-2.201,-2.802 -3.402,-6.505 -3.402,-10.557c0,-8.256 5.704,-16.661 16.611,-16.661c7.305,0 12.608,5.203 12.608,12.358c0,5.203 -3.953,7.154 -4.103,7.255c-0.9,0.45 -1.951,0.05 -2.351,-0.801c-0.4,-0.901 -0.05,-1.951 0.8,-2.352c0.1,-0.05 2.152,-1.15 2.152,-4.102c0,-5.204 -3.753,-8.856 -9.106,-8.856c-6.304,0 -13.109,4.103 -13.109,13.159c0,3.102 0.951,6.504 3.202,9.005c3.052,-1.2 6.404,-1.851 9.707,-1.851c5.503,0 8.305,1.551 8.305,4.653c0,2.752 -3.302,4.353 -8.806,4.353c-3.902,0 -7.254,-1.051 -9.906,-3.052c-1.351,0.651 -2.652,1.501 -3.853,2.452c-3.102,2.501 -6.754,7.004 -6.754,14.259c0,10.057 6.804,16.811 16.861,16.811c8.606,0 15.66,-5.103 15.66,-11.407c0,-7.605 -4.753,-8.406 -6.804,-8.406c-1.001,0 -1.801,0.45 -1.801,0.45c-0.051,0 -0.101,0.05 -0.151,0.05c-0.05,0 -0.1,0.05 -0.15,0.05c-0.1,0.051 -0.15,0.101 -0.25,0.101c-0.05,0.05 -0.05,0.05 -0.1,0.05c-0.1,0.05 -0.2,0.05 -0.3,0.05l-0.4,0c-0.05,0 -0.1,-0.05 -0.15,-0.05c-0.05,0 -0.101,-0.05 -0.151,-0.05c-0.05,-0.05 -0.1,-0.05 -0.15,-0.101c0,0 -0.05,0 -0.1,-0.05c-0.05,0 -0.1,-0.05 -0.15,-0.1l-0.25,-0.25c-0.05,0 -0.05,-0.05 -0.1,-0.1c0,0 -0.05,0 -0.05,-0.05c0,-0.05 -0.05,-0.05 -0.05,-0.1c0,-0.05 -0.05,-0.1 -0.05,-0.15c0,-0.022 -0.01,-0.044 -0.02,-0.066l-0.01,-0.018c-0.011,-0.022 -0.02,-0.044 -0.02,-0.066c-0.05,-0.05 -0.05,-0.1 -0.05,-0.15c-0.05,-0.1 -0.05,-0.15 -0.05,-0.2l0,-0.501c0,-0.049 0.048,-0.098 0.05,-0.147l0,-0.005c0.001,-0.049 0.05,-0.099 0.05,-0.148c0,-0.05 0,-0.1 0.05,-0.15c0.05,-0.05 0.05,-0.1 0.1,-0.15c0.022,-0.022 0.034,-0.044 0.045,-0.066l0.01,-0.019c0.011,-0.021 0.023,-0.043 0.045,-0.065l0.05,-0.05c0.45,-0.501 8.756,-9.807 25.166,-13.559c3.103,-28.018 12.959,-33.622 13.409,-33.872c0.851,-0.451 1.901,-0.15 2.352,0.7c0.45,0.851 0.15,1.901 -0.701,2.352c-0.2,0.1 -8.505,5.353 -11.507,30.069c3.202,-0.55 6.654,-0.85 10.407,-0.85l1.651,0Zm87.807,47.881c-2.351,15.861 -5.353,32.822 -11.607,32.822c-2.552,0 -4.503,-4.203 -4.503,-9.757c0,-10.507 7.354,-18.812 16.56,-26.017c-0.15,0.951 -0.3,1.952 -0.45,2.952Zm-132.937,31.321c-4.903,0 -11.758,-3.803 -11.758,-10.957c0,-9.407 7.956,-14.81 21.815,-14.81c5.103,0 9.806,0.4 14.259,1.051c-0.4,1.801 -0.901,3.502 -1.401,5.153c-4.253,13.309 -11.507,19.563 -22.915,19.563Zm29.369,-8.556c-2.451,1.651 -5.253,2.101 -8.455,1.351c2.151,-3.102 3.952,-6.905 5.353,-11.407c0.551,-1.752 1.051,-3.653 1.501,-5.604c3.453,0.65 6.755,1.501 9.857,2.401c-2.052,6.154 -4.753,10.908 -8.256,13.259Zm-96.563,-11.407c0.15,0.8 0.901,1.401 1.701,1.401c0.1,0 0.25,0 0.351,-0.05l39.926,-8.506c0.95,-0.2 1.551,-1.151 1.351,-2.101c-0.201,-0.951 -1.151,-1.551 -2.102,-1.351l-39.926,8.505c-0.901,0.2 -1.501,1.151 -1.301,2.102Zm299.846,-8.956c-0.2,0.95 0.401,1.851 1.351,2.101l32.471,6.905c0.101,0.05 0.251,0.05 0.351,0.05c0.8,0 1.551,-0.551 1.701,-1.401c0.2,-0.951 -0.4,-1.851 -1.351,-2.102l-32.471,-6.904c-0.901,-0.2 -1.852,0.4 -2.052,1.351Zm-188.423,-39.676c-0.7,13.809 -2.001,30.82 -5.554,43.478c-3.202,-0.95 -6.604,-1.801 -10.156,-2.451c2.351,-12.008 3.052,-26.618 3.752,-40.827c0.1,-2.201 0.25,-4.253 0.451,-6.254c3.252,-0.601 6.854,-0.951 10.807,-0.951c0.45,0 0.85,0 1.25,0c-0.25,2.202 -0.45,4.503 -0.55,7.005Zm84.555,-3.553c6.555,0 7.255,6.905 7.255,9.857c0,18.262 -7.555,20.213 -10.807,20.213c-5.053,0 -6.854,-5.503 -6.854,-10.207c0,-12.408 3.902,-19.863 10.406,-19.863Zm32.372,0c4.202,0 5.053,2.402 5.053,4.403c0,5.754 -7.155,11.408 -15.76,17.262c-0.151,-0.901 -0.201,-1.802 -0.201,-2.502c0,-12.758 7.005,-19.163 10.908,-19.163Zm-197.68,14.06c0.951,0 1.751,0.8 1.751,1.751c0,1 -0.8,1.751 -1.751,1.751l-61.29,0c-0.95,0 -1.751,-0.801 -1.751,-1.751c0,-0.951 0.801,-1.751 1.751,-1.751l61.29,0Zm323.962,0c0.951,0 1.751,0.8 1.751,1.751c0,0.95 -0.8,1.751 -1.751,1.751l-43.028,0c-0.951,0 -1.751,-0.801 -1.751,-1.751c0,-0.951 0.8,-1.751 1.751,-1.751l43.028,0Zm-190.474,1.951c0,-34.623 7.805,-51.984 12.208,-51.984c2.801,0 4.252,2.902 4.252,8.556c0,8.405 -4.653,22.214 -12.158,36.073c-1.501,2.652 -2.901,5.154 -4.302,7.355l0,0Zm-93.311,-21.864c3.002,0 4.553,0.5 4.753,1c-0.401,0.301 -1.902,1.001 -5.254,1.001c-2.251,0 -4.152,-0.4 -5.754,-1.151c2.002,-0.55 4.153,-0.85 6.255,-0.85Zm-30.17,-6.004c0.2,-0.951 -0.4,-1.851 -1.351,-2.102l-29.169,-6.204c-0.951,-0.2 -1.851,0.401 -2.102,1.351c-0.2,0.951 0.401,1.851 1.351,2.102l29.169,6.204c0.101,0.05 0.251,0.05 0.351,0.05c0.85,-0.05 1.551,-0.601 1.751,-1.401Zm245.06,-6.304c4.003,-11.508 10.207,-17.362 18.562,-17.362c8.706,0 13.409,5.004 13.409,9.707c0,8.805 -10.807,12.758 -21.464,12.758c-4.003,0 -7.905,-0.35 -11.758,-1.001c0.351,-1.401 0.801,-2.752 1.251,-4.102Zm81.854,-7.805c-0.2,-0.951 -1.151,-1.552 -2.102,-1.351l-30.87,6.554c-0.951,0.2 -1.551,1.151 -1.351,2.101c0.2,0.801 0.901,1.401 1.701,1.401c0.1,0 0.251,0 0.351,-0.05l30.87,-6.554c1,-0.2 1.601,-1.151 1.401,-2.101Zm-372.244,-34.523l51.634,22.965c0.25,0.1 0.45,0.15 0.7,0.15c0.651,0 1.301,-0.4 1.601,-1.051c0.401,-0.9 0,-1.901 -0.9,-2.301l-51.634,-22.965c-0.901,-0.4 -1.901,0 -2.301,0.9c-0.401,0.901 0,1.952 0.9,2.302Zm252.515,20.463c0.351,0.451 0.901,0.701 1.401,0.701c0.351,0 0.701,-0.1 1.051,-0.35l64.492,-46.881c0.801,-0.55 0.951,-1.651 0.4,-2.452c-0.55,-0.8 -1.651,-0.95 -2.451,-0.4l-64.492,46.881c-0.801,0.65 -0.951,1.701 -0.401,2.501Zm-209.737,-38.525l51.884,37.725c0.3,0.25 0.651,0.35 1.051,0.35c0.55,0 1.05,-0.25 1.401,-0.7c0.55,-0.801 0.4,-1.902 -0.401,-2.452l-51.884,-37.775c-0.8,-0.55 -1.901,-0.4 -2.451,0.401c-0.55,0.8 -0.4,1.851 0.4,2.451Zm112.023,35.874c0.251,0.75 0.951,1.2 1.652,1.2c0.2,0 0.35,-0.05 0.55,-0.1c0.9,-0.3 1.401,-1.301 1.101,-2.201l-20.714,-63.842c-0.3,-0.9 -1.301,-1.401 -2.201,-1.101c-0.901,0.301 -1.401,1.301 -1.101,2.202l20.713,63.842Zm55.537,-1.551c0.3,0.15 0.6,0.25 0.85,0.25c0.601,0 1.201,-0.3 1.501,-0.901l27.318,-47.281c0.501,-0.85 0.2,-1.901 -0.65,-2.401c-0.851,-0.501 -1.901,-0.2 -2.402,0.65l-27.268,47.331c-0.5,0.801 -0.2,1.901 0.651,2.352Zm20.513,-1.251c0.35,0.3 0.751,0.45 1.151,0.45c0.5,0 0.951,-0.2 1.301,-0.6l51.684,-57.338c0.65,-0.7 0.6,-1.801 -0.15,-2.451c-0.701,-0.651 -1.802,-0.601 -2.452,0.15l-51.634,57.337c-0.65,0.701 -0.6,1.801 0.1,2.452Zm-34.723,-1.601c0.201,0.05 0.351,0.1 0.551,0.1c0.75,0 1.401,-0.451 1.651,-1.201l29.219,-89.959c0.3,-0.9 -0.2,-1.901 -1.101,-2.201c-0.9,-0.301 -1.901,0.2 -2.201,1.1l-29.219,89.959c-0.35,0.901 0.15,1.901 1.1,2.202Zm128.585,-1.701c0.25,0 0.5,-0.05 0.7,-0.151l17.512,-7.805c0.9,-0.4 1.3,-1.451 0.9,-2.301c-0.4,-0.851 -1.451,-1.301 -2.301,-0.901l-17.512,7.805c-0.9,0.401 -1.301,1.451 -0.9,2.302c0.3,0.65 0.9,1.051 1.601,1.051Zm-155.902,-0.801l-0.201,0c-0.9,0 -1.651,-0.65 -1.751,-1.551l-7.955,-75.9c-0.1,-0.95 0.601,-1.801 1.551,-1.901c0.951,-0.1 1.801,0.601 1.901,1.551l8.006,75.9c0.1,0.95 -0.601,1.801 -1.551,1.901Zm-35.324,-4.153c0.301,0.551 0.901,0.901 1.501,0.901c0.301,0 0.601,-0.1 0.851,-0.25c0.851,-0.501 1.101,-1.551 0.65,-2.402l-39.976,-69.295c-0.5,-0.851 -1.551,-1.101 -2.401,-0.651c-0.851,0.501 -1.101,1.551 -0.651,2.402l40.026,69.295Zm-22.714,0.1c0.35,0.401 0.8,0.601 1.3,0.601c0.401,0 0.851,-0.15 1.151,-0.45c0.701,-0.651 0.801,-1.752 0.15,-2.452l-65.092,-72.297c-0.651,-0.701 -1.751,-0.801 -2.452,-0.15c-0.7,0.65 -0.8,1.751 -0.15,2.451l65.093,72.297Zm72.397,0.201l-0.2,0c-1.001,-0.101 -1.701,-0.951 -1.551,-1.902l10.307,-98.214c0.1,-0.951 0.95,-1.651 1.901,-1.551c0.95,0.1 1.651,0.951 1.551,1.901l-10.257,98.215c-0.1,0.9 -0.85,1.551 -1.751,1.551Z"/></svg>