<?xml version="1.0" encoding="UTF-8" standalone="no"?><!DOCTYPE svg PUBLIC "-//W3C//DTD SVG 1.1//EN" "http://www.w3.org/Graphics/SVG/1.1/DTD/svg11.dtd"><svg width="100%" height="100%" viewBox="0 0 500 258" version="1.1" xmlns="http://www.w3.org/2000/svg" xmlns:xlink="http://www.w3.org/1999/xlink" xml:space="preserve" style="fill-rule:evenodd;clip-rule:evenodd;stroke-linejoin:round;stroke-miterlimit:1.41421;"><rect id="formication" x="0" y="0.896" width="500" height="256.791" style="fill:none;"/><path d="M299.384,144.76c2.609,-32.956 14.608,-59.303 14.608,-60.998c0,-2.478 -8.999,-4.739 -9.825,-3.87c-4.696,4.696 -10.261,26.782 -13.695,49.694c-7.391,15.304 -18,34.912 -18,35.564c0,0.783 2,3.261 2.652,3.261c2.348,-1.218 7.522,-3.739 12.087,-5.739c-0.826,24.303 1.782,45.737 2.348,46.737c1.043,1.87 9.478,0.566 10.217,-1.391c0.478,-1.217 -3.044,-30.303 -0.392,-63.258Zm71.693,-3.348c-1.521,0 -7.608,0.913 -7.608,2.434c0,4.435 5.348,8.087 5.348,13.087c0,19.651 -11.435,41.259 -12.348,41.259c-0.913,0 -2.434,-7.782 -2.434,-21.303c0,-34.869 18.434,-74.302 18.129,-75.519c-0.304,-1.218 -4.521,-3.522 -5.043,-3.044c-4.869,4.87 -22.825,49.042 -22.825,85.563c0,12.477 5.652,21.303 11.869,21.303c9.913,0 20.869,-28.608 20.869,-52.389c-0.044,-7.435 -4.131,-11.391 -5.957,-11.391Zm-150.472,-51.52c0.13,-0.652 1.173,-4.217 0.826,-4.522c-0.739,-0.782 -9.391,-0.652 -10.261,0.218c-0.304,0.304 -0.391,2.695 -0.609,3.695c-0.913,4.783 -6.173,29.217 -8.956,55.259c-0.174,1.783 -0.348,3.609 -0.521,5.391c-5.261,6.478 -11.957,18.956 -15.304,27.651c-3,-9.999 -4.522,-22.39 -5.131,-37.129c-0.043,-0.565 -0.13,-1.13 -0.304,-1.695c0.304,-2 0.478,-3.913 0.478,-5.739c0,-1.435 -6.825,-1.652 -7.043,-0.435c-0.217,1.348 -0.435,2.739 -0.695,4.087c-1.609,0.565 -3.087,1.261 -3.435,2c0.782,0.521 1.217,2.652 1.565,5.826c-5.956,21.347 -17.869,38.955 -17.869,39.824c0,1 3.174,4.652 3.609,4.652c1.565,0 9.565,-12.26 15.869,-26.52c0.434,3.478 0.956,7.043 1.739,10.39c2.956,12.652 8.999,22.695 11.521,22.695c2.609,0 6.087,-1.434 6.087,-3.347c-0.87,-1.392 -1.696,-2.826 -2.478,-4.348c0.695,-8.782 5.869,-19.217 10.521,-27.043c-1.348,20 -1.13,36.26 -1.13,36.912c0,4 1.652,5.652 2.565,6.304c1.261,0.87 6.478,1.652 7.999,0.131c0.653,-0.652 0.783,-2.305 0.783,-4.696c0,-5.695 -0.652,-29.868 1.956,-54.78c2.783,-26.043 7.261,-49.303 8.218,-54.781Zm229.252,-33.173c0,-1 -7.26,-2.826 -8.217,-1.869c-1.522,1.521 -17.434,28.042 -25.651,58.128c-4.391,16.086 -7.348,31.608 -9.174,43.172c-4.565,-21.39 -5.913,-39.65 -9.391,-41.302c-0.826,-0.392 -7.913,-1.392 -9.173,0.043c-0.087,0.087 -0.087,0.261 0,0.348c0.304,0.304 0.608,0.869 0.869,1.652c-0.217,1.261 -0.478,2.956 -0.869,4.652c-1.913,7.956 -4.522,28.347 -6.261,41.477c-2.391,18.303 -3.304,36.694 -2.869,37.607c0.434,0.913 2.695,1.783 5.043,1.783c2.13,0 3.608,-0.435 3.608,-1.696c0,-0.652 -0.087,-15.304 2.131,-34.564c0.869,-7.565 2.174,-17.217 3.434,-25.869c0.566,3.392 1.218,6.783 1.957,10c2.956,12.652 9.304,34.607 11.826,34.607c3.173,0 6.434,-2.043 6.434,-3.912c-0.522,-1.435 -1,-2.87 -1.435,-4.305c1.218,-10.695 4.435,-36.65 11.522,-60.997c9.13,-31.651 26.216,-58.433 26.216,-58.955Zm-326.597,41.477c-2.478,0 -5.347,0.739 -5.347,1.739c0,1.609 11.304,11.869 11.304,27.695c0,23.173 -20.434,53.606 -20.434,53.606c0,0 -0.74,-3.608 -0.74,-7.086c0,-16.087 10.435,-49.998 10.87,-50.433c0.434,-0.435 1,-0.305 1,-1.739c0,-2.044 -4.652,-2.739 -7.957,-2.739c-1.913,0 -13.477,5.391 -24.216,10.608c0.391,-1.956 0.782,-3.826 1.174,-5.608c2.434,-11.304 7.086,-31.173 9.912,-44.129c23.173,-12.13 48.912,-23.913 59.346,-23.913c0,1.305 -3.913,8.391 -3.913,8.391c0,0 1,1.435 2.044,1.435c3.347,0 15.651,-7.391 15.651,-11.434c0,-4.043 -4.913,-6.826 -9.13,-6.826c-13.912,0 -38.607,9.217 -61.693,20.347c0.043,-0.348 0,-0.565 -0.044,-0.609c-0.869,-0.869 -6.478,-3.478 -9,-3.478c-0.26,0.131 -1.304,4.044 -2.739,10c-17.651,9.174 -32.868,18.782 -39.346,25.043c-0.869,0.826 2.391,7.564 4,7.564c0.565,0 0.869,-0.347 1.565,-1c2.609,-2.478 15.173,-10.173 30.825,-18.825c-3.348,14.695 -7.261,32.695 -9.217,41.868c-0.478,2.217 -1,4.652 -1.522,7.174c-2.869,1.435 -5.13,2.565 -6.304,3.217c-6,3.13 -12.434,6.652 -12.434,7.348c0,1.608 5.261,5.478 6,5.478c0.739,0 0.782,-0.305 1.043,-0.783c0.304,-0.565 4.217,-2.913 9.652,-5.913c-5.13,24.043 -11.391,53.564 -11.087,54.433c0.652,1.783 8.609,3 10.826,2.478c0.87,-0.217 0.217,-3.217 3.478,-18.26c1.261,-5.826 5.217,-26.521 9.043,-45.216c10.869,-5.652 22.043,-11.043 23.869,-11.043c0,0 -9.261,27.999 -9.261,44.042c0,6.522 0.783,12.261 1.348,13.695c0.565,1.435 4.391,5.304 8.348,5.304c9.13,0 27.955,-41.868 27.955,-66.084c0,-14.782 -9.217,-24.434 -9.999,-25.217c-0.739,-0.782 -2.435,-1.13 -4.87,-1.13Zm214.253,36.346c-0.347,0.348 -0.869,1.435 -0.869,1.435c-4.304,1.218 -8.956,2.913 -13.434,5.087c-0.305,0.13 -0.609,0.304 -0.913,0.435c2.13,-12.043 4.347,-22.217 4.347,-22.826c0,-1.826 -7.434,-3.782 -8.043,-3.173c-0.565,0.565 -0.739,3.652 -1.478,6.782c-1.391,5.826 -3.348,14.913 -4.957,24.521c-4.347,2.391 -7.521,4.348 -7.521,4.608c0,1.131 2.261,4.218 4.217,4.218c0.739,-0.566 1.435,-1.087 2.174,-1.609c-0.174,1.217 -0.348,2.391 -0.478,3.609c-2.391,18.303 -1.261,37.085 -0.783,37.998c0.435,0.913 2.174,2.609 4.565,2.609c2.131,0 3.652,-1.609 3.652,-2.826c0,-0.652 -0.695,-15.26 1.479,-34.477c0.478,-4.217 1.13,-8.739 1.869,-13.174c7.565,-3.956 13.478,-5.739 13.478,-5.739c0,0 -7.435,27.391 -7.435,53.259c0,3.957 1.131,6 4.087,6c1.826,0 3.696,-1.261 3.696,-3.087c0,-1.913 1.304,-16.912 3.782,-31.781c2.696,-16 7.609,-27.912 7.609,-28.608c-0.087,-1.782 -8.305,-4.043 -9.044,-3.261Zm-185.555,6.738c11.591,-21.064 32.233,-51.761 35.778,-55.475c0,0 0.652,-3.521 1.304,-4.174c0.653,-0.652 8.913,0.218 9.652,0.957c0.479,0.478 -3.956,16.391 -6.652,27.738c-1.478,6.261 -1.217,8.695 -1.913,11.26c-0.217,0.783 -1.521,3.261 -2.26,3.261c-0.739,0 -5,-2.261 -5,-10.347c0,-5.217 1.521,-13.913 1.521,-13.913c-13.134,16.92 -32.172,52.341 -39.547,77.716c-0.094,0.521 -0.187,1.036 -0.277,1.542c-1.783,10.043 -1.565,17.087 -1.565,17.434c0,1.435 -1.652,2.174 -3.87,2.174c-2.217,0 -4.347,-1.695 -4.956,-3.13c-0.261,-0.609 -0.044,-16.782 3.956,-35.521c4,-18.695 10.043,-40.694 12.087,-51.693c0.869,-4.739 0.348,-7.565 0.608,-7.826c0.87,-0.87 7.392,0.174 8.348,1.087c0.419,0.419 -3.203,18.583 -7.214,38.91Zm112.558,5.827c0,1.826 1.826,4.565 4.739,4.565c1.217,0 2.869,-0.739 3.609,-1.478c0.26,-0.261 1.956,-8.913 4.825,-19.564c2.435,-8.957 6.044,-19.565 8,-27.826c2,-8.391 3.565,-14.303 3.13,-14.782c-1.217,-1.217 -7.391,-3.521 -7.782,-3.13c-0.478,0.478 -0.435,1.565 -1,3.652c-1.565,5.565 -4.782,17.217 -8.086,28.173c-3.826,-1.652 -8.261,-4.391 -8.957,-4.391c-5.869,0 -24.129,35.781 -24.129,59.824c0,8.869 1.478,17.13 2.217,18.738c0.739,1.609 4,5.478 9.348,5.478c4.391,0 17.564,-16.869 17.564,-23.26c0,-0.869 -1.782,-4 -2.913,-2.913c0,1.913 -12.217,16.391 -14.304,16.391c-0.608,0 -1.565,-7.652 -1.565,-14.043c0,-25.695 14.391,-51.085 17.652,-51.085c0.913,0 2.13,0.391 3.347,0.956c-0.26,0.87 -0.521,1.74 -0.826,2.566c-3.608,11.26 -4.869,21.434 -4.869,22.129Zm-35.129,-26.39c-4.696,4.695 -10.565,56.737 -10.565,65.345c0,2.218 2.348,4.218 4.696,4.218c2.478,0 5.217,-1.131 5.217,-3.044c0,-0.478 -0.044,-8.739 1.521,-19.26c2.826,-19.043 8.044,-45.433 7.391,-46.085c-1.043,-1.044 -7.434,-2.044 -8.26,-1.174Zm52.476,40.607c0,0 2.913,-5.217 6.13,-11.347c-0.043,0.478 -0.087,0.956 -0.13,1.391c-0.217,2.652 -0.391,5.261 -0.522,7.913l-5.478,2.043Zm61.172,-36.216c1.739,0 2.782,-0.609 3.739,-2c1,-1.435 1.304,-5.913 3.174,-11.782c2.304,-7.217 6.391,-15.739 7.695,-19.912c0.913,-2.913 1.261,-5.783 0.783,-6.261c-0.957,-0.957 -8.957,-1.826 -9.565,-1.217c-0.522,0.521 -0.174,1.869 -0.174,2.565c0,0.695 -7.913,22.303 -7.913,32.216c0,2.782 1.304,6.391 2.261,6.391Zm-93.866,-49.216c-0.957,-0.956 -8.435,-2.086 -9.043,-1.478c-0.218,0.218 -0.261,1.087 -0.261,1.783c0,0.695 -7.391,22.955 -7.391,28.303c0,2.739 1.652,6.13 2.652,6.13c0.956,0 1.652,-0.348 3.174,-1.826c1.652,-1.652 4.391,-8.478 6.999,-16.303c2.696,-8.044 4.348,-16.13 3.87,-16.609Z"/></svg>