<?xml version="1.0" encoding="UTF-8" standalone="no"?><!DOCTYPE svg PUBLIC "-//W3C//DTD SVG 1.1//EN" "http://www.w3.org/Graphics/SVG/1.1/DTD/svg11.dtd"><svg width="100%" height="100%" viewBox="0 0 500 308" version="1.1" xmlns="http://www.w3.org/2000/svg" xmlns:xlink="http://www.w3.org/1999/xlink" xml:space="preserve" style="fill-rule:evenodd;clip-rule:evenodd;stroke-linejoin:round;stroke-miterlimit:1.41421;"><rect id="glitterati" x="0" y="0.277" width="500" height="307.396" style="fill:none;"/><path d="M449.583,62.983c-0.497,-0.497 -9.084,-0.923 -22.78,-1.278c2.413,-4.967 3.903,-8.232 3.903,-9.651c0,-2.981 -8.587,-8.516 -13.483,-8.516c-2.129,0 -6.174,7.168 -10.858,17.813c-26.258,-0.355 -61.173,-0.497 -95.379,-0.497c-17.315,0 -34.418,0.071 -50.172,0.213c2.199,-4.329 3.548,-7.168 3.548,-8.303c0,-2.981 -9.297,-9.226 -14.193,-9.226c-1.775,0 -5.465,6.955 -9.936,17.671c-2.554,0 -5.038,0.071 -7.451,0.071c2.413,-4.897 3.832,-7.736 3.832,-8.587c0,-2.981 -9.296,-9.226 -14.193,-9.226c-1.774,0 -5.393,7.168 -9.864,18.096c-16.181,0.355 -26.4,0.781 -26.896,1.278c-2.626,2.626 -5.465,11.993 -5.465,14.051c0,1.49 11.71,5.535 14.761,5.535c0.923,0 2.555,-2.625 3.974,-5.535c2.413,0 5.039,0 7.806,-0.071c-9.722,26.967 -20.864,63.657 -24.767,84.095c-4.612,5.393 -10.077,11.212 -11.851,11.212c0,-6.316 2.91,-22.07 8.8,-41.515c7.309,-23.915 12.703,-35.838 12.703,-38.463c0,-2.342 -10.29,-6.529 -14.052,-6.529c-3.193,0 -19.089,52.799 -23.276,80.262c-4.613,4.897 -9.936,10.078 -11.71,10.078c0,-6.316 7.452,-39.316 18.806,-75.65c16.18,-51.663 25.761,-71.889 25.761,-74.373c0,-2.98 -11.213,-10.006 -16.18,-10.006c-5.465,0 -30.8,90.198 -41.019,138.1c-3.69,3.336 -8.445,7.522 -13.341,11.851c10.503,-47.263 18.522,-69.475 18.522,-73.024c0,-3.193 -12.206,-7.238 -15.471,-7.238c-1.419,0 -3.193,3.974 -5.109,10.645c-6.245,-4.826 -14.903,-10.645 -20.226,-10.645c-6.67,0.142 -22.283,73.734 -22.283,98.572c0,2.838 10.787,11.07 18.167,11.07c0.568,0 2.768,-1.632 5.89,-4.187c-0.638,3.974 -1.348,7.807 -1.916,11.497c-19.586,3.051 -31.934,5.18 -32.786,5.677c-4.968,2.981 -11.354,12.49 -11.354,15.116c0,2.98 31.579,44.07 35.341,44.07c3.335,0 12.419,-7.665 13.909,-11.639c0.993,-2.625 2.768,-16.038 7.309,-40.379c89.914,-9.439 308.632,-29.096 310.264,-30.729c2.98,-2.98 9.935,-29.167 6.812,-29.167c-7.167,0 -217.226,29.877 -314.166,44.709c1.419,-7.239 3.052,-15.116 4.897,-23.774c4.825,-4.329 9.651,-8.728 13.625,-12.419c-1.419,7.523 -2.271,13.342 -2.271,16.535c0,2.555 10.361,7.168 14.052,7.168c1.419,0 7.948,-6.671 13.483,-12.632c0,0.568 -0.071,1.064 -0.071,1.632c0,2.484 10.503,7.026 14.122,7.026c1.349,0 7.665,-6.955 13.129,-13.2c-0.071,0.781 -0.071,1.49 -0.071,2.129c0,2.555 10.432,7.097 14.122,7.097c1.42,0 8.374,-7.168 14.052,-13.2c-0.071,0.71 -0.071,1.348 -0.071,1.987c0,2.555 10.432,7.097 14.122,7.097c1.49,0 8.871,-7.31 14.619,-13.2c-0.071,0.71 -0.071,1.348 -0.071,1.916c0,2.484 10.503,7.026 14.122,7.026c1.348,0 13.342,-11.993 23.774,-22.709c-0.781,4.116 -1.278,7.593 -1.278,10.148c0,2.342 11.426,7.096 14.903,7.096c1.207,0 1.845,-12.773 9.368,-38.25c0.709,-2.484 1.419,-4.755 2.129,-6.884c6.67,-7.948 16.748,-19.729 18.096,-19.729c0,3.265 -9.155,23.774 -9.155,26.4c0,2.2 8.729,10.219 11.071,10.219c2.058,0 16.464,-40.664 16.464,-44.496c0,-2.484 -9.509,-7.096 -13.129,-7.096c-1.419,0 -10.786,11.07 -18.451,20.509c3.265,-8.871 5.039,-12.206 5.039,-13.839c0,-1.916 -9.581,-6.67 -13.838,-6.67c-1.988,0 -12.845,29.663 -18.665,52.231c-9.864,10.077 -21.715,21.786 -23.56,21.786c0,-3.406 1.135,-10.787 3.974,-21.999c9.935,-7.452 25.69,-21.503 25.69,-36.193c0,-6.103 -15.684,-15.471 -22.497,-15.754c-0.142,0 -0.284,0 -0.355,0c-5.748,0 -18.451,43.573 -22.354,67.346c-4.825,4.897 -11.141,10.929 -13.058,10.929c0,-6.316 2.697,-20.367 14.194,-54.147c4.683,-13.696 9.651,-25.122 13.909,-34.064c17.954,-0.496 37.754,-0.922 57.553,-0.922c32.148,0 64.367,0.993 89.134,1.632c-7.381,19.232 -14.69,42.438 -17.245,57.128c-4.684,3.761 -10.929,8.658 -12.348,8.658c0,-3.904 1.277,-12.207 5.748,-24.839c4.968,-14.051 10.077,-23.844 10.077,-25.76c0,-2.271 -10.29,-5.961 -14.548,-5.961c-0.78,0 -2.767,3.903 -5.109,9.722c-1.987,-1.916 -4.4,-3.761 -6.742,-5.322c-0.852,-0.568 -1.845,-1.207 -2.91,-1.775c-2.696,-1.49 -5.251,-2.483 -7.167,-2.625c-0.142,0 -0.284,0 -0.497,0c-6.813,0 -21.503,47.831 -21.503,64.295c0,2.484 10.574,7.593 14.194,7.593c1.277,0 7.38,-4.329 12.986,-8.445c3.478,2.2 10.503,4.542 13.058,4.542c0.994,0 8.303,-6.316 13.838,-11.142c0.213,2.626 10.432,7.026 14.123,7.026c1.419,0 8.445,-6.884 14.122,-12.703c-0.071,0.71 -0.071,1.348 -0.071,1.987c0,2.342 11.567,6.316 15.045,6.316c1.632,0 12.277,-7.948 14.335,-11.567c0.639,-1.136 -0.426,-6.245 -1.703,-6.245c-0.639,0 -9.013,7.735 -11.355,7.735c0,-1.987 0.781,-7.593 5.11,-21.432c4.4,-14.122 7.735,-19.374 7.735,-21.29c0,-2.27 -9.935,-6.67 -14.193,-6.67c-1.491,0 -10.148,24.27 -13.555,41.728c-4.754,4.825 -10.787,10.574 -12.703,10.574c0,-6.316 3.336,-20.439 12.916,-43.645c2.697,-6.528 5.323,-12.348 7.735,-17.457c3.62,0.071 6.884,0.071 9.865,0.071c1.987,1.845 11.851,4.542 14.264,4.542c2.909,-0.426 7.806,-17.032 5.819,-19.019Zm-363.275,181.105c-2.555,0 -17.67,-21.077 -17.67,-23.916c0,-0.425 8.587,-1.561 23.064,-3.193c-2.697,16.18 -4.755,27.109 -5.394,27.109Zm2.91,-56.205c-3.619,0 11.922,-86.579 18.664,-86.579c0.709,0 2.626,1.207 4.755,2.626c-4.684,18.877 -10.078,49.463 -14.832,77.211c-4.755,4.045 -8.161,6.742 -8.587,6.742Zm188.273,-84.734c0,8.587 -8.871,17.458 -16.394,23.561c0.284,-1.064 0.639,-2.058 0.923,-3.193c3.477,-11.639 7.238,-20.155 9.438,-25.477c3.265,1.703 6.033,3.548 6.033,5.109Zm-67.489,53.864c-4.826,5.109 -10.858,11.212 -12.774,11.212c0,-6.316 2.626,-20.225 14.69,-56.347c4.755,-14.335 9.58,-26.115 13.625,-35.27c2.839,-0.071 5.749,-0.142 8.729,-0.213c-9.58,25.832 -20.367,60.747 -24.27,80.618Zm140.158,-36.832c2.838,-8.728 6.458,-15.896 8.941,-20.935c1.846,1.136 3.62,2.342 4.897,3.478c-4.329,12.135 -9.084,28.244 -10.503,38.889c-3.832,2.555 -7.522,4.684 -8.871,4.684c0,-4.684 0.355,-10.432 5.536,-26.116Z" style="fill-rule:nonzero;"/></svg>