<?xml version="1.0" encoding="UTF-8" standalone="no"?><!DOCTYPE svg PUBLIC "-//W3C//DTD SVG 1.1//EN" "http://www.w3.org/Graphics/SVG/1.1/DTD/svg11.dtd"><svg width="100%" height="100%" viewBox="0 0 500 445" version="1.1" xmlns="http://www.w3.org/2000/svg" xmlns:xlink="http://www.w3.org/1999/xlink" xml:space="preserve" style="fill-rule:evenodd;clip-rule:evenodd;stroke-linejoin:round;stroke-miterlimit:1.41421;"><rect id="l" x="0" y="0" width="500" height="444.873" style="fill:none;"/><path d="M204.45,374.237l0.005,-0.001c0.478,0.001 0.956,0.003 1.434,0.006c3.607,0.036 7.21,0.175 10.809,0.421c5.396,0.369 10.776,0.971 16.128,1.749c4.818,0.7 9.615,1.544 14.393,2.477c3.766,0.735 7.519,1.528 11.27,2.337c3.591,0.78 7.18,1.573 10.771,2.355c5.307,1.149 10.621,2.273 15.973,3.189c4.384,0.751 8.796,1.365 13.233,1.7c1.727,0.13 3.458,0.217 5.19,0.251c1.061,0.02 2.122,0.019 3.183,0.006c1.781,-0.022 3.56,-0.083 5.338,-0.18l0.273,-0.016c0,-14.465 -0.049,-28.93 0.002,-43.394c0.003,-0.396 0.007,-0.792 0.012,-1.188c0.033,-2.329 0.144,-4.659 0.329,-6.982c0.206,-2.591 0.503,-5.176 0.903,-7.745c0.851,-5.464 2.148,-10.863 3.93,-16.1c1.626,-4.775 3.645,-9.416 6.059,-13.846c2.93,-5.376 6.44,-10.437 10.477,-15.041c2.617,-2.983 5.459,-5.773 8.506,-8.316c2.745,-2.291 5.658,-4.384 8.731,-6.214c2.38,-1.417 4.858,-2.678 7.427,-3.715c1.701,-0.687 3.443,-1.277 5.221,-1.731c0.58,-0.149 1.165,-0.282 1.753,-0.398c0.246,-0.049 0.493,-0.095 0.74,-0.137c0.076,-0.014 0.151,-0.03 0.228,-0.039c0.155,-0.019 0.31,-0.031 0.465,-0.047c0.156,0.006 0.312,0.011 0.468,0.016c0.153,0.026 0.309,0.042 0.46,0.078c0.304,0.072 0.597,0.185 0.871,0.335c0.826,0.453 1.445,1.236 1.693,2.145c0.111,0.402 0.097,0.511 0.125,0.924l0,98.7c-0.008,0.138 -0.008,0.277 -0.025,0.414c-0.033,0.275 -0.098,0.545 -0.194,0.805c-0.097,0.26 -0.224,0.507 -0.378,0.737c-0.152,0.225 -0.34,0.432 -0.517,0.636c-0.271,0.314 -0.544,0.626 -0.819,0.937c-0.842,0.953 -1.699,1.894 -2.574,2.816c-2.444,2.573 -5.033,5.012 -7.799,7.237c-2.513,2.023 -5.164,3.876 -7.939,5.523c-2.729,1.62 -5.572,3.046 -8.5,4.27c-2.953,1.235 -5.987,2.27 -9.072,3.119c-6.295,1.734 -12.784,2.703 -19.294,3.134c-2.131,0.141 -4.266,0.224 -6.401,0.257c-1.389,0.021 -2.778,0.023 -4.166,-0.009c-2.216,-0.052 -4.43,-0.183 -6.638,-0.377c-6.403,-0.562 -12.752,-1.638 -19.054,-2.883c-3.75,-0.741 -7.488,-1.545 -11.222,-2.361c-2.564,-0.56 -5.127,-1.125 -7.69,-1.685c-1.304,-0.283 -2.608,-0.565 -3.913,-0.845c-3.46,-0.736 -6.924,-1.452 -10.399,-2.114c-4.832,-0.921 -9.683,-1.743 -14.557,-2.406c-5.215,-0.71 -10.454,-1.239 -15.709,-1.533c-3.177,-0.179 -6.357,-0.267 -9.539,-0.272c-0.088,0.001 -0.177,0.001 -0.273,0.001c-0.242,0.002 -0.306,0.003 -0.549,0.007c-0.278,0.006 -0.555,0.013 -0.833,0.022c-0.759,0.029 -1.518,0.071 -2.276,0.131c-2.742,0.214 -5.468,0.623 -8.167,1.155c-3.25,0.642 -6.464,1.464 -9.64,2.407c-4.532,1.347 -8.991,2.942 -13.376,4.708c-4.187,1.686 -8.311,3.531 -12.365,5.516c-2.254,1.104 -4.488,2.252 -6.695,3.447c-2.144,1.161 -4.265,2.366 -6.351,3.628c-1.625,0.984 -3.231,2.002 -4.8,3.073c-1.367,0.933 -2.711,1.906 -3.978,2.973l-0.101,0.087l-0.108,0.093l-0.241,0.191c-0.086,0.056 -0.169,0.116 -0.257,0.168c-0.352,0.21 -0.741,0.357 -1.144,0.433c-0.302,0.057 -0.612,0.074 -0.918,0.05c-0.307,-0.024 -0.61,-0.088 -0.9,-0.191c-0.874,-0.311 -1.602,-0.971 -1.997,-1.81c-0.174,-0.372 -0.283,-0.773 -0.318,-1.182c-0.009,-0.102 -0.009,-0.204 -0.014,-0.307l0,-13.6c0.005,-0.102 0.005,-0.204 0.013,-0.306c0.018,-0.203 0.054,-0.405 0.107,-0.602c0.213,-0.793 0.708,-1.497 1.382,-1.965c0.168,-0.117 0.346,-0.219 0.531,-0.304c0.093,-0.043 0.189,-0.078 0.284,-0.117c0.469,-0.168 0.94,-0.332 1.412,-0.496c5.081,-1.749 10.217,-3.338 15.385,-4.81c6.687,-1.906 13.433,-3.608 20.235,-5.051c5.646,-1.199 11.333,-2.218 17.054,-2.98c4.853,-0.646 9.734,-1.108 14.627,-1.288c1.295,-0.048 2.589,-0.073 3.884,-0.08l0.38,-0.001l0.006,0.001Zm121.2,-62.66c-0.497,1.256 -0.962,2.523 -1.397,3.801c-0.753,2.212 -1.41,4.457 -1.981,6.723c-1.319,5.227 -2.146,10.578 -2.543,15.952c-0.14,1.904 -0.228,3.812 -0.261,5.72c-0.012,0.657 -0.016,1.313 -0.018,1.97l0,42.146c2.076,-0.262 4.146,-0.593 6.2,-1.002l0,-75.31Zm9.6,-17.511c-2.492,3.414 -4.698,7.038 -6.6,10.813l0,81.352c2.228,-0.532 4.433,-1.163 6.6,-1.903l0,-90.262Zm9.7,-10.852c-0.707,0.645 -1.401,1.305 -2.081,1.978c-1.619,1.604 -3.159,3.284 -4.619,5.032l0,92.999c2.006,-0.794 3.973,-1.687 5.885,-2.686c0.273,-0.143 0.544,-0.287 0.815,-0.434l0,-96.889Zm9.6,-7.236c-0.443,0.27 -0.882,0.545 -1.317,0.827c-1.828,1.181 -3.59,2.464 -5.283,3.832l0,97.728c1.171,-0.724 2.317,-1.488 3.435,-2.291c1.081,-0.777 2.136,-1.589 3.165,-2.432l0,-97.664Zm3,95.054c0.186,-0.171 0.371,-0.343 0.555,-0.516c2.014,-1.899 3.916,-3.911 5.745,-5.988l0,-92.925c-0.059,0.019 -0.117,0.038 -0.176,0.057c-0.519,0.174 -1.034,0.356 -1.546,0.552c-1.565,0.6 -3.091,1.297 -4.578,2.071l0,96.749Zm-100.675,-335.371l1.335,0.703l0.915,1.199l0.325,1.473c0,82.901 0.389,165.803 -0.002,248.702c-0.007,1.086 -0.026,2.171 -0.063,3.256c-0.081,2.393 -0.242,4.784 -0.481,7.167c-0.587,5.847 -1.675,11.647 -3.295,17.297c-1.764,6.154 -4.166,12.13 -7.204,17.767c-2.916,5.41 -6.411,10.51 -10.443,15.15c-2.126,2.447 -4.401,4.768 -6.817,6.93c-2.565,2.296 -5.285,4.419 -8.158,6.317c-2.061,1.362 -4.2,2.607 -6.414,3.705c-1.497,0.742 -3.03,1.414 -4.596,1.999c-1.6,0.598 -3.236,1.105 -4.902,1.484c-0.649,0.147 -1.303,0.273 -1.96,0.38l-1.502,-0.081l-1.329,-0.705l-0.911,-1.198l-0.323,-1.47c0,-82.997 -0.39,-165.995 0.002,-248.991c0.029,-4.127 0.27,-8.253 0.768,-12.35c0.678,-5.592 1.817,-11.127 3.448,-16.519c1.881,-6.214 4.43,-12.234 7.63,-17.884c4.327,-7.639 9.839,-14.623 16.387,-20.481c2.484,-2.222 5.116,-4.28 7.888,-6.131c2.239,-1.494 4.569,-2.854 6.988,-4.035c1.667,-0.813 3.375,-1.543 5.124,-2.161c1.431,-0.505 2.889,-0.936 4.37,-1.266c0.568,-0.127 1.139,-0.236 1.713,-0.333c0.502,0.025 1.004,0.051 1.507,0.076Zm-42.625,47.707c-1.138,2.872 -2.114,5.809 -2.931,8.789c-1.546,5.639 -2.511,11.432 -2.964,17.259c-0.205,2.64 -0.299,5.286 -0.305,7.934l0,243.934c2.136,-0.697 4.205,-1.59 6.2,-2.625l0,-275.291Zm9.7,-17.596c-2.532,3.444 -4.772,7.105 -6.7,10.919l0,280.28c0.125,-0.076 0.251,-0.152 0.375,-0.229c2.203,-1.359 4.313,-2.867 6.325,-4.497l0,-286.473Zm9.6,-10.682c-0.805,0.732 -1.593,1.484 -2.363,2.253c-1.479,1.476 -2.892,3.017 -4.237,4.616l0,287.704c0.78,-0.712 1.542,-1.442 2.288,-2.188c1.507,-1.507 2.945,-3.081 4.312,-4.714l0,-287.671Zm9.6,-7.219c-0.279,0.169 -0.557,0.341 -0.833,0.515c-2.001,1.262 -3.925,2.646 -5.767,4.132l0,286.411c2.488,-3.398 4.693,-7.005 6.6,-10.761l0,-280.297Zm3,273.656c1.16,-2.91 2.154,-5.887 2.986,-8.906c1.365,-4.96 2.289,-10.042 2.803,-15.16c0.224,-2.228 0.375,-4.464 0.45,-6.703c0.031,-0.926 0.049,-1.853 0.058,-2.779l0.001,-0.282l0.002,-0.278l0,-243.917c-0.06,0.02 -0.119,0.039 -0.179,0.058c-2.108,0.706 -4.149,1.595 -6.121,2.62l0,275.347Z"/></svg>