<?xml version="1.0" encoding="UTF-8" standalone="no"?><!DOCTYPE svg PUBLIC "-//W3C//DTD SVG 1.1//EN" "http://www.w3.org/Graphics/SVG/1.1/DTD/svg11.dtd"><svg width="100%" height="100%" viewBox="0 0 500 353" version="1.1" xmlns="http://www.w3.org/2000/svg" xmlns:xlink="http://www.w3.org/1999/xlink" xml:space="preserve" style="fill-rule:evenodd;clip-rule:evenodd;stroke-linejoin:round;stroke-miterlimit:1.41421;"><rect id="lyre" x="0" y="0.383" width="500" height="352.107" style="fill:none;"/><path d="M143.851,305.863l206.448,0l0,8.112l-206.448,0l0,-8.112Zm0,-49.482l206.448,0l0,8.112l-206.448,0l0,-8.112Zm206.448,-49.483l0,8.112l-206.448,0l0,-8.112l206.448,0Zm-115.595,-138.714l0,58.812c0,29.608 -13.384,42.587 -35.692,42.587c-7.706,0 -14.196,-2.839 -17.035,-5.273l0,-12.979c2.839,1.623 9.329,2.434 14.602,2.434c11.762,0 17.846,-5.678 19.874,-17.846c-3.245,1.217 -6.895,2.433 -11.763,2.433c-21.091,0 -29.608,-11.356 -29.608,-26.769c0,-17.441 9.734,-21.902 9.734,-33.664c0,-4.462 -3.245,-6.895 -3.245,-6.895l10.14,-8.112c0,0 8.518,3.65 8.518,14.195c0,9.735 -6.49,19.469 -6.49,32.448c0,9.329 4.462,15.007 13.385,15.007c3.65,0 6.895,-0.811 9.734,-2.433l0,-53.945l17.846,0Zm15.819,89.637l99.776,0l0,8.112l-99.776,0l0,-8.112Zm-106.672,0l17.846,0l0,8.112l-17.846,0l0,-8.112Zm170.756,-51.105c1.217,12.168 7.3,15.818 18.657,15.818c10.546,0 17.846,-2.839 17.846,-2.839l0,13.385c0,0 -8.517,5.272 -22.307,5.272c-19.469,0 -32.448,-9.328 -32.448,-35.692c0,-24.336 13.79,-36.098 30.42,-36.098c21.902,0 32.853,17.441 28.391,40.154l-40.559,0Zm-47.049,-38.532l0,14.196c4.056,-8.112 11.762,-16.224 20.279,-16.224c2.434,0 3.651,0.406 3.651,0.406l0,17.441l-0.811,0.405c-0.406,0 -1.623,-0.405 -2.84,-0.405c-8.923,0 -16.223,6.084 -19.874,14.195l0,39.343l-17.846,0l0,-69.357l17.441,0Zm-105.861,68.952l-17.846,0l0,-100.182l17.846,-4.056l0,104.238Zm178.057,-41.777c0.405,-6.895 -2.028,-14.601 -10.951,-14.601c-8.924,0 -12.979,5.678 -14.196,14.601l25.147,0Z"/></svg>