<?xml version="1.0" encoding="UTF-8" standalone="no"?><!DOCTYPE svg PUBLIC "-//W3C//DTD SVG 1.1//EN" "http://www.w3.org/Graphics/SVG/1.1/DTD/svg11.dtd"><svg width="100%" height="100%" viewBox="0 0 500 238" version="1.1" xmlns="http://www.w3.org/2000/svg" xmlns:xlink="http://www.w3.org/1999/xlink" xml:space="preserve" style="fill-rule:evenodd;clip-rule:evenodd;stroke-linejoin:round;stroke-miterlimit:1.41421;"><rect id="magniloquent" x="0" y="0.815" width="500" height="236.558" style="fill:none;"/><path d="M177.023,141.081c7.757,-29.477 12.892,-59.81 12.892,-63.662c0,-1.605 -5.51,-2.782 -6.259,-1.926c-0.107,0.107 -0.695,2.675 -1.605,6.955c-0.535,-4.922 -2.193,-7.65 -5.884,-7.65c-11.77,0 -23.111,34.666 -23.111,47.987c0,0.107 0,0.214 0,0.374c-3.103,4.227 -6.153,7.65 -7.704,7.65c-0.267,0 -0.695,-0.963 -0.695,-2.621c0,-14.07 11.876,-46.436 11.876,-50.715c0,-1.605 -5.51,-2.782 -6.259,-1.926c-0.214,0.267 -1.605,4.012 -3.424,9.308c-0.214,-6.366 -1.765,-10.004 -6.045,-10.004c-11.77,0 -23.111,34.666 -23.111,47.987c0,0.375 0,0.749 0,1.07c-4.173,6.42 -6.848,7.169 -6.848,7.169c0,0 -1.605,-6.794 -1.605,-14.391c0,-17.922 11.823,-37.662 11.823,-55.156c0,-12.09 -4.975,-15.514 -11.127,-15.514c0,0 3.049,1.979 3.049,10.058c0,15.353 -12.465,43.653 -12.839,59.703c-6.634,14.069 -11.342,15.3 -11.342,15.3c0,0 -1.605,-6.794 -1.605,-14.391c0,-17.922 12.358,-37.662 12.358,-55.156c0,-12.09 -5.51,-15.514 -11.662,-15.514c0,0 3.049,1.979 3.049,10.058c0,13.534 -9.683,37.127 -12.251,53.55c-5.082,11.395 -12.465,21.346 -16.049,21.346c-2.675,0 -3.317,-4.547 -3.317,-12.411c0,-8.453 4.708,-20.864 4.708,-23.004c0,-1.712 -3.317,-3.745 -5.457,-3.745c-2.247,0 -8.827,12.572 -8.827,28.353c0,7.49 3.317,15.14 10.165,15.14c6.526,0 13.428,-9.308 18.242,-18.991c0,0.053 0,0.16 0,0.214c0,14.711 3.745,18.724 8.239,18.724c4.494,0 9.683,-6.473 13.856,-14.659c0.642,11.395 4.066,14.659 8.131,14.659c3.05,0 6.474,-2.996 9.63,-7.543c0.963,6.045 3.852,7.543 7.436,7.543c4.44,0 8.453,-5.19 11.769,-11.342c0.375,6.259 2.301,11.342 5.725,11.342c2.835,0 6.633,-3.745 10.218,-8.72c0.749,7.008 3.744,8.72 7.596,8.72c4.494,0 8.613,-5.404 11.984,-11.716c-1.391,5.777 -2.836,11.662 -4.334,17.493c-22.147,0.642 -34.987,13.268 -34.987,34.399c0,10.432 5.992,24.342 14.872,24.342c9.576,0 19.099,-24.128 26.642,-50.983c27.765,1.979 54.46,14.818 82.547,14.818c16.049,0 25.25,-5.991 25.25,-16.477c0,0 -7.757,5.617 -25.143,5.617c-31.029,-0.16 -48.523,-10.378 -80.567,-11.662Zm160.652,-0.161c-18.296,0 -28.674,12.412 -33.65,24.984c3.906,-31.296 17.119,-81.905 17.119,-88.538c0,-1.605 -5.51,-2.782 -6.259,-1.926c-0.107,0.16 -0.802,2.674 -1.872,6.847c-0.535,-4.868 -2.194,-7.596 -5.885,-7.596c-6.74,0 -13.321,11.341 -17.761,23.592c-2.033,3.103 -4.28,5.885 -6.206,6.901c0.161,-0.909 0.268,-1.765 0.268,-2.461c0,-2.14 -1.338,-3.584 -3.05,-3.584c-2.032,0 -3.316,1.926 -3.316,4.066c0,2.086 1.658,3.905 3.637,4.333c-2.781,8.506 -11.073,23.646 -15.193,23.646c-0.963,0 -1.177,-3.103 -1.177,-6.206c0,-12.679 11.342,-47.505 15.996,-47.505c2.996,0 3.477,14.23 2.407,21.184c-0.374,1.498 1.926,0.803 2.087,-1.016c1.284,-14.23 0.749,-22.95 -5.938,-22.95c-11.77,0 -23.111,34.666 -23.111,47.987c0,0.642 0,1.23 0.053,1.819c-2.3,3.21 -4.44,5.51 -5.617,5.51c-0.749,0 -1.284,-3.317 -1.284,-5.029c0,-27.176 16.531,-52.481 16.531,-79.283c0,-4.815 -5.404,-6.099 -7.65,-6.099c-0.696,0 -1.338,0.161 -1.231,0.268c0.428,0.481 1.284,3.103 1.284,4.333c0,23.806 -16.049,54.728 -16.691,75.378c-3.584,5.671 -7.704,10.967 -9.63,10.967c-0.267,0 -0.695,-0.963 -0.695,-2.621c0,-15.14 10.325,-38.144 10.325,-46.49c0,-5.884 -4.708,-6.259 -6.955,-6.259c-0.695,0 -1.337,0.161 -1.23,0.268c0.428,0.481 0.642,1.979 0.642,3.156c0,5.403 -10.379,32.58 -10.379,42.209c0,0.054 0,0.107 0,0.214c-3.37,5.083 -6.954,9.523 -8.72,9.523c-0.267,0 -0.695,-0.963 -0.695,-2.621c0,-15.14 10.325,-38.144 10.325,-46.49c0,-5.884 -4.708,-6.259 -6.955,-6.259c-2.461,0 -9.629,10.272 -14.926,21.506c2.194,-6.901 4.387,-13.107 4.387,-15.247c0,-5.884 -4.708,-6.259 -6.955,-6.259c-0.695,0 -1.337,0.161 -1.23,0.268c0.481,0.321 0.642,1.979 0.642,3.156c0,5.403 -11.288,32.259 -11.288,48.041c0,8.185 4.173,8.452 6.206,8.452c1.926,0 1.605,-10.539 4.493,-24.716c4.494,-13.267 14.177,-28.621 17.815,-31.082c0,5.404 -10.111,31.885 -10.111,41.514c0,8.186 2.193,14.284 5.992,14.284c3.156,0 7.436,-4.761 11.181,-10.592c0.588,6.259 2.621,10.592 5.831,10.592c3.37,0 8.025,-5.457 11.983,-11.876c0.375,6.954 2.515,11.876 5.885,11.876c2.568,0 5.831,-3.156 8.988,-7.436c0.963,5.992 3.851,7.49 7.436,7.49c7.061,0 16.53,-17.226 19.205,-27.658c1.552,-0.482 3.264,-1.98 4.922,-3.959c-2.247,7.382 -3.638,14.551 -3.638,19.152c0,10.164 3.317,12.411 7.757,12.411c4.494,0 8.614,-5.403 11.93,-11.662c-4.868,23.913 -9.522,51.304 -9.522,68.423c0,7.811 4.975,7.864 6.954,7.864c1.552,0 1.819,-5.831 1.873,-11.876c0,-24.609 11.983,-39.481 31.938,-39.481c26.053,0 51.143,15.086 78.908,15.086c16.05,0 25.251,-5.992 25.251,-16.477c0,0 -7.757,5.617 -25.144,5.617c-26.588,0 -51.678,-11.663 -76.287,-11.663Zm-190.237,54.942c-5.884,0 -11.18,-9.843 -11.18,-20.008c0,-11.769 10.431,-26.748 30.226,-27.444c-6.688,25.304 -13.963,47.452 -19.046,47.452Zm301.512,-133.262c-0.642,0 -2.033,2.515 -11.877,3.424c0.589,-3.638 0.963,-7.329 0.963,-11.127c0,-4.815 -5.403,-6.099 -7.65,-6.099c-0.695,0 -1.337,0.16 -1.23,0.267c0.428,0.482 1.284,3.103 1.284,4.334c0,4.172 -0.535,8.506 -1.391,12.946c-44.029,-0.107 -84.526,-20.382 -121.867,-20.382c-16.05,0 -25.251,5.991 -25.251,16.477c0,0 5.136,-6.259 26.909,-6.259c39.535,0 66.176,13.481 116.838,13.481c0.91,0 1.766,0 2.675,-0.054c-3.798,16.906 -11.555,34.881 -11.876,50.341c-3.531,5.511 -7.543,10.646 -9.416,10.646c-0.267,0 -0.695,-0.963 -0.695,-2.621c0,-15.14 10.325,-38.144 10.325,-46.489c0,-5.885 -4.708,-6.259 -6.955,-6.259c-2.461,0 -9.629,10.271 -14.926,21.506c2.194,-6.902 4.387,-13.107 4.387,-15.247c0,-5.885 -4.708,-6.259 -6.954,-6.259c-0.696,0 -1.338,0.16 -1.231,0.267c0.482,0.321 0.642,1.98 0.642,3.156c0,4.28 -6.955,21.774 -9.95,36.753c-4.762,7.597 -13.107,15.835 -18.136,15.835c-0.963,0 -1.658,-3.156 -1.658,-6.259c0,-3.638 0.909,-9.094 2.3,-15.033c0.856,0.375 1.819,0.589 2.996,0.589c5.67,0 16.744,-10.753 16.744,-23.967c0,-8.078 -2.032,-11.876 -7.489,-11.876c-11.716,0 -22.951,34.291 -23.111,47.719c-3.049,4.441 -6.152,8.132 -7.757,8.132c-0.268,0 -0.696,-0.963 -0.696,-2.621c0,-15.14 10.325,-38.144 10.325,-46.49c0,-5.884 -4.707,-6.259 -6.954,-6.259c-0.696,0 -1.338,0.161 -1.231,0.268c0.428,0.481 0.642,1.979 0.642,3.156c0,5.189 -9.522,30.386 -10.325,40.979c-3.584,5.671 -7.703,11.02 -9.629,11.02c-0.268,0 -0.696,-0.963 -0.696,-2.621c0,-15.14 10.325,-38.144 10.325,-46.489c0,-5.885 -4.708,-6.259 -6.954,-6.259c-0.696,0 -1.338,0.16 -1.231,0.267c0.428,0.482 0.642,1.98 0.642,3.156c0,5.404 -10.378,32.58 -10.378,42.21c0,8.185 2.193,14.284 5.991,14.284c3.371,0 8.025,-5.457 11.984,-11.877c0.374,6.955 2.514,11.877 5.884,11.877c2.889,0 6.688,-3.959 10.218,-9.148c0.696,7.382 3.745,9.148 7.597,9.148c5.831,0 14.337,-7.49 19.794,-14.926c-0.321,2.3 -0.481,4.44 -0.481,6.42c0,8.185 4.172,8.452 6.205,8.452c1.926,0 1.605,-10.539 4.494,-24.716c4.494,-13.267 14.177,-28.621 17.815,-31.082c0,5.404 -10.111,31.885 -10.111,41.514c0,8.186 2.193,14.284 5.991,14.284c3.317,0 7.918,-5.296 11.77,-11.609c0.428,6.794 2.514,11.609 5.885,11.609c5.296,0 10.592,-8.024 14.551,-17.44c0.321,-0.749 -0.642,-1.712 -1.017,-0.802c-3.584,7.115 -7.864,13.106 -10.432,13.106c-0.749,0 -1.284,-3.316 -1.284,-5.028c0,-21.72 8.828,-38.411 12.358,-56.28c8.667,-1.551 13.107,-4.654 13.107,-5.349c-0.107,-0.321 -0.374,-0.696 -0.802,-0.696Zm-155.196,68.584c-0.963,0 -1.177,-3.103 -1.177,-6.206c0,-12.679 11.341,-47.505 15.996,-47.505c1.979,0 2.621,6.312 2.567,12.571c-1.551,6.527 -3.477,14.873 -5.456,24.021c-3.638,8.292 -8.613,17.119 -11.93,17.119Zm-130.962,0c-0.963,0 -1.177,-3.103 -1.177,-6.206c0,-12.679 11.342,-47.505 15.996,-47.505c2.086,0 2.728,7.115 2.514,13.695c-1.337,6.099 -2.995,13.535 -4.868,21.613c-3.691,8.613 -9.041,18.403 -12.465,18.403Zm-35.308,0c-0.963,0 -1.177,-3.103 -1.177,-6.206c0,-12.679 11.341,-47.505 15.996,-47.505c2.086,0 2.728,7.008 2.568,13.641c-2.996,9.202 -6.206,20.276 -7.276,26.963c-3.424,6.848 -7.383,13.107 -10.111,13.107Zm249.565,-53.283c2.996,0 3.852,4.119 3.852,9.522c0,10.165 -8.613,20.757 -14.177,20.757c-0.749,0 -1.391,-0.214 -1.979,-0.481c3.477,-14.07 9.469,-29.798 12.304,-29.798Zm-97.953,25.304c0,-1.177 0.695,-2.033 1.283,-2.033c0.696,0 1.231,0.749 1.231,2.086c0,0.589 -0.107,1.391 -0.321,2.301c-1.391,-0.268 -2.193,-1.338 -2.193,-2.354Zm-116.678,-46.971c23.004,0 37.555,13.321 59.97,13.321c15.889,0 23.593,-5.671 23.593,-11.128c0,-2.835 -1.605,-5.51 -4.815,-5.51c-3.37,0 -5.403,2.836 -5.403,7.436c1.123,0 1.605,0.856 1.605,1.766c0,1.23 -1.552,5.136 -15.194,5.136c-21.88,0 -39.32,-21.239 -62.699,-21.239c-12.572,-0.053 -21.452,5.938 -21.452,16.424c0,0 4.387,-6.206 24.395,-6.206Z"/></svg>