<?xml version="1.0" encoding="UTF-8" standalone="no"?><!DOCTYPE svg PUBLIC "-//W3C//DTD SVG 1.1//EN" "http://www.w3.org/Graphics/SVG/1.1/DTD/svg11.dtd"><svg width="100%" height="100%" viewBox="0 0 500 222" version="1.1" xmlns="http://www.w3.org/2000/svg" xmlns:xlink="http://www.w3.org/1999/xlink" xml:space="preserve" style="fill-rule:evenodd;clip-rule:evenodd;stroke-linejoin:round;stroke-miterlimit:1.41421;"><rect id="marcus" x="0" y="0.277" width="500" height="221.68" style="fill:none;"/><path d="M334.455,151.547c11.678,0 14.373,8.264 14.373,21.859c0,6.947 -2.156,11.678 -3.294,11.678c-1.018,0 -2.335,-5.031 -6.048,-8.444c-3.714,-3.414 -12.517,-5.869 -38.449,-5.869c-71.626,0 -110.793,13.894 -151.338,13.894c-8.324,0 -15.331,-12.577 -15.331,-24.674c0,-6.588 1.677,-9.403 2.395,-9.403c0.839,0 1.677,2.516 5.39,5.869c4.791,4.312 16.17,7.127 40.365,7.127c62.104,0 107.739,-12.037 151.937,-12.037Zm148.649,-66.716c0,-0.839 -2.216,-1.617 -3.953,-1.617c-17.847,0 -39.167,8.205 -55.756,17.607c-0.24,-1.737 -0.36,-3.354 -0.36,-4.791c0,-9.882 21.5,-24.973 21.5,-28.028c0,-5.03 -7.186,-12.816 -10.061,-12.816c-3.473,0 -24.015,16.829 -24.015,30.543c0,0.958 0.12,2.036 0.299,3.294c-11.438,14.673 -31.621,38.928 -41.323,38.928c-0.479,0 -0.958,-0.36 -0.958,-0.959c0,-4.671 4.791,-15.75 12.517,-24.793c13.295,-15.751 18.865,-14.673 18.865,-17.308c0,-4.252 -8.085,-12.098 -12.816,-12.098c-3.594,0 -30.544,20.602 -31.681,42.401c-7.247,6.109 -17.907,13.715 -22.219,13.715c-0.838,0 -1.557,-0.719 -1.557,-1.737c0,-4.132 5.27,-18.026 14.792,-28.627c14.853,-16.589 22.339,-16.349 22.339,-18.206c0,-4.012 -6.947,-11.199 -13.355,-11.199c-5.75,0 -26.95,17.907 -34.077,35.933c-14.912,13.236 -33.358,23.836 -42.401,23.836c-0.599,0 -0.838,-1.018 -0.838,-1.857c0,-9.462 19.284,-36.172 32.339,-42.64c-1.317,2.635 -2.874,5.509 -4.791,8.204c-5.869,8.325 -15.271,15.332 -15.271,15.811c0,0.599 0.599,1.138 1.736,1.138c4.552,0 16.29,-5.21 17.907,-6.827c2.755,-2.755 11.978,-14.493 11.978,-20.662c0,-2.875 -3.833,-8.384 -5.989,-8.384c-0.659,0 -1.497,1.796 -2.755,4.611c-3.533,-4.492 -10.241,-9.582 -13.595,-9.582c-10.839,0 -35.813,32.879 -35.813,45.695c0,1.437 0.12,2.815 0.359,4.192c-4.012,4.372 -10.66,10.48 -12.995,10.48c-0.42,0 -0.599,-0.359 -0.599,-0.958c0,-1.617 0.419,-4.372 2.036,-7.785c2.156,-4.612 5.689,-9.223 5.689,-12.876c0,-8.385 -9.522,-11.499 -9.522,-16.709c0,-11.858 19.105,-25.632 19.105,-29.106c0,-4.492 -7.786,-12.577 -13.176,-12.577c-4.312,0 -19.284,15.452 -19.284,29.645c0,12.876 8.684,14.673 8.684,18.087c0,2.096 -7.187,10.6 -8.265,19.583c-4.671,5.21 -10.72,10.9 -13.774,10.9c-0.3,0 -0.958,-1.977 -0.958,-4.672c0,-1.377 0.179,-2.994 0.718,-4.611c3.893,-11.678 11.2,-15.092 11.2,-17.427c0,-2.995 -7.546,-10.062 -12.218,-10.062c-2.994,0 -8.863,9.163 -11.199,19.105c-7.546,7.246 -19.523,17.367 -24.913,17.367c-0.12,0 -0.3,-0.239 -0.3,-0.599c0,-2.934 6.648,-16.469 14.793,-26.171c13.774,-16.409 23.176,-18.146 23.176,-20.242c0,-4.671 -8.324,-11.499 -13.954,-11.499c-10.42,0 -30.962,25.752 -35.693,43.3c-6.588,6.048 -16.649,14.193 -20.183,14.193c-0.299,0 -0.419,-0.299 -0.419,-0.898c0,-2.515 3.055,-9.882 7.546,-17.308c5.031,-8.324 12.277,-16.649 12.277,-18.984c-0.119,-2.815 -6.468,-8.205 -11.618,-8.205c-1.557,0 -3.234,0.778 -4.971,2.036c-7.126,3.833 -19.883,12.397 -29.525,19.643c1.078,-1.676 2.156,-3.413 3.234,-5.03c8.085,-12.277 19.284,-20.662 19.284,-24.075c0,-4.971 -10.36,-12.996 -16.289,-12.996c-1.977,0 -4.312,1.258 -6.768,3.413c-9.103,5.989 -24.913,19.105 -38.328,31.921c2.874,-5.27 5.809,-10.421 8.624,-15.272c9.702,-16.529 21.08,-27.009 21.08,-28.506c0,-3.234 -11.319,-12.996 -19.344,-12.996c-1.856,0 -4.192,1.856 -6.827,5.15c-18.985,8.684 -55.337,38.808 -55.337,48.57c0,8.384 5.21,16.888 11.379,16.888c1.497,0 1.916,-0.539 1.916,-1.377c0,-0.958 -0.539,-2.216 -0.539,-3.234c0,-15.751 17.069,-35.933 33.718,-47.432c-14.733,26.112 -32.22,71.327 -32.22,81.149c0,3.054 3.054,7.845 7.066,7.845c2.576,0 9.642,-12.456 18.207,-28.267c9.462,-10.301 24.015,-24.973 36.771,-35.933c-9.163,15.99 -17.128,36.831 -17.128,48.45c0,5.15 3.653,8.983 7.666,8.983c2.216,0 7.366,-9.163 13.894,-20.602c8.085,-8.144 20.182,-17.667 29.884,-24.434c-4.492,7.845 -7.845,17.068 -7.845,22.578c0,9.762 3.473,18.206 9.402,18.206c6.109,0 16.41,-7.606 24.495,-15.212c0.958,5.75 6.168,15.212 12.756,15.212c4.132,0 15.211,-8.983 24.015,-17.607c0.18,7.546 8.145,17.367 11.618,17.367c3.654,0 10.84,-5.929 16.53,-11.977c2.215,5.45 7.426,12.217 13.115,12.217c5.989,0 11.858,-5.989 15.99,-11.079c2.875,6.647 8.325,11.259 13.236,11.259c11.139,0 27.968,-11.559 39.885,-21.68c-0.059,0.779 -0.119,1.497 -0.119,2.276c0,8.624 7.426,19.104 14.073,19.104c5.869,0 15.811,-7.186 23.297,-14.014c2.276,6.289 8.265,13.595 13.116,13.595c10.72,0 30.722,-22.518 42.94,-38.089c0.778,3.114 1.617,6.348 2.335,9.342c-11.379,7.487 -19.044,14.973 -19.044,19.105c0,3.294 4.851,10.061 10.241,10.061c9.702,0 19.583,-12.217 19.583,-19.763c0,-2.216 -0.599,-5.63 -1.258,-9.223c22.339,-12.337 58.991,-20.661 58.991,-21.32Z"/></svg>