<?xml version="1.0" encoding="UTF-8" standalone="no"?><!DOCTYPE svg PUBLIC "-//W3C//DTD SVG 1.1//EN" "http://www.w3.org/Graphics/SVG/1.1/DTD/svg11.dtd"><svg width="100%" height="100%" viewBox="0 0 501 365" version="1.1" xmlns="http://www.w3.org/2000/svg" xmlns:xlink="http://www.w3.org/1999/xlink" xml:space="preserve" style="fill-rule:evenodd;clip-rule:evenodd;stroke-linejoin:round;stroke-miterlimit:1.41421;"><rect id="mddesign" x="0.303" y="0.056" width="500" height="364.121" style="fill:none;"/><path d="M455.669,233.436c-6.634,-7.305 -37.045,0.074 -59.928,13.64c7.901,-10.211 17.665,-21.988 17.665,-25.417c0,-3.801 -6.335,-9.019 -9.317,-9.019c0,0 0.075,0.298 0.075,0.82c-0.075,-0.298 -0.075,-0.596 -0.075,-0.82c-3.131,0 -14.609,6.783 -25.417,14.609c4.845,-6.186 9.093,-10.286 9.093,-14.385c0,-3.429 -7.379,-11.927 -12.671,-11.927c-7.305,0 -41.741,15.355 -41.741,20.722c0,1.342 0.745,3.503 3.279,4.025c-1.118,8.125 -12.671,16.398 -22.063,16.398c-2.087,0 -3.801,-1.267 -3.801,-4.621c0,-5.516 1.341,-12.448 10.659,-18.56c9.764,-6.41 15.876,-3.131 15.876,-6.112c0,-5.069 -6.336,-12.001 -10.808,-12.001c-14.386,0 -27.281,13.79 -27.281,28.399c0,0.373 0,0.746 0.075,1.118c-10.734,11.554 -22.809,22.436 -30.561,22.436c-2.087,0 -3.205,-0.894 -3.205,-2.981c0,-7.23 3.951,-14.684 10.286,-21.318c11.926,-12.448 17.442,-12.373 17.442,-16.249c0,-4.324 -7.155,-11.181 -11.031,-11.181c-9.019,0 -17.07,9.466 -22.287,20.722c-7.305,2.906 -16.92,7.155 -25.865,11.627c-0.298,-1.565 -0.522,-3.205 -0.522,-4.994c0,-16.845 27.132,-28.399 27.132,-32.2c0,-5.143 -7.379,-13.566 -11.777,-13.566c-11.479,0 -25.343,19.678 -25.343,35.257c0,0.521 0,1.043 0.075,1.639c-17.069,17.517 -38.611,33.841 -51.58,33.841c-1.64,0 -3.355,-0.895 -3.355,-3.355c0,-3.577 1.268,-7.602 3.206,-11.628c0.969,0.15 2.087,0.299 3.279,0.299c14.61,0 34.735,-15.281 34.735,-29.443c0,-9.392 -6.261,-16.324 -13.417,-16.324c-1.118,0 -1.342,0.522 -1.342,1.193c0,0.969 2.684,2.981 2.684,7.379c0,3.131 -0.671,6.336 -1.864,9.467c-1.789,-4.249 -7.603,-9.914 -10.808,-9.914c-16.845,0 -27.877,24.374 -28.473,43.903c-6.261,4.919 -12.895,8.497 -17.666,8.497c-0.894,0 -2.981,-3.354 -2.981,-8.944c0,-7.678 2.609,-17.591 13.864,-37.195c14.088,-24.374 26.908,-31.529 26.908,-34.138c0,-6.634 -7.826,-14.162 -13.417,-14.162c-10.51,0 -26.535,27.28 -34.883,50.834c-2.237,-4.025 -7.38,-8.795 -10.287,-8.795c-29.517,0 -76.625,25.194 -76.625,37.418c0,5.367 6.858,14.982 10.436,14.982c4.919,0 12.149,-5.665 12.149,-7.156c0,-0.447 -0.298,-0.819 -0.894,-0.819c-1.491,0 -6.932,2.31 -10.51,1.267c1.714,-15.653 31.082,-32.424 50.686,-37.716c-8.647,9.54 -14.684,25.641 -14.684,36.821c0,9.019 6.336,16.1 11.33,16.1c6.335,0 17.814,-7.528 24.821,-13.864c2.907,8.721 8.497,13.939 13.864,13.939c3.652,0 11.479,-4.025 18.783,-9.615c2.311,5.888 7.827,9.764 11.703,9.764c14.386,0 37.79,-16.473 56.052,-34.884c0.522,2.013 0.969,4.1 0.969,6.112c0,1.715 -0.447,3.28 -1.043,4.696c-9.467,5.218 -16.622,10.137 -16.622,12.97c0,5.143 7.901,11.031 12.298,11.031c12.299,0 15.355,-9.689 15.355,-17.143c0,-1.566 -0.298,-3.131 -0.671,-4.771c6.411,-3.652 14.088,-7.602 21.244,-10.659c-2.013,6.113 -3.205,12.225 -3.205,17.219c0,10.659 3.876,15.429 9.988,15.429c11.851,0 25.492,-11.33 37.567,-24.15c1.192,2.46 2.832,4.77 4.77,6.783c-7.081,3.354 -16.994,12 -16.994,19.081c0,5.814 3.428,9.094 8.72,9.094c10.734,0 19.902,-6.634 31.008,-6.634c3.28,0 4.473,3.578 4.473,6.559c0,4.771 -7.752,8.274 -26.909,8.274c-38.461,0 -57.916,-5.441 -82.215,-5.441c-22.063,0 -38.685,4.994 -43.53,9.839c-3.354,3.354 -4.547,8.646 -4.547,14.162c0,8.497 4.025,16.398 5.814,16.398c1.565,0 1.938,-2.236 1.938,-3.428c0,-9.168 19.902,-20.945 43.754,-20.945c32.946,0 60.823,8.199 89.147,8.199c14.759,0 23.554,-9.914 23.554,-24.001c0,-14.983 -5.59,-19.753 -14.908,-19.753c-11.404,0 -23.032,5.59 -26.237,5.59c-0.596,0 -0.894,-0.298 -0.894,-0.82c0,-3.056 8.422,-9.615 14.087,-11.926c2.162,0.895 4.473,1.417 6.932,1.417c17.964,0 26.014,-12.001 26.014,-18.113c0,-3.429 -1.714,-7.156 -3.727,-9.839c7.752,-6.187 19.902,-11.106 29.592,-14.237c-7.901,8.945 -20.349,30.71 -20.349,42.785c0,6.336 3.354,10.51 5.814,10.51c1.416,0 4.919,-6.336 9.466,-14.386c8.125,-8.274 20.2,-17.591 29.219,-23.107c-7.901,8.498 -15.951,22.287 -15.951,29.517c0,2.833 2.311,6.783 4.845,8.125c0.596,0.596 1.192,0.894 1.714,0.447c14.461,-13.193 53.667,-28.324 68.053,-14.013c2.087,2.087 1.715,3.876 2.609,3.876c0.596,0 1.118,-0.522 1.342,-0.969c2.012,-3.652 1.491,-13.641 -2.162,-17.591Zm-332.811,1.043c0,2.013 0.149,4.026 0.372,5.889c-6.484,6.112 -15.876,12.373 -20.572,12.373c-0.447,0 -1.118,-0.894 -1.118,-2.236c0,-14.237 15.727,-33.84 25.566,-36.896c-2.609,8.125 -4.248,15.504 -4.248,20.87Zm71.929,-20.945c-4.547,9.765 -13.417,18.113 -20.126,19.827c5.964,-9.615 14.908,-18.187 20.126,-19.827Zm104.427,-33.542c0,2.535 -12.746,6.709 -12.746,11.032c0,5.739 4.249,13.268 9.616,13.268c4.919,0 13.044,-6.709 13.044,-10.808c0,-3.504 -5.292,-15.504 -8.348,-15.504c-0.969,0 -1.566,0.596 -1.566,2.012Zm-17.442,-91.085l-0.596,0c-5.739,0 -9.69,-11.777 -9.764,-19.38c0,-6.634 27.28,-21.392 53.294,-21.392c27.505,0 46.214,17.442 46.214,40.921c0,37.567 -62.314,86.837 -114.192,86.837c-15.802,0 -22.138,-10.51 -22.138,-17.069c0,-5.367 13.268,-16.548 29.666,-25.269c2.087,-9.242 9.541,-22.659 18.411,-35.033c12,-16.696 24.001,-26.908 30.411,-26.908c3.653,0 10.287,6.411 10.287,11.33c0,5.218 -16.995,12.97 -29.368,28.995c-3.28,4.323 -6.038,8.498 -8.274,12.448c6.037,-1.789 11.926,-2.907 17.218,-2.907c6.634,0 8.796,6.932 8.796,12.001c0,1.043 -0.448,1.863 -1.342,1.863c-1.118,0 -5.367,-3.578 -13.715,-3.578c-4.1,0 -10.063,1.566 -16.622,4.174c-4.919,11.628 -6.038,19.455 -8.348,19.455c-2.609,0 -6.41,-3.876 -7.603,-11.852c-12.597,7.007 -23.405,15.579 -23.405,21.095c0,1.788 2.758,3.801 10.212,3.801c40.846,0 106.812,-56.723 106.812,-92.502c0,-12.522 -3.801,-15.802 -20.497,-15.802c-28.698,0 -49.195,15.355 -54.04,23.033c2.907,0.447 6.41,-0.671 7.602,-0.671c0.299,0 0.522,0.223 0.522,0.671c0,1.267 -5.143,5.366 -9.541,5.739Zm-137.746,32.499c4.175,0 15.802,-8.647 15.802,-13.417c0,-0.373 -0.223,-0.895 -0.745,-0.895c-2.534,0 -5.963,4.547 -12.224,4.547c0,-10.063 30.188,-35.256 49.12,-43.903c-11.851,13.492 -22.883,45.617 -22.883,67.904c0,9.168 5.143,13.044 7.603,13.044c2.013,0 4.174,-8.422 7.305,-19.529c9.392,-15.802 29.219,-36.374 40.847,-44.2c-8.2,8.646 -22.287,30.784 -22.287,43.53c0,6.484 3.428,10.808 6.037,10.808c1.267,0 4.174,-4.994 8.05,-11.777c8.498,-8.572 23.107,-21.691 33.915,-28.921c-8.795,8.423 -18.485,24.448 -18.485,32.498c0,3.578 3.577,8.87 6.783,8.87c3.056,0 16.92,-8.497 16.92,-12.969c0,-0.596 -0.298,-0.745 -0.671,-0.745c-2.087,0 -7.156,4.025 -11.404,5.292c8.124,-11.256 23.404,-28.772 23.404,-33.17c0,-3.876 -6.559,-9.242 -9.615,-9.242c-3.503,0 -16.696,8.497 -28.473,18.038c5.814,-8.05 11.628,-12.895 11.628,-17.815c0,-3.578 -7.603,-12.298 -13.045,-12.298c-4.845,0 -23.032,14.683 -36.15,29.144c0.298,-0.746 0.596,-1.565 0.894,-2.311c7.156,-17.144 22.361,-28.324 22.361,-32.424c0,-5.963 -10.062,-12.075 -15.727,-12.075c-21.393,0 -71.258,32.051 -71.258,43.232c0.074,9.168 7.304,18.784 12.298,18.784Z"/></svg>