<?xml version="1.0" encoding="UTF-8" standalone="no"?><!DOCTYPE svg PUBLIC "-//W3C//DTD SVG 1.1//EN" "http://www.w3.org/Graphics/SVG/1.1/DTD/svg11.dtd"><svg width="100%" height="100%" viewBox="0 0 500 353" version="1.1" xmlns="http://www.w3.org/2000/svg" xmlns:xlink="http://www.w3.org/1999/xlink" xml:space="preserve" style="fill-rule:evenodd;clip-rule:evenodd;stroke-linejoin:round;stroke-miterlimit:1.41421;"><rect id="ml" x="0" y="0.383" width="500" height="352.107" style="fill:none;"/><path d="M324.954,246.279c-6.138,0 -9.528,3.123 -11.156,5.552c4.057,1.681 11.183,11.289 11.183,24.846c0,17.615 -13.798,32.56 -34.108,32.56c-15.613,0 -29.757,-6.405 -43.021,-14.305c17.214,-15.719 27.382,-37.684 27.382,-59.595c0,-8.593 -1.148,-18.415 -2.856,-28.743c-9.261,6.619 -15.159,10.408 -18.602,12.49c0.241,2.802 0.374,5.498 0.374,8.06c0,27.809 -7.926,47.051 -18.628,59.968c-16.44,-10.808 -31.599,-21.484 -46.598,-21.484c-18.548,0 -35.709,11.076 -35.709,26.208c0,13.211 13.051,25.701 35.736,25.701c20.656,0 38.778,-6.805 53.029,-17.668c15.906,9.421 34.561,17.668 57.567,17.668c31.492,0 44.676,-26.154 44.676,-42.061c-0.08,-17.294 -7.206,-29.197 -19.269,-29.197Zm-176.062,70.137l-63.705,0c0,0 -0.988,-4.083 0,-5.071c0.772,-0.772 9.826,-3.668 22.1,-4.892c4.434,-15.783 29.46,-107.787 32.451,-183.713c-22.258,-22.926 -38.965,-46.304 -38.965,-64.613c0,-13.023 7.392,-22.711 16.493,-22.711c20.603,0 42.488,32.186 42.488,73.446c0,7.98 -0.187,15.853 -0.507,23.619c39.605,36.856 87.964,69.629 90.766,69.629c2.803,0 51.162,-32.773 90.74,-69.629c-0.32,-7.74 -0.507,-15.639 -0.507,-23.619c0,-41.26 21.858,-73.446 42.488,-73.446c9.101,0 16.493,9.688 16.493,22.711c0,18.282 -16.707,41.687 -38.991,64.613c2.99,75.921 28.014,167.92 32.449,183.71c12.289,1.223 21.355,4.122 22.128,4.895c0.983,0.983 0.01,5.032 0,5.071l-63.705,0c0,0 -0.854,-4.217 0,-5.071c0.658,-0.678 10.417,-3.717 21.751,-4.936c-2.033,-5.683 -26.538,-75.787 -31.679,-165.254c-40.753,37.096 -88.444,68.642 -91.193,68.642c-2.749,0 -50.441,-31.546 -91.194,-68.642c-5.114,89.422 -29.633,159.538 -31.677,165.251c11.355,1.216 21.117,4.26 21.776,4.939c0.851,0.852 0.005,5.043 0,5.071Zm40.059,-5.791c-10.035,0 -19.563,-7.873 -19.563,-18.709c0,-9.928 9.288,-19.535 19.456,-19.535c12.41,0 25.567,9.794 41.5,20.256c-13.851,13.317 -30.638,17.988 -41.393,17.988Zm45.77,-148.12c2.615,0 5.311,-0.24 8.033,-0.694c2.322,10.329 4.751,20.684 6.779,30.558c3.096,-1.841 8.674,-5.364 17.694,-11.743c-1.868,-8.593 -3.816,-17.133 -5.604,-25.273c25.3,-12.891 48.626,-41.874 48.626,-75.875c0,-19.029 -5.311,-44.142 -27.196,-44.142c-21.003,0 -48.199,28.85 -48.199,74.113c0,13.344 2.883,29.277 6.406,45.583c-0.588,0.054 -1.175,0.054 -1.735,0.054c-13.024,0 -25.354,-17.881 -25.354,-33.681c0,-12.837 5.845,-24.286 9.688,-26.581c-1.281,-1.788 -4.11,-4.11 -8.727,-4.11c-11.423,0 -19.776,13.344 -19.776,29.277c0,24.286 20.069,42.514 39.365,42.514Zm20.79,-47.078c0,-33.547 14.839,-70.457 31.706,-70.457c11.716,0 16.733,18.975 16.733,34.775c0,31.599 -22.818,57.46 -43.742,68.962c-2.695,-13.024 -4.697,-24.66 -4.697,-33.28Zm-147.959,-57.3c0,-8.46 3.522,-13.637 8.807,-13.637c5.311,0 23.699,16.787 23.699,63.011c0,1.948 -0.027,3.896 -0.054,5.871c-18.841,-20.123 -32.452,-40.032 -32.452,-55.245Zm276.116,-13.637c5.258,0 8.807,5.177 8.807,13.637c0,15.239 -13.638,35.122 -32.453,55.245c-0.026,-1.975 -0.053,-3.923 -0.053,-5.871c0,-46.251 18.388,-63.011 23.699,-63.011Z"/></svg>