<?xml version="1.0" encoding="UTF-8" standalone="no"?><!DOCTYPE svg PUBLIC "-//W3C//DTD SVG 1.1//EN" "http://www.w3.org/Graphics/SVG/1.1/DTD/svg11.dtd"><svg width="100%" height="100%" viewBox="0 0 500 398" version="1.1" xmlns="http://www.w3.org/2000/svg" xmlns:xlink="http://www.w3.org/1999/xlink" xml:space="preserve" style="fill-rule:evenodd;clip-rule:evenodd;stroke-linejoin:round;stroke-miterlimit:1.41421;"><rect id="pickwickian" x="0" y="0.427" width="500" height="396.611" style="fill:none;"/><path d="M345.623,296.557c-7.179,0 -10.699,6.054 -10.699,10.84c0,0.704 0.493,1.197 1.197,1.197c3.731,0 8.517,2.041 8.517,7.531c0,5.491 -10.347,17.457 -17.949,17.457c-3.238,0 -7.391,-2.675 -7.391,-8.447c0,-19.779 14.078,-32.59 14.078,-48.639c0,-8.798 -5.35,-14.57 -14.993,-14.57c-5.35,0 -10.558,3.73 -14.852,9.362c-1.338,-12.107 -5.42,-13.797 -14.148,-13.797c-5.209,0 -9.925,1.971 -9.925,3.168c0,0.352 6.053,6.687 6.264,33.435c-3.167,20.764 -19.568,59.478 -27.803,59.478c-3.801,0 -5.491,-6.476 -5.491,-18.723c0,-29.071 13.656,-41.459 13.656,-48.217c0,-2.886 -4.435,-9.361 -14.359,-9.361c-6.195,0 -11.826,13.444 -11.826,44.767c0,2.323 0.071,4.505 0.211,6.617c-2.463,4.364 -5.701,7.672 -9.15,7.672c-8.447,0 -13.445,-8.869 -13.445,-22.173c0,-28.366 33.576,-46.879 44.205,-46.879c0.915,0 2.111,0.282 2.675,-0.211c2.393,-2.393 -5.702,-15.485 -13.586,-15.485c-16.822,0 -44.204,25.34 -44.204,55.044c0,12.459 3.379,22.665 9.432,28.789c-1.126,3.871 -6.194,8.517 -12.036,8.517c-15.063,0 -19.568,-21.258 -19.568,-31.042c0,-20.06 12.036,-24.988 12.036,-32.73c0,-8.658 -9.08,-12.248 -15.767,-12.248c-4.646,0 -14.218,16.541 -15.345,35.405c-2.463,3.942 -6.405,7.391 -12.67,7.391c-8.587,0 -14.922,-5.56 -14.922,-15.133c0,-11.122 5.701,-13.374 5.701,-14.36c0,-2.745 -4.153,-4.927 -8.587,-4.927c-3.801,0 -7.321,6.546 -7.321,15.275c0,13.373 11.826,23.721 24.777,23.721c5.35,0 9.644,-2.323 12.952,-5.772c1.267,25.129 21.398,39.91 38.08,39.91c7.18,0 14.008,-4.997 16.049,-11.332c3.168,2.111 6.898,3.238 11.051,3.238c4.435,0 7.884,-2.394 10.488,-5.772c2.252,14.359 8.306,23.158 16.823,23.158c9.714,0 20.624,-23.581 27.1,-44.627c-2.112,24.003 -6.969,40.333 -2.675,40.333c5.842,0 21.821,-48.357 21.821,-71.586c0,-1.759 0,-3.378 -0.071,-4.927c2.253,-3.167 5.068,-5.279 8.588,-5.279c2.745,0 4.153,4.646 4.153,7.18c0,13.373 -6.054,29.774 -6.054,44.837c0,11.192 8.236,14.149 13.796,14.149c8.658,0 30.268,-13.656 30.268,-32.309c0,-6.124 -3.309,-9.925 -9.081,-9.925Zm41.882,-87.704c-13.022,0 -23.721,12.881 -23.721,29.633c0,12.811 6.053,16.682 9.925,16.682c4.293,0 10.206,-2.393 10.206,-4.223c0,-0.915 -6.124,-3.027 -6.124,-15.697c0,-14.5 5.139,-20.272 10.91,-20.272c7.391,0 12.53,7.602 12.53,14.782c0,26.959 -17.738,55.889 -31.816,55.889c-20.272,0 -12.459,-50.117 -27.029,-64.688c-2.746,-2.745 -11.192,-3.871 -16.753,-4.223c2.112,-9.291 3.801,-18.864 4.646,-26.889c3.589,-4.152 7.813,-6.616 11.051,-6.616c3.73,0 7.461,6.828 7.461,12.388c0,12.6 -4.787,19.357 -0.282,19.357c5.702,0 14.5,-5.701 14.5,-13.726c0,-13.444 -15.204,-23.228 -21.116,-23.228c-3.59,0 -7.532,2.323 -11.122,5.842c0.141,-1.9 0.211,-3.589 0.211,-5.138c0,-16.541 -2.956,-24.918 -11.332,-24.918c-9.925,0 -12.318,2.605 -12.318,3.801c0,0.352 0.211,0.634 0.422,0.634c2.605,0 5.561,9.221 7.321,22.524c-3.168,18.724 -13.656,58.071 -35.758,58.071c-7.461,0 -13.726,-4.927 -13.726,-19.92c0,-42.233 13.656,-52.792 19.498,-52.792c4.012,0 5.279,9.151 5.279,13.234c0,15.204 -8.376,18.582 -8.376,22.102c0,1.548 1.267,2.674 3.027,2.674c3.519,0 15.907,-4.504 15.907,-18.441c0,-14.712 -6.898,-28.649 -18.09,-28.649c-14.5,0 -33.645,12.107 -33.645,48.921c0,6.053 0.703,11.543 1.97,16.471c-3.167,8.165 -13.514,14.922 -21.116,14.922c-3.801,0 -7.954,-2.112 -7.954,-11.896c0,-13.444 17.949,-37.095 17.949,-49.765c0.211,-7.461 -3.379,-13.092 -10.066,-13.092c-4.927,0 -11.121,3.519 -11.121,4.716c0,0.915 1.619,0.774 1.619,2.886c0,2.675 -1.267,5.983 -3.027,10.066c-4.153,3.167 -10.206,5.701 -18.794,5.701c-0.844,0 -1.619,-0.07 -2.463,-0.141c-1.127,-16.611 -12.53,-24.636 -21.328,-24.636c-4.575,0 -8.517,3.097 -8.799,5.139c-0.141,0.422 -0.211,0.844 -0.211,1.337c0,3.379 3.59,8.306 8.799,12.74c2.745,6.406 5.138,15.627 5.138,28.578c0,21.328 -6.828,41.459 -18.723,41.459c-6.899,0 -11.544,-10.276 -11.544,-28.296c0,-14.43 5.701,-21.117 5.701,-23.51c0,-2.252 -2.534,-4.294 -7.461,-4.294c-6.194,0 -10.136,2.605 -10.136,19.076c0,7.743 1.408,17.738 4.646,26.044c-2.323,11.403 -7.039,21.679 -16.612,21.679c-10.277,0 -16.823,-16.189 -16.823,-40.262c0,-44.838 18.583,-68.418 18.583,-72.219c0,-2.604 -6.265,-5.279 -9.714,-5.279c-5.138,0 -10.558,0.985 -13.515,3.871c-6.124,5.913 -11.614,24.214 -11.614,55.889c0,35.898 16.542,64.899 31.182,64.899c12.882,0 18.724,-9.855 21.399,-22.243c3.589,6.053 8.517,10.206 15.133,10.206c19.428,0 35.195,-33.435 35.828,-65.462c0.423,0 0.845,0.071 1.267,0.071c6.617,0 12.389,-1.408 17.175,-3.731c-2.956,7.532 -5.913,17.316 -5.913,30.338c0,18.231 6.758,28.155 18.583,28.155c7.391,0 19.92,-6.616 25.622,-17.667c4.786,11.755 13.866,18.653 26.536,18.653c21.117,0 32.309,-31.042 36.884,-53.003c0.211,3.942 0.352,8.095 0.352,12.318c0,20.202 -9.432,47.231 -6.616,47.231c4.716,0 10.065,-13.867 14.218,-30.126c11.966,10.487 12.248,67.925 43.923,67.925c22.102,0 38.432,-40.192 38.432,-60.394c-0.07,-13.163 -8.728,-21.468 -19.075,-21.468Zm-183.011,59.971c4.223,0 8.305,-5.35 8.305,-11.614c0,-6.406 -5.771,-12.459 -13.373,-12.459c-5.984,0 -9.081,1.408 -9.081,2.604c0,0.775 0.282,0.493 0.282,1.76c0,1.478 -2.253,1.83 -2.253,5.631c-0.07,5.631 9.01,14.078 16.12,14.078Zm57.93,-119.872c6.757,0 17.245,-8.306 23.017,-19.498c5.842,7.32 13.655,11.262 22.595,11.262c12.881,0 22.595,-16.753 27.733,-31.745c1.267,11.403 2.041,25.199 2.041,41.177c0,20.202 -1.689,19.92 0.352,19.92c4.153,0 8.236,-7.813 10.136,-35.617c9.714,7.602 19.287,58.142 43.641,58.142c9.714,0 15.486,-9.503 15.486,-22.595c0,-13.515 -5.983,-34.772 -16.964,-34.772c-5.842,0 -9.925,5.068 -9.925,9.08c0,1.478 19.709,7.743 19.709,32.66c0,7.954 -2.463,11.333 -7.743,11.333c-19.849,0 -17.245,-61.52 -34.42,-61.52c-4.012,0 -7.109,0.633 -9.432,1.478c0.352,-6.616 0.563,-14.148 0.634,-22.806c2.534,-8.658 6.616,-14.782 9.291,-14.782c3.731,0 6.757,6.899 6.757,12.459c0,12.6 -5.068,20.202 -0.492,20.202c5.701,0 12.106,-5.702 12.106,-13.796c0,-13.445 -12.247,-25.2 -18.16,-25.2c-3.027,0 -6.616,5.139 -9.432,11.755c0,-0.211 0,-0.352 0,-0.563c0,-19.497 -3.942,-29.141 -12.318,-29.141c-9.925,0 -13.515,2.745 -13.515,3.942c0,0.352 0.211,0.634 0.423,0.634c3.66,0 7.883,10.206 10.699,29.211c-3.942,13.303 -13.093,34.491 -26.959,34.491c-10.559,0 -16.964,-18.02 -16.964,-39.207c0,-32.097 7.743,-37.658 11.262,-37.658c4.294,0 8.517,8.306 8.517,12.388c0,15.204 -4.082,15.556 -4.082,19.076c0,1.548 1.267,2.674 3.026,2.674c3.52,0 11.192,-7.461 11.192,-15.556c0,-19.497 -7.32,-27.381 -20.412,-27.381c-10.418,0 -25.552,14.36 -25.552,43.219c0,14.007 3.097,25.481 8.236,33.787c-4.083,7.883 -11.474,15.133 -17.738,15.133c-3.801,0 -8.869,-3.308 -8.869,-13.022c0,-13.444 11.473,-34.983 11.473,-47.723c0,-6.476 -1.619,-12.882 -10.91,-12.882c-4.927,0 -9.291,1.549 -9.291,2.816c0,0.915 0.633,1.126 0.633,3.238c0,8.095 -5.138,19.146 -5.138,44.908c0,21.961 7.531,30.479 19.357,30.479Zm-95.096,-16.26c33.576,0 59.62,-37.729 59.62,-58.494c0,-10.488 -4.857,-15.837 -12.882,-15.837c-38.432,0 -78.202,54.763 -78.202,67.221c0,0.704 0.704,0.986 0.704,1.549c0,0.845 -5.209,3.731 -9.925,3.731c-7.602,0 -9.995,-5.913 -9.924,-8.236c0,-22.665 58.211,-74.26 92.772,-74.26c19.005,0 27.311,8.869 27.311,29.633c0,36.673 -41.529,69.686 -70.882,69.686c-3.097,0 -5.912,-0.352 -8.446,-0.986c-4.435,8.447 -7.462,17.175 -7.462,26.044c0,4.083 1.408,5.35 1.408,6.828c0,0.492 -1.056,0.844 -2.886,0.844c-3.66,0 -8.517,-5.349 -8.517,-17.456c0,-9.221 1.83,-18.301 4.716,-26.818c-0.281,-1.056 -0.422,-2.182 -0.422,-3.309c0,-9.432 5.42,-16.611 12.107,-21.891c9.995,-17.315 20.905,-29.704 20.905,-32.801c0,-1.337 1.619,-1.9 3.801,-1.9c8.94,0 13.445,4.505 13.445,9.009c0,12.389 -15.767,28.93 -28.508,47.443l1.267,0Zm57.86,2.534c-5.49,0 -8.517,5.631 -8.517,7.109c0,1.478 1.689,0.704 1.689,4.505c0,10.629 7.813,11.896 11.192,11.896c4.364,0 8.095,-4.083 8.095,-12.037c0,-8.095 -5.491,-11.473 -12.459,-11.473Zm38.291,-75.317c2.183,0 6.617,-2.393 6.617,-10.347c0,-5.912 -4.716,-9.502 -11.755,-9.502c-5.49,0 -10.417,1.83 -10.417,3.238c0,1.478 1.97,4.364 1.97,8.165c-0.07,7.039 11.403,8.446 13.585,8.446Z"/></svg>