<?xml version="1.0" encoding="UTF-8" standalone="no"?><!DOCTYPE svg PUBLIC "-//W3C//DTD SVG 1.1//EN" "http://www.w3.org/Graphics/SVG/1.1/DTD/svg11.dtd"><svg width="100%" height="100%" viewBox="0 0 500 216" version="1.1" xmlns="http://www.w3.org/2000/svg" xmlns:xlink="http://www.w3.org/1999/xlink" xml:space="preserve" style="fill-rule:evenodd;clip-rule:evenodd;stroke-linejoin:round;stroke-miterlimit:1.41421;"><rect id="snowb" x="0" y="2.31" width="500" height="214.522" style="fill:none;"/><g><g><path d="M92.177,32.289c-11.93,0 -24.463,11.438 -24.463,29.279c0,39.951 105.897,5.363 105.897,67.314c0,20.14 -11.219,33.384 -20.523,33.384c-20.249,0 -53.085,-21.07 -77.438,-21.07c-15.324,0 -23.533,8.483 -23.533,18.607c0,10.508 8.866,19.155 37.762,19.155c12.86,0 28.731,-3.558 42.085,-9.796l5.199,-3.886c12.587,-5.746 25.174,-15.98 25.174,-33.329c0,-22.438 -17.677,-29.169 -40.443,-33.11c-23.533,-4.049 -48.488,-3.064 -48.488,-11.492c0,-3.995 12.532,-9.468 18.388,-10.508l-2.517,-3.776c-11.493,3.284 -35.245,13.955 -35.245,36.941c0,37.652 90.3,17.239 90.3,41.866c0,4.871 -5.911,8.647 -11.547,10.945l-6.13,3.941c-2.846,1.477 -5.746,3.283 -12.149,4.323c-8.045,2.353 -17.787,3.721 -26.598,3.721c-17.184,0 -28.239,-4.378 -28.239,-9.467c0,-4.269 4.926,-7.936 15.543,-7.936c18.224,0 46.408,18.881 65.015,18.881c16.419,0 44.877,-29.005 44.877,-60.2c0,-61.075 -113.121,-39.896 -113.121,-60.692c0,-5.473 7.333,-7.498 14.119,-7.498c11.219,0 24.409,12.205 38.09,12.205c0,0 6.294,-15.926 7.772,-15.926c-12.697,1.095 -27.637,-11.876 -39.787,-11.876Z" style="fill-rule:nonzero;"/><path d="M123.809,53.578c3.065,-8.92 12.259,-23.587 20.14,-23.587c4.104,0 11.493,7.059 19.428,7.059c5.035,0 6.129,-1.094 6.677,0.055c0.766,1.697 -4.926,3.284 -10.289,6.951c-5.582,3.83 -8.483,8.373 -11.055,8.373c-3.667,0 -10.343,-6.13 -13.572,-6.13c-3.174,0 -4.542,1.204 -6.622,7.279l-7.99,23.314l0.328,3.557l-10.07,29.279l-0.219,9.358l-10.288,29.772l-4.652,0l10.289,-29.991l0.164,-9.194l10.015,-29.114l-0.274,-3.667l7.99,-23.314Z" style="fill-rule:nonzero;"/></g><path d="M270.97,177.863l33.274,-18.826l0,-55.438l-13.517,-13.901l-33.274,19.209l0,55.056l13.517,13.9Zm11.712,-11.766l-8.1,-8.319l0,-53.742l4.379,-2.517l8.099,8.318l0,53.742l-4.378,2.518Z" style="fill-rule:nonzero;"/><path d="M418.843,177.863l33.274,-18.826l0,-55.438l-13.463,-13.901l-16.144,9.304l0,-46.245l-24.792,14.284l2.135,3.721l5.472,-3.174l0,96.32l13.518,13.955Zm11.711,-11.766l-8.099,-8.319l0,-53.742l4.378,-2.517l8.1,8.318l0,53.742l-4.379,2.518Z" style="fill-rule:nonzero;"/><path d="M231.622,89.698l-18.443,10.508l-9.03,-10.508l-14.831,8.537l9.03,10.563l0,55.438l-5.035,2.955l12.423,10.672l14.831,-8.537l-5.09,-4.378l0,-60.966l4.433,-2.518l8.045,8.319l0,54.453l-5.035,2.955l12.423,10.672l14.831,-8.537l-5.089,-4.378l0,-61.349l-13.463,-13.901Z" style="fill-rule:nonzero;"/><path d="M392.957,158.654l0,-55.986l3.995,-2.298l-12.423,-10.727l-14.831,8.538l6.129,5.308l0,60.036l-4.378,2.517l-8.099,-8.318l0,-38.036l5.089,-2.9l-12.423,-10.727l-14.831,8.538l5.035,4.378l0,44.548l-4.378,2.517l-8.1,-8.318l0,-62.17c-11.766,-3.284 -21.453,-12.314 -21.453,-21.125c0,-6.129 3.448,-12.478 8.592,-14.722l-1.696,-2.517c-7.662,2.463 -17.732,10.015 -17.732,22.493c0,11.602 6.13,19.866 15.16,25.776l0,58.504l13.463,13.9l18.99,-10.945l10.617,10.945l33.274,-19.209Z" style="fill-rule:nonzero;"/></g></svg>