<?xml version="1.0" encoding="UTF-8" standalone="no"?><!DOCTYPE svg PUBLIC "-//W3C//DTD SVG 1.1//EN" "http://www.w3.org/Graphics/SVG/1.1/DTD/svg11.dtd"><svg width="100%" height="100%" viewBox="0 0 500 289" version="1.1" xmlns="http://www.w3.org/2000/svg" xmlns:xlink="http://www.w3.org/1999/xlink" xml:space="preserve" style="fill-rule:evenodd;clip-rule:evenodd;stroke-linejoin:round;stroke-miterlimit:1.41421;"><rect id="softinvest" x="0" y="0.188" width="500" height="288.497" style="fill:none;"/><g><path d="M145.18,24.633c8.542,0 17.525,6.333 17.525,26.509c0,47.126 -18.114,78.494 -21.059,81.292c-5.302,5.302 -18.851,-0.442 -18.851,-6.922c0,-4.712 32.841,-39.91 32.841,-78.199c0,-7.658 -4.565,-17.084 -9.719,-17.084c-20.324,0 -89.982,74.371 -89.982,105.003c0,18.114 55.815,53.9 55.815,93.369c0,18.85 -10.161,35.639 -23.268,35.639c-17.231,0 -34.461,-13.402 -34.461,-22.974c0,-15.316 61.705,-77.169 70.836,-77.169c2.945,-1.62 6.185,2.651 6.333,6.038c0,2.798 -7.217,14.727 -7.217,21.207c0,4.712 2.651,8.099 3.829,8.099c2.209,0 9.131,-17.377 9.131,-25.919c0,-12.371 -7.805,-17.23 -7.805,-20.765c0,-1.473 5.449,-8.394 8.836,-8.394c3.976,0 10.456,6.921 10.456,17.672c0,21.943 -14.285,54.489 -21.354,54.489c-4.271,0 -11.34,-10.308 -11.34,-21.943c0,-5.449 1.915,-13.843 1.915,-13.843c-10.456,1.62 -53.9,43.297 -53.9,57.582c0,6.186 10.161,11.782 17.525,11.782c10.456,0 19.586,-14.727 19.586,-27.539c0.148,-36.229 -63.62,-59.203 -63.62,-84.238c0,-51.25 70.984,-113.692 107.948,-113.692Z" style="fill-rule:nonzero;"/><path d="M137.669,250.396c0,-2.209 12.813,-31.515 18.262,-62.442c6.48,-36.081 7.216,-75.696 9.278,-79.23c3.829,-6.48 16.494,-15.169 21.943,-15.169c1.767,0 2.798,2.945 2.798,4.86c0,9.278 -2.798,23.71 -4.271,23.71c-1.473,0 -3.093,-0.883 -3.093,-2.356c0,-1.031 0.59,-3.976 0.442,-7.658c-0.147,-2.946 -1.325,-6.185 -1.914,-6.922c-9.867,16.936 -22.385,158.756 -31.368,158.756c-4.419,0 -12.077,-10.603 -12.077,-13.549Z" style="fill-rule:nonzero;"/><path d="M153.869,170.135c15.758,-15.758 45.506,-40.205 58.171,-47.421c2.209,0 3.977,3.976 3.977,5.302c0,1.473 -18.409,9.867 -44.328,33.872c-2.799,2.651 -15.611,15.316 -16.347,15.316c-1.178,0 -2.946,-5.597 -1.473,-7.069Z" style="fill-rule:nonzero;"/><path d="M204.971,84.424c3.093,0 10.162,3.682 10.162,6.922c0,4.418 -9.278,26.067 -15.463,47.421c-7.069,24.446 -10.015,49.187 -10.898,50.218c-1.767,1.767 -10.898,-1.767 -10.898,-5.301c0,-3.682 2.503,-7.806 10.75,-40.647c6.186,-25.624 12.813,-58.613 16.347,-58.613Z" style="fill-rule:nonzero;"/><path d="M335.746,51.436c1.767,0 4.86,3.24 4.86,7.805c0,4.418 -0.884,5.007 -1.473,5.597c-0.736,0.736 -28.128,0.883 -54.047,7.658c-26.362,6.921 -50.072,18.997 -52.428,18.997c-3.535,0 -7.658,-11.929 -5.744,-13.843c0.884,-0.884 28.571,-8.983 56.11,-15.611c26.214,-6.479 50.366,-10.603 52.722,-10.603Z" style="fill-rule:nonzero;"/><path d="M251.95,77.208c-15.905,21.649 -35.639,107.506 -37.259,123.706c-0.589,3.829 14.727,-5.744 14.727,-5.744c-0.884,-20.764 24.299,-100.731 42.413,-123.411c1.179,-3.534 -19.881,5.449 -19.881,5.449Z" style="fill-rule:nonzero;"/><path d="M403.048,147.897c1.031,0 1.767,0.442 2.062,0.737c2.945,2.945 2.651,10.75 0.147,13.401c-0.147,0.147 -4.86,-1.178 -11.929,-1.178c-20.617,0 -68.922,5.743 -110.01,19.881c-76.579,26.361 -99.406,50.513 -99.995,50.513c-4.124,0 -7.658,-12.665 -7.658,-17.819c0,-10.309 153.012,-65.535 227.383,-65.535Z" style="fill-rule:nonzero;"/><path d="M268.002,97.237c3.093,0 10.457,1.62 10.457,4.123c0,9.573 -8.248,27.245 -13.402,42.855c-3.24,9.573 -4.123,17.378 -4.713,17.967c-2.798,2.798 -12.37,-2.651 -12.37,-4.565c0,-1.031 5.154,-13.107 10.309,-28.423c5.007,-14.727 9.13,-31.957 9.719,-31.957Z" style="fill-rule:nonzero;"/><path d="M297.603,88.253c1.915,0 8.248,2.651 8.248,5.007c0,1.915 -19.882,38.585 -19.882,52.87c2.062,0 20.912,-28.276 22.68,-35.492c1.472,-1.325 3.829,3.829 3.387,5.596c-2.798,7.806 -22.68,37.848 -26.067,37.848c-2.503,0 -11.339,-3.681 -11.339,-6.921c0,-5.596 8.099,-31.074 14.874,-40.205c-6.922,2.651 -20.323,23.416 -23.269,33.43c-2.945,10.015 0.295,-7.657 3.829,-16.935c3.535,-9.278 21.649,-35.198 27.539,-35.198Z" style="fill-rule:nonzero;"/><path d="M321.314,81.479c2.798,0 8.983,4.418 8.983,8.394c0,2.651 -13.99,20.323 -13.99,41.972c4.27,-13.549 31.957,-61.411 45.211,-74.665c1.473,-1.473 8.247,3.092 8.247,7.51c0,2.209 -16.936,17.083 -29.306,36.376c-11.929,18.556 -19.734,42.708 -21.207,44.18c-2.356,2.357 -14.727,-3.681 -14.727,-15.316c0.147,-19.881 13.402,-48.451 16.789,-48.451Z" style="fill-rule:nonzero;"/><path d="M379.485,75.441c2.945,0 7.069,7.952 7.069,13.549c0,2.945 -26.214,35.344 -39.468,35.344c-1.767,0 -3.093,-5.891 -1.031,-5.891c11.045,0 33.135,-23.121 33.135,-28.275c-9.278,0 -30.042,26.655 -30.042,39.762c0,0.737 0.883,1.62 1.914,1.62c7.953,0 20.765,-14.579 21.649,-14.579c1.03,0 2.356,2.503 2.356,3.681c0,1.768 -18.114,17.967 -23.71,17.967c-4.271,0 -10.162,-9.278 -10.162,-14.579c0,-23.122 29.454,-48.599 38.29,-48.599Z" style="fill-rule:nonzero;"/><path d="M407.908,68.814c1.62,0 7.216,6.185 7.216,12.37c0,1.915 -12.518,10.456 -12.518,20.765c0,4.124 3.24,8.984 3.24,13.107c0,8.1 -12.96,17.378 -15.905,17.378c-2.209,0 -10.309,-4.713 -10.309,-8.247c0,-10.751 56.551,-51.544 91.749,-59.349c1.472,0 3.387,3.534 3.387,5.596c0,1.031 -17.82,4.712 -39.615,15.905c-23.122,11.929 -49.336,31.663 -49.336,37.259c0,0.883 1.031,2.503 1.62,2.503c1.915,0 10.015,-6.332 10.015,-10.603c0,-2.504 -6.922,-13.549 -6.922,-18.998c0,-8.099 12.223,-27.686 17.378,-27.686Z" style="fill-rule:nonzero;"/><path d="M453.414,35.384c1.767,0 9.867,5.596 9.867,9.572c-0.736,2.798 -14.58,22.974 -25.772,44.328c-11.34,21.501 -17.82,42.414 -18.556,43.297c-1.031,1.031 -9.278,-3.092 -9.278,-5.596c0,-1.325 11.34,-23.121 22.532,-46.242c10.898,-22.385 18.703,-45.359 21.207,-45.359Z" style="fill-rule:nonzero;"/></g></svg>