<?xml version="1.0" encoding="UTF-8" standalone="no"?><!DOCTYPE svg PUBLIC "-//W3C//DTD SVG 1.1//EN" "http://www.w3.org/Graphics/SVG/1.1/DTD/svg11.dtd"><svg width="100%" height="100%" viewBox="0 0 500 229" version="1.1" xmlns="http://www.w3.org/2000/svg" xmlns:xlink="http://www.w3.org/1999/xlink" xml:space="preserve" style="fill-rule:evenodd;clip-rule:evenodd;stroke-linejoin:round;stroke-miterlimit:1.41421;"><rect id="trime" x="0" y="0.119" width="500" height="228.837" style="fill:none;"/><path d="M213.186,78.267c0,-2.644 9.076,-13.403 11.42,-13.403c1.863,0 5.65,5.41 5.65,10.338c0,4.268 -5.169,11.48 -6.852,11.48c-1.623,0 -10.218,-6.611 -10.218,-8.415Zm-12.742,-34.86c7.032,0 12.742,-5.289 12.742,-6.371c0,-1.382 -25.184,-3.306 -87.692,-3.306c-81.562,0 -91.539,8.595 -95.085,12.081c-2.464,2.525 -5.59,8.415 -5.59,18.272c0,4.688 2.224,13.403 3.186,13.403c0.721,0 2.163,-8.475 9.015,-15.326c13.103,-13.043 70.082,-17.07 118.165,-18.212c-7.092,27.167 -40.57,93.522 -60.464,93.522c-6.071,0 -11.601,-3.245 -12.202,-3.245c-0.3,0 -0.42,0.24 -0.42,0.541c0,5.709 11.419,19.654 20.315,19.654c18.091,0 58.782,-80.961 66.475,-110.712c11.721,-0.241 22.599,-0.301 31.555,-0.301Zm-15.988,52.411c-1.923,5.229 -3.486,10.398 -3.486,12.562c0,1.683 1.383,4.387 4.568,4.387c1.984,0 5.41,-1.442 8.956,-3.305c-4.448,9.556 -8.054,19.113 -8.054,23.14c0,2.224 1.202,5.409 4.988,5.409c4.388,0 25.304,-11.6 25.304,-15.086c0,-0.24 -0.12,-0.361 -0.36,-0.361c-2.765,0 -13.464,6.251 -16.108,6.251c0,-8.595 19.954,-30.833 19.954,-35.882c0,-2.524 -8.054,-8.595 -9.857,-8.595c-2.224,0 -8.114,9.496 -13.403,20.195c-2.765,1.863 -6.612,4.267 -9.737,4.267c-0.361,0 -0.481,-0.24 -0.481,-0.54c0,-3.787 12.863,-19.955 12.863,-21.337c0,-2.044 -7.393,-6.311 -8.295,-5.41c-0.781,0.781 -2.043,3.126 -3.366,6.071c-3.546,2.764 -9.196,8.054 -14.906,13.944c2.946,-4.568 4.989,-8.054 4.989,-9.797c0,-2.525 -10.999,-8.896 -12.562,-7.273c-3.967,3.967 -24.642,44.417 -24.642,52.832c0,2.104 6.01,7.934 8.474,7.934c0.721,0 2.224,-6.011 5.77,-13.945c1.262,-2.885 2.885,-5.83 4.568,-8.835c4.207,-6.912 15.627,-18.692 24.823,-26.626Zm290.725,27.588c0,4.808 -4.027,12.502 -4.809,12.502c-0.661,0 0.121,-7.093 -3.906,-11.12c-5.109,-5.109 -15.507,-9.015 -35.943,-9.015c-27.648,0 -68.459,22.058 -98.691,22.058c-9.256,0 -12.862,-3.847 -13.283,-11.36c-6.912,7.874 -17.971,18.753 -23.501,18.753c-6.912,0 -10.518,-4.989 -10.518,-6.972c0,-9.016 19.534,-42.735 19.534,-42.735c0,0 -11.18,12.562 -22.058,27.168c-7.934,10.638 -18.212,30.472 -18.993,31.254c-0.181,0.18 -0.481,0.36 -0.842,0.36c-2.043,0 -12.021,-4.267 -12.021,-7.152c0,-2.164 21.638,-43.455 21.638,-43.455c0,0 -73.207,98.811 -88.594,98.811c-10.939,0 -23.801,-14.064 -23.801,-20.976c0,-0.241 0.18,-0.421 0.36,-0.421c0.962,0 7.333,4.688 15.327,4.688c9.917,0 44.718,-32.516 73.628,-67.918c29.631,-36.303 53.192,-76.633 55.296,-76.633c3.426,0 12.622,4.989 12.622,7.213c0,2.043 -11.42,19.233 -21.638,37.264c-10.879,19.234 -20.616,39.309 -20.616,39.309c0,0 45.98,-61.487 49.106,-61.487c3.185,0 12.381,6.311 12.381,9.316c0,1.803 -12.081,16.649 -21.577,32.937c-9.016,15.387 -15.507,31.675 -14.606,31.675c2.585,0 13.043,-10.338 19.895,-18.632c4.327,-14.004 20.736,-34.44 26.746,-34.44c6.431,0 10.038,6.792 10.038,10.819c0,7.633 -9.797,23.02 -24.763,24.522c-1.623,3.426 -2.645,6.672 -2.645,9.196c0,2.284 1.322,4.508 8.595,4.508c20.435,0 63.831,-26.025 102.057,-26.025c21.878,-0.06 35.582,5.229 35.582,15.988Zm-141.967,-6.912c6.432,-2.344 15.688,-8.355 15.688,-16.349c-3.787,0 -11.06,8.054 -15.688,16.349Z" style="fill-rule:nonzero;"/></svg>