<?xml version="1.0" encoding="UTF-8" standalone="no"?><!DOCTYPE svg PUBLIC "-//W3C//DTD SVG 1.1//EN" "http://www.w3.org/Graphics/SVG/1.1/DTD/svg11.dtd"><svg width="100%" height="100%" viewBox="0 0 500 196" version="1.1" xmlns="http://www.w3.org/2000/svg" xmlns:xlink="http://www.w3.org/1999/xlink" xml:space="preserve" style="fill-rule:evenodd;clip-rule:evenodd;stroke-linejoin:round;stroke-miterlimit:1.41421;"><rect id="variorum" x="0" y="0.151" width="500" height="195.613" style="fill:none;"/><path d="M406.813,144.62l14.51,-60.371l-14.51,18.487l-8.169,31.744c-0.036,0.251 -0.323,0.358 -0.538,0.215l-11.321,-7.846c-0.108,-0.108 -0.18,-0.251 -0.144,-0.394l11.035,-44.177l-12.683,14.439l-10.139,37.763c-0.036,0.251 -0.323,0.358 -0.538,0.215l-11.214,-7.846c-0.108,-0.072 -0.179,-0.215 -0.143,-0.359l1.146,-5.517l-11.716,13.758c-0.107,0.143 -0.322,0.179 -0.466,0.072l-13.041,-7.99c-0.143,-0.072 -0.215,-0.215 -0.179,-0.358l2.364,-14.009l-14.188,22.249c-0.107,0.143 -0.322,0.215 -0.501,0.108l-13.257,-7.954c-0.143,-0.072 -0.215,-0.215 -0.179,-0.359l9.925,-58.257c0.035,-0.143 0.107,-0.25 0.25,-0.286l15.765,-4.765c0.287,-0.072 0.537,0.179 0.466,0.429l-12.146,58.043l17.054,-28.126l4.264,-25.259c0.036,-0.143 0.107,-0.251 0.251,-0.286l15.8,-4.766c0.287,-0.071 0.537,0.179 0.466,0.43l-12.791,60.228l15.227,-19.061l7.703,-36.545c0.036,-0.143 0.108,-0.251 0.251,-0.286l17.914,-4.801c0.251,-0.072 0.502,0.179 0.43,0.429l-4.873,18.13l15.371,-18.559c0.107,-0.144 0.286,-0.18 0.43,-0.108l10.892,4.801c0.179,0.072 0.25,0.251 0.215,0.43l-5.088,19.526l18.165,-24.614c0.107,-0.143 0.287,-0.179 0.43,-0.107l10.999,4.765c0.144,0.072 0.251,0.251 0.179,0.466l-19.92,76.314l-2.867,10.928c-0.035,0.143 -0.179,0.251 -0.358,0.251l-337.539,0c-0.18,0 -0.323,-0.108 -0.359,-0.287l-2.006,-10.498c-0.036,-0.214 0.143,-0.429 0.358,-0.429l329.013,0Zm-129.019,-66.283l1.577,-10.211c0.036,-0.143 0.107,-0.251 0.251,-0.287l15.693,-4.765c0.25,-0.072 0.501,0.143 0.465,0.394l-3.081,17.305l12.719,-17.627c0.108,-0.108 0.287,-0.179 0.43,-0.108l11.788,4.801c0.143,0.072 0.25,0.215 0.215,0.394l-7.238,37.763c-0.036,0.108 -0.107,0.215 -0.215,0.251l-13.901,5.804c-0.287,0.108 -0.573,-0.107 -0.502,-0.394l6.7,-32.424l-12.826,17.269l-6.772,37.906c-0.036,0.251 -0.322,0.395 -0.537,0.251l-12.075,-7.846c-0.107,-0.072 -0.179,-0.215 -0.143,-0.358l6.342,-41.132l-6.987,0l-21.855,46.9c-0.036,0.072 -0.108,0.143 -0.215,0.179l-7.596,2.508c-0.107,0.072 -0.215,0.036 -0.322,-0.036l-10.749,-8.025c-0.107,-0.072 -0.179,-0.215 -0.143,-0.359l0.824,-3.69l-8.384,11.931c-0.107,0.143 -0.322,0.215 -0.466,0.107l-13.471,-7.989c-0.108,-0.072 -0.179,-0.215 -0.108,-0.466l7.811,-58.257c0,-0.143 0.108,-0.251 0.251,-0.287l16.123,-4.801c0.25,-0.071 0.501,0.144 0.465,0.394l-10.712,59.046l12.11,-15.657l8.599,-38.731c0.035,-0.107 0.107,-0.215 0.25,-0.251l17.413,-4.801c0.251,-0.071 0.502,0.179 0.43,0.43l-2.472,8.993l12.253,-9.315c0.179,-0.144 0.43,-0.108 0.537,0.107l4.945,9.96c0.036,0.108 0.036,0.215 0,0.323l-2.222,4.801l4.801,0Zm-88.962,33.213l13.687,-7.882c0.072,-0.036 0.143,-0.144 0.179,-0.251l7.345,-35.148c0.036,-0.179 -0.072,-0.358 -0.215,-0.394l-12.433,-4.801c-0.143,-0.072 -0.322,0 -0.429,0.108l-14.153,18.989l2.437,-18.667c0.035,-0.251 -0.215,-0.466 -0.466,-0.394l-15.12,4.765c-0.143,0.036 -0.215,0.143 -0.251,0.287l-4.012,33.822l-16.553,19.347l12.217,-52.99c0.036,-0.179 -0.071,-0.358 -0.25,-0.43l-15.908,-4.801c-0.215,-0.072 -0.43,0.072 -0.466,0.286l-4.335,23.898l-18.452,27.552l19.455,-51.235c0.107,-0.286 -0.143,-0.537 -0.43,-0.465l-18.631,4.801c-0.107,0.036 -0.215,0.107 -0.251,0.25l-17.914,56.896c-0.036,0.143 0,0.322 0.144,0.394l14.403,9.316c0.179,0.107 0.394,0.071 0.501,-0.108l17.843,-28.842l-3.726,20.602c-0.036,0.143 0.035,0.322 0.179,0.394l15.155,8.025c0.143,0.072 0.358,0.036 0.466,-0.107l15.012,-19.527l-1.326,11.286c0,0.143 0.036,0.287 0.18,0.358l12.826,7.847c0.215,0.143 0.502,0 0.538,-0.251l4.801,-36.975l13.722,-19.383l-6.234,33.07c-0.108,0.286 0.215,0.501 0.465,0.358Zm-72.803,-58.974c-0.179,0 -0.322,0.108 -0.358,0.251l-24.865,81.725c-0.072,0.251 -0.323,0.322 -0.538,0.215l-16.516,-9.674c-0.108,-0.072 -0.144,-0.143 -0.18,-0.251l-15.37,-79.861c-0.036,-0.179 0.072,-0.323 0.215,-0.394l18.201,-7.847c0.215,-0.107 0.466,0.072 0.501,0.287l8.277,77.353l16.445,-72.731c0.036,-0.179 0.179,-0.287 0.358,-0.287l112.358,0c0.215,0 0.394,0.179 0.359,0.394l-1.398,10.498c-0.036,0.179 -0.179,0.322 -0.358,0.322l-97.131,0Zm143.314,32.783c-0.108,0 -0.215,-0.036 -0.287,-0.143l-3.726,-4.98l-11.68,42.17c-0.108,0.43 0.466,0.645 0.645,0.251l17.556,-37.298l-2.508,0Zm5.804,-6.95l2.436,-5.16l-6.413,5.16l3.977,0Zm-48.261,-20.781l16.696,-4.98c0.143,-0.036 0.215,-0.143 0.251,-0.287l2.866,-15.872c0.036,-0.25 -0.215,-0.465 -0.466,-0.394l-17.484,5.195c-0.143,0.036 -0.251,0.144 -0.251,0.287l-2.078,15.657c-0.035,0.287 0.215,0.466 0.466,0.394Zm230.52,-16.23c0.251,0 0.43,0.215 0.394,0.466l-2.866,10.497c-0.072,0.144 -0.179,0.251 -0.358,0.251l-206.694,0c-0.215,0 -0.395,-0.215 -0.359,-0.43l1.899,-10.498c0.036,-0.179 0.179,-0.286 0.359,-0.286l207.625,0Z"/></svg>