<?xml version="1.0" encoding="UTF-8" standalone="no"?><!DOCTYPE svg PUBLIC "-//W3C//DTD SVG 1.1//EN" "http://www.w3.org/Graphics/SVG/1.1/DTD/svg11.dtd"><svg width="100%" height="100%" viewBox="0 0 500 275" version="1.1" xmlns="http://www.w3.org/2000/svg" xmlns:xlink="http://www.w3.org/1999/xlink" xml:space="preserve" style="fill-rule:evenodd;clip-rule:evenodd;stroke-linejoin:round;stroke-miterlimit:1.41421;"><rect id="zalmax" x="0" y="0.417" width="500" height="274.039" style="fill:none;"/><path d="M124.093,77.003c10.458,0.09 18.244,5.904 18.244,20.217c0,11.14 -11.028,26.791 -23.059,44.224c1.894,0.223 3.899,0.334 6.016,0.334c5.514,0 7.129,-1.058 8.02,-1.838c0.835,-0.724 1.281,-2.395 2.284,-2.395c0.946,0 1.949,1.671 1.949,4.735c0,6.015 -3.509,13.59 -9.524,13.59c-5.681,0 -11.195,-1.281 -16.598,-2.841c-1.114,1.727 -2.284,3.453 -3.398,5.236c-14.759,23.114 -31.914,51.965 -31.914,56.644c0,1.559 0.612,2.451 1.114,2.451c7.018,0 43.889,-22.836 55.864,-36.315c2.729,-3.119 1.504,-6.071 3.453,-6.071c1.56,0 7.631,8.911 7.631,18.881c0,11.195 -56.366,42.887 -69.455,42.887c-7.185,0 -11.139,-5.124 -11.139,-11.696c0,-18.826 19.717,-47.399 36.593,-72.574c0.209,-0.292 0.41,-0.593 0.609,-0.895l0.397,-0.605c0.199,-0.302 0.4,-0.602 0.609,-0.895c-4.734,-1.337 -9.301,-2.395 -13.757,-2.395c-1.838,0 -4.066,0.279 -5.458,0.78c-1.003,0.39 -1.393,1.114 -1.671,1.114c-0.669,0 -1.56,-2.841 -1.56,-6.35c0,-3.731 0.836,-9.524 5.793,-9.524c8.299,0 15.484,3.286 24.005,5.681c13.813,-19.884 25.51,-36.092 25.51,-43.165c0,-1.671 -1.281,-4.066 -3.732,-4.066c-14.76,0 -65.277,16.598 -65.277,27.737c0,1.337 -0.891,2.674 -1.894,2.674c-1.003,0 -4.679,-6.35 -4.679,-13.535c0,-19.55 35.758,-32.026 64.776,-32.026l0.248,0.001Zm309.987,0.333c-4.79,0 -10.861,7.297 -17.433,16.543c-2.284,-10.137 -4.623,-18.938 -9.413,-18.938c-6.127,0 -13.59,7.13 -13.59,12.477c0,1.058 0.501,1.726 2.116,1.726c2.284,0 5.236,10.36 9.413,21.221c-7.853,10.972 -15.818,20.441 -22.725,20.441c-1.281,0 -2.283,-1.504 -2.283,-3.175c0,-6.238 5.402,-19.94 5.402,-26.066c0,-4.679 -5.068,-6.294 -7.63,-6.294c-4.567,0 -9.97,9.023 -10.694,19.16c-4.957,7.965 -12.699,18.213 -18.603,18.213c-1.615,0 -3.008,-3.286 -3.008,-5.96c0,-21.332 20.608,-36.036 30.355,-36.036c1.838,0 2.73,1.058 4.623,1.058c1.894,0 3.398,-5.402 3.398,-8.41c0,-5.403 -3.453,-9.357 -7.742,-9.357c-16.486,0 -39.489,22.724 -39.489,48.401c0,2.451 0.222,4.567 0.612,6.461c-4.4,5.569 -8.8,8.8 -11.306,8.689c-2.061,-0.112 -2.785,-7.185 -2.507,-13.145c0.502,-10.193 8.021,-26.79 8.466,-35.535c0.334,-6.906 -3.397,-10.917 -7.797,-11.139c-5.236,-0.279 -12.031,5.458 -18.436,13.144c-0.279,-5.959 -3.788,-9.468 -7.742,-9.636c-5.013,-0.222 -12.254,6.183 -19.104,14.538c0.111,-1.114 0.167,-2.228 0.222,-3.398c0.168,-3.008 -1.448,-6.684 -4.901,-6.906c-7.296,-0.39 -12.588,3.119 -12.643,5.291c-0.112,2.172 -0.056,13.646 -0.446,21.165c-0.334,6.349 -1.337,12.587 -2.283,18.38c-5.459,11.696 -14.482,28.74 -21.611,28.74c-2.562,0 -8.912,-4.01 -8.912,-15.874c0,-1.225 0.056,-2.562 0.112,-3.899c14.593,-20.385 30.132,-53.803 30.132,-71.07c-0.056,-10.526 -8.744,-13.813 -12.699,-13.813c-15.985,0 -28.684,42.497 -28.684,75.303c0,6.016 0.557,12.811 2.172,18.882c-3.397,7.63 -11.808,21.22 -17.433,21.22c-0.891,0 -1.393,-1.114 -1.393,-2.952c0,-10.081 3.676,-19.717 3.676,-30.132c0,-4.344 -3.787,-7.018 -7.853,-7.018c-6.294,0 -9.301,8.188 -9.301,14.092c0,2.673 0.055,5.124 0.222,7.463c-6.628,14.092 -20.106,36.37 -28.071,36.37c-2.952,0 -5.57,-2.617 -5.57,-8.521c0,-20.051 17.434,-54.974 36.036,-54.974c2.618,0 4.846,1.504 7.798,1.504c2.506,0 4.233,-7.018 4.233,-10.749c0,-5.96 -4.567,-10.416 -10.137,-10.416c-26.735,0 -46.396,37.15 -46.396,64.609c0,16.32 8.188,25.621 14.482,25.621c7.296,0 20.552,-18.714 28.684,-34.365c2.172,12.587 6.795,17.266 10.638,17.266c7.686,0 17.767,-13.59 22.39,-23.059c2.785,6.405 7.241,10.973 14.092,10.973c7.686,0 15.873,-11.307 21.777,-22.335c-0.445,8.856 3.119,13.59 5.514,13.702c2.785,0.111 6.461,-11.92 9.803,-26.902c1.56,-7.018 3.732,-15.261 5.18,-24.619c4.344,-5.959 8.41,-10.248 10.36,-10.136c2.005,0.111 -3.175,23.838 -3.843,36.871c-0.557,11.307 1.949,17.823 6.739,17.823c3.119,0 4.233,-10.582 7.129,-23.337c2.451,-10.972 4.902,-18.658 6.35,-25.286c4.567,-5.96 9.023,-10.304 11.139,-10.249c2.061,0.112 -5.18,23.003 -5.792,35.758c-0.557,11.028 3.843,17.043 11.529,17.433c6.572,0.334 13.2,-4.623 17.767,-10.081c2.061,3.787 5.069,5.403 7.575,5.403c6.795,0 14.872,-8.689 20.831,-17.378c1.281,7.742 5.737,14.092 15.484,14.092c7.463,0 16.152,-9.469 24.395,-20.163c4.289,9.914 9.692,18.714 16.765,18.714c4.066,0 12.198,-5.959 12.198,-10.749c0,-0.669 -0.223,-1.615 -0.835,-1.615c-0.724,0 -1.226,1.782 -3.509,1.782c-7.575,0 -10.973,-11.195 -13.758,-22.892c6.517,-8.8 12.087,-15.873 15.763,-15.873c1.392,0 3.787,3.62 4.121,3.62c0.724,0 2.73,-2.005 2.73,-6.071c0,-3.732 -2.173,-5.626 -6.851,-5.626Zm-182.52,-5.347c0.167,0.724 0.278,1.56 0.278,2.507c0,11.195 -10.972,38.32 -22.446,56.477c3.676,-24.061 15.651,-57.313 22.168,-58.984Z"/></svg>