<?xml version="1.0" encoding="utf-8"?>
<!-- Generator: Adobe Illustrator 19.2.1, SVG Export Plug-In . SVG Version: 6.00 Build 0)  -->
<svg version="1.1" id="Layer_1" xmlns="http://www.w3.org/2000/svg" xmlns:xlink="http://www.w3.org/1999/xlink" x="0px" y="0px"
	 viewBox="0 0 16 16" style="enable-background:new 0 0 16 16;" xml:space="preserve">
<path d="M13.8,7.9c-0.4,0.4-1.2,0.5-2.1,0.1C10.2,7.5,9,8,8.4,8.7l0.8,0.7c0.3-0.4,1-0.7,1.8-0.5V13H6V7.8V7.7
	c2.1-0.1,3.3-1.2,3.3-3c-0.1-2.1-1.1-2.8-2-2.8C5.2,1.9,5,4.6,5,6.7C4,6.6,3.3,6.1,2.6,5.2L1.9,5.9C2.6,6.8,3.6,7.6,5,7.7v0.1V13H4
	v1h8V9.2c1.1,0.2,2,0,2.6-0.6L13.8,7.9z M7.3,2.9c0.8,0,1,1.1,1,1.8c0,1.4-0.9,1.9-2.3,2C6,5.4,6,2.9,7.3,2.9z"/>
</svg>
